Varta-Light.ufo
<glyph name="quotesingle" format="2">
  <advance width="485"/>
  <unicode hex="0027"/>
  <outline>
    <contour>
      <point x="197" y="910" type="line"/>
      <point x="285" y="910" type="line"/>
      <point x="312" y="1247" type="line"/>
      <point x="315" y="1415" type="line"/>
      <point x="166" y="1415" type="line"/>
      <point x="171" y="1247" type="line"/>
    </contour>
  </outline>
</glyph>
<glyph name="parenleft" format="2">
  <advance width="600"/>
  <unicode hex="0028"/>
  <outline>
    <contour>
      <point x="528" y="-317" type="line"/>
      <point x="368" y="-58"/>
      <point x="290" y="242"/>
      <point x="290" y="567" type="curve" smooth="yes"/>
      <point x="290" y="894"/>
      <point x="368" y="1197"/>
      <point x="528" y="1456" type="curve"/>
      <point x="443" y="1498" type="line"/>
      <point x="274" y="1225"/>
      <point x="173" y="939"/>
      <point x="173" y="567" type="curve" smooth="yes"/>
      <point x="173" y="196"/>
      <point x="274" y="-86"/>
      <point x="443" y="-359" type="curve"/>
    </contour>
  </outline>
</glyph>
<glyph name="asterisk" format="2">
  <advance width="837"/>
  <unicode hex="002A"/>
  <outline>
    <contour>
      <point x="278" y="895" type="line"/>
      <point x="419" y="1069" type="line"/>
      <point x="558" y="895" type="line"/>
      <point x="628" y="947" type="line"/>
      <point x="515" y="1135" type="line"/>
      <point x="708" y="1213" type="line"/>
      <point x="682" y="1294" type="line"/>
      <point x="478" y="1244" type="line"/>
      <point x="460" y="1458" type="line"/>
      <point x="375" y="1458" type="line"/>
      <point x="357" y="1242" type="line"/>
      <point x="155" y="1294" type="line"/>
      <point x="129" y="1213" type="line"/>
      <point x="322" y="1135" type="line"/>
      <point x="207" y="947" type="line"/>
    </contour>
  </outline>
</glyph>
<glyph name="one" format="2">
  <advance width="1003"/>
  <unicode hex="0031"/>
  <outline>
    <contour>
      <point x="166" y="0" type="line"/>
      <point x="881" y="0" type="line"/>
      <point x="881" y="115" type="line"/>
      <point x="605" y="115" type="line"/>
      <point x="605" y="1349" type="line"/>
      <point x="499" y="1349" type="line"/>
      <point x="431" y="1309"/>
      <point x="346" y="1278"/>
      <point x="232" y="1258" type="curve"/>
      <point x="232" y="1165" type="line"/>
      <point x="468" y="1179" type="line"/>
      <point x="468" y="115" type="line"/>
      <point x="166" y="115" type="line"/>
    </contour>
  </outline>
</glyph>
<glyph name="less" format="2">
  <advance width="1003"/>
  <unicode hex="003C"/>
  <outline>
    <contour>
      <point x="933" y="281" type="line"/>
      <point x="933" y="403" type="line"/>
      <point x="210" y="676" type="line"/>
      <point x="210" y="684" type="line"/>
      <point x="933" y="957" type="line"/>
      <point x="933" y="1079" type="line"/>
      <point x="70" y="739" type="line"/>
      <point x="70" y="621" type="line"/>
    </contour>
  </outline>
</glyph>
<glyph name="E" format="2">
  <advance width="1056"/>
  <unicode hex="0045"/>
  <anchor x="574" y="-300" name="btm"/>
  <anchor x="574" y="1590" name="top"/>
  <outline>
    <contour>
      <point x="184" y="0" type="line"/>
      <point x="964" y="0" type="line"/>
      <point x="964" y="119" type="line"/>
      <point x="324" y="119" type="line"/>
      <point x="324" y="651" type="line"/>
      <point x="845" y="651" type="line"/>
      <point x="845" y="770" type="line"/>
      <point x="324" y="770" type="line"/>
      <point x="324" y="1228" type="line"/>
      <point x="943" y="1228" type="line"/>
      <point x="943" y="1346" type="line"/>
      <point x="184" y="1346" type="line"/>
    </contour>
  </outline>
</glyph>
<glyph name="L" format="2">
  <advance width="967"/>
  <unicode hex="004C"/>
  <anchor x="503" y="-300" name="btm"/>
  <anchor x="741" y="1003" name="car"/>
  <anchor x="675" y="772" name="dot"/>
  <anchor x="257" y="1590" name="top"/>
  <outline>
    <contour>
      <point x="184" y="0" type="line"/>
      <point x="924" y="0" type="line"/>
      <point x="924" y="119" type="line"/>
      <point x="324" y="119" type="line"/>
      <point x="324" y="1346" type="line"/>
      <point x="184" y="1346" type="line"/>
    </contour>
  </outline>
</glyph>
<glyph name="N" format="2">
  <advance width="1304"/>
  <unicode hex="004E"/>
  <anchor x="652" y="0" name="bottom"/>
  <anchor x="652" y="1346" name="top"/>
  <outline>
    <contour>
      <point x="184" y="0" type="line"/>
      <point x="316" y="0" type="line"/>
      <point x="316" y="758" type="line"/>
      <point x="316" y="895"/>
      <point x="306" y="1030"/>
      <point x="298" y="1163" type="curve"/>
      <point x="307" y="1163" type="line"/>
      <point x="455" y="889" type="line"/>
      <point x="974" y="0" type="line"/>
      <point x="1119" y="0" type="line"/>
      <point x="1119" y="1346" type="line"/>
      <point x="987" y="1346" type="line"/>
      <point x="987" y="597" type="line"/>
      <point x="987" y="460"/>
      <point x="998" y="317"/>
      <point x="1005" y="183" type="curve"/>
      <point x="997" y="183" type="line"/>
      <point x="849" y="458" type="line"/>
      <point x="328" y="1346" type="line"/>
      <point x="184" y="1346" type="line"/>
    </contour>
  </outline>
</glyph>
<glyph name="O" format="2">
  <advance width="1338"/>
  <unicode hex="004F"/>
  <anchor x="668" y="-300" name="btm"/>
  <anchor x="668" y="1590" name="top"/>
  <outline>
    <contour>
      <point x="668" y="-25" type="curve" smooth="yes"/>
      <point x="1007" y="-25"/>
      <point x="1235" y="238"/>
      <point x="1235" y="676" type="curve" smooth="yes"/>
      <point x="1235" y="1112"/>
      <point x="1007" y="1370"/>
      <point x="668" y="1370" type="curve" smooth="yes"/>
      <point x="328" y="1370"/>
      <point x="102" y="1113"/>
      <point x="102" y="676" type="curve" smooth="yes"/>
      <point x="102" y="238"/>
      <point x="328" y="-25"/>
    </contour>
    <contour>
      <point x="668" y="99" type="curve" smooth="yes"/>
      <point x="407" y="99"/>
      <point x="246" y="318"/>
      <point x="246" y="676" type="curve" smooth="yes"/>
      <point x="246" y="1033"/>
      <point x="407" y="1247"/>
      <point x="668" y="1247" type="curve" smooth="yes"/>
      <point x="927" y="1247"/>
      <point x="1091" y="1033"/>
      <point x="1091" y="676" type="curve" smooth="yes"/>
      <point x="1091" y="318"/>
      <point x="927" y="99"/>
    </contour>
  </outline>
</glyph>
<glyph name="Q" format="2">
  <advance width="1338"/>
  <unicode hex="0051"/>
  <anchor x="669" y="0" name="bottom"/>
  <anchor x="669" y="1346" name="top"/>
  <outline>
    <contour>
      <point x="1225" y="-189" type="line"/>
      <point x="1189" y="-199"/>
      <point x="1140" y="-209"/>
      <point x="1080" y="-209" type="curve" smooth="yes"/>
      <point x="925" y="-209"/>
      <point x="797" y="-144"/>
      <point x="747" y="-19" type="curve"/>
      <point x="1038" y="22"/>
      <point x="1235" y="278"/>
      <point x="1235" y="679" type="curve" smooth="yes"/>
      <point x="1235" y="1112"/>
      <point x="1006" y="1370"/>
      <point x="666" y="1370" type="curve" smooth="yes"/>
      <point x="327" y="1370"/>
      <point x="100" y="1114"/>
      <point x="100" y="679" type="curve" smooth="yes"/>
      <point x="100" y="274"/>
      <point x="302" y="16"/>
      <point x="595" y="-20" type="curve"/>
      <point x="663" y="-199"/>
      <point x="826" y="-328"/>
      <point x="1066" y="-328" type="curve" smooth="yes"/>
      <point x="1140" y="-328"/>
      <point x="1215" y="-313"/>
      <point x="1253" y="-301" type="curve"/>
    </contour>
    <contour>
      <point x="666" y="99" type="curve" smooth="yes"/>
      <point x="407" y="99"/>
      <point x="245" y="322"/>
      <point x="245" y="679" type="curve" smooth="yes"/>
      <point x="245" y="1034"/>
      <point x="407" y="1247"/>
      <point x="666" y="1247" type="curve" smooth="yes"/>
      <point x="925" y="1247"/>
      <point x="1088" y="1034"/>
      <point x="1088" y="679" type="curve" smooth="yes"/>
      <point x="1088" y="322"/>
      <point x="925" y="99"/>
    </contour>
  </outline>
</glyph>
<glyph name="Y" format="2">
  <advance width="939"/>
  <unicode hex="0059"/>
  <anchor x="470" y="0" name="bottom"/>
  <anchor x="470" y="1346" name="top"/>
  <outline>
    <contour>
      <point x="399" y="0" type="line"/>
      <point x="539" y="0" type="line"/>
      <point x="539" y="531" type="line"/>
      <point x="943" y="1346" type="line"/>
      <point x="800" y="1346" type="line"/>
      <point x="613" y="950" type="line"/>
      <point x="571" y="851"/>
      <point x="521" y="757"/>
      <point x="474" y="658" type="curve"/>
      <point x="465" y="658" type="line"/>
      <point x="417" y="757"/>
      <point x="374" y="851"/>
      <point x="330" y="950" type="curve" smooth="yes"/>
      <point x="144" y="1346" type="line"/>
      <point x="-6" y="1346" type="line"/>
      <point x="399" y="531" type="line"/>
    </contour>
  </outline>
</glyph>
<glyph name="bracketleft" format="2">
  <advance width="600"/>
  <unicode hex="005B"/>
  <outline>
    <contour>
      <point x="196" y="-311" type="line"/>
      <point x="546" y="-311" type="line"/>
      <point x="546" y="-230" type="line"/>
      <point x="300" y="-230" type="line"/>
      <point x="300" y="1366" type="line"/>
      <point x="546" y="1366" type="line"/>
      <point x="546" y="1450" type="line"/>
      <point x="196" y="1450" type="line"/>
    </contour>
  </outline>
</glyph>
<glyph name="d" format="2">
  <advance width="1128"/>
  <unicode hex="0064"/>
  <anchor x="525" y="-300" name="btm"/>
  <anchor x="1136" y="1003" name="car"/>
  <anchor x="333" y="1050" name="top"/>
  <outline>
    <contour>
      <point x="825" y="121" type="line"/>
      <point x="837" y="0" type="line"/>
      <point x="951" y="0" type="line"/>
      <point x="951" y="1464" type="line"/>
      <point x="814" y="1464" type="line"/>
      <point x="814" y="1072" type="line"/>
      <point x="821" y="898" type="line"/>
      <point x="728" y="971"/>
      <point x="651" y="1015"/>
      <point x="534" y="1015" type="curve" smooth="yes"/>
      <point x="298" y="1015"/>
      <point x="100" y="824"/>
      <point x="100" y="494" type="curve" smooth="yes"/>
      <point x="100" y="154"/>
      <point x="263" y="-25"/>
      <point x="510" y="-25" type="curve" smooth="yes"/>
      <point x="633" y="-25"/>
      <point x="740" y="43"/>
      <point x="819" y="121" type="curve"/>
    </contour>
    <contour>
      <point x="814" y="239" type="line"/>
      <point x="723" y="142"/>
      <point x="636" y="92"/>
      <point x="537" y="92" type="curve" smooth="yes"/>
      <point x="343" y="92"/>
      <point x="241" y="243"/>
      <point x="241" y="495" type="curve" smooth="yes"/>
      <point x="241" y="737"/>
      <point x="373" y="899"/>
      <point x="554" y="899" type="curve" smooth="yes"/>
      <point x="641" y="899"/>
      <point x="722" y="868"/>
      <point x="814" y="785" type="curve"/>
    </contour>
  </outline>
</glyph>
<glyph name="e" format="2">
  <advance width="1005"/>
  <unicode hex="0065"/>
  <anchor x="512" y="-300" name="btm"/>
  <anchor x="547" y="1050" name="top"/>
  <outline>
    <contour>
      <point x="836" y="163" type="line"/>
      <point x="762" y="114"/>
      <point x="682" y="87"/>
      <point x="583" y="87" type="curve" smooth="yes"/>
      <point x="379" y="87"/>
      <point x="244" y="235"/>
      <point x="235" y="468" type="curve"/>
      <point x="922" y="468" type="line"/>
      <point x="926" y="493"/>
      <point x="927" y="522"/>
      <point x="927" y="553" type="curve" smooth="yes"/>
      <point x="927" y="846"/>
      <point x="793" y="1016"/>
      <point x="537" y="1016" type="curve" smooth="yes"/>
      <point x="303" y="1016"/>
      <point x="98" y="823"/>
      <point x="98" y="494" type="curve" smooth="yes"/>
      <point x="98" y="163"/>
      <point x="307" y="-25"/>
      <point x="567" y="-25" type="curve" smooth="yes"/>
      <point x="706" y="-25"/>
      <point x="804" y="19"/>
      <point x="886" y="70" type="curve"/>
    </contour>
    <contour>
      <point x="234" y="562" type="line"/>
      <point x="253" y="779"/>
      <point x="384" y="905"/>
      <point x="541" y="905" type="curve" smooth="yes"/>
      <point x="710" y="905"/>
      <point x="805" y="791"/>
      <point x="805" y="562" type="curve"/>
    </contour>
  </outline>
</glyph>
<glyph name="f" format="2">
  <advance width="574"/>
  <unicode hex="0066"/>
  <anchor x="265" y="-300" name="btm"/>
  <anchor x="175" y="1300" name="top"/>
  <outline>
    <contour>
      <point x="199" y="0" type="line"/>
      <point x="335" y="0" type="line"/>
      <point x="335" y="877" type="line"/>
      <point x="552" y="877" type="line"/>
      <point x="552" y="990" type="line"/>
      <point x="335" y="990" type="line"/>
      <point x="335" y="1173" type="line"/>
      <point x="335" y="1306"/>
      <point x="382" y="1376"/>
      <point x="480" y="1376" type="curve" smooth="yes"/>
      <point x="517" y="1376"/>
      <point x="557" y="1367"/>
      <point x="595" y="1350" type="curve"/>
      <point x="627" y="1456" type="line"/>
      <point x="582" y="1475"/>
      <point x="526" y="1489"/>
      <point x="470" y="1489" type="curve" smooth="yes"/>
      <point x="290" y="1489"/>
      <point x="199" y="1375"/>
      <point x="199" y="1175" type="curve" smooth="yes"/>
      <point x="199" y="990" type="line"/>
      <point x="64" y="981" type="line"/>
      <point x="64" y="877" type="line"/>
      <point x="199" y="877" type="line"/>
    </contour>
  </outline>
</glyph>
<glyph name="g" format="2">
  <advance width="1018"/>
  <unicode hex="0067"/>
  <anchor x="501" y="-300" name="btm"/>
  <anchor x="546" y="1050" name="top"/>
  <outline>
    <contour>
      <point x="456" y="115" type="line"/>
      <point x="316" y="115"/>
      <point x="275" y="165"/>
      <point x="275" y="231" type="curve" smooth="yes"/>
      <point x="275" y="291"/>
      <point x="307" y="319"/>
      <point x="345" y="352" type="curve"/>
      <point x="390" y="328"/>
      <point x="446" y="314"/>
      <point x="501" y="314" type="curve" smooth="yes"/>
      <point x="705" y="314"/>
      <point x="857" y="445"/>
      <point x="857" y="660" type="curve" smooth="yes"/>
      <point x="857" y="771"/>
      <point x="817" y="840"/>
      <point x="763" y="883" type="curve"/>
      <point x="977" y="883" type="line"/>
      <point x="977" y="990" type="line"/>
      <point x="637" y="990" type="line"/>
      <point x="602" y="1004"/>
      <point x="561" y="1015"/>
      <point x="501" y="1015" type="curve" smooth="yes"/>
      <point x="296" y="1015"/>
      <point x="137" y="894"/>
      <point x="137" y="664" type="curve" smooth="yes"/>
      <point x="137" y="540"/>
      <point x="200" y="448"/>
      <point x="264" y="395" type="curve"/>
      <point x="264" y="387" type="line"/>
      <point x="216" y="353"/>
      <point x="157" y="297"/>
      <point x="157" y="212" type="curve" smooth="yes"/>
      <point x="157" y="135"/>
      <point x="194" y="82"/>
      <point x="244" y="52" type="curve"/>
      <point x="244" y="44" type="line"/>
      <point x="153" y="-17"/>
      <point x="98" y="-107"/>
      <point x="98" y="-195" type="curve" smooth="yes"/>
      <point x="98" y="-364"/>
      <point x="235" y="-465"/>
      <point x="505" y="-465" type="curve" smooth="yes"/>
      <point x="813" y="-465"/>
      <point x="994" y="-304"/>
      <point x="994" y="-126" type="curve" smooth="yes"/>
      <point x="994" y="36"/>
      <point x="902" y="115"/>
      <point x="669" y="115" type="curve" smooth="yes"/>
    </contour>
    <contour>
      <point x="648" y="0" type="line"/>
      <point x="791" y="0"/>
      <point x="860" y="-45"/>
      <point x="860" y="-144" type="curve" smooth="yes"/>
      <point x="860" y="-256"/>
      <point x="733" y="-364"/>
      <point x="525" y="-364" type="curve" smooth="yes"/>
      <point x="321" y="-364"/>
      <point x="222" y="-291"/>
      <point x="222" y="-178" type="curve" smooth="yes"/>
      <point x="222" y="-114"/>
      <point x="254" y="-39"/>
      <point x="334" y="16" type="curve"/>
      <point x="380" y="4"/>
      <point x="429" y="0"/>
      <point x="460" y="0" type="curve" smooth="yes"/>
    </contour>
    <contour>
      <point x="501" y="410" type="curve" smooth="yes"/>
      <point x="376" y="410"/>
      <point x="271" y="504"/>
      <point x="271" y="664" type="curve" smooth="yes"/>
      <point x="271" y="831"/>
      <point x="368" y="912"/>
      <point x="501" y="912" type="curve" smooth="yes"/>
      <point x="633" y="912"/>
      <point x="729" y="834"/>
      <point x="729" y="664" type="curve" smooth="yes"/>
      <point x="729" y="502"/>
      <point x="623" y="410"/>
    </contour>
  </outline>
</glyph>
<glyph name="j" format="2">
  <advance width="491"/>
  <unicode hex="006A"/>
  <anchor x="137" y="-300" name="btm"/>
  <anchor x="248" y="1050" name="top"/>
  <outline>
    <contour>
      <point x="315" y="990" type="line"/>
      <point x="177" y="990" type="line"/>
      <point x="177" y="-142" type="line"/>
      <point x="177" y="-264"/>
      <point x="154" y="-341"/>
      <point x="51" y="-341" type="curve" smooth="yes"/>
      <point x="14" y="-341"/>
      <point x="-22" y="-332"/>
      <point x="-46" y="-324" type="curve"/>
      <point x="-76" y="-429" type="line"/>
      <point x="-43" y="-442"/>
      <point x="7" y="-454"/>
      <point x="63" y="-454" type="curve" smooth="yes"/>
      <point x="242" y="-454"/>
      <point x="315" y="-343"/>
      <point x="315" y="-145" type="curve" smooth="yes"/>
    </contour>
    <contour>
      <point x="248" y="1209" type="curve" smooth="yes"/>
      <point x="303" y="1209"/>
      <point x="350" y="1248"/>
      <point x="350" y="1305" type="curve" smooth="yes"/>
      <point x="350" y="1365"/>
      <point x="303" y="1403"/>
      <point x="248" y="1403" type="curve" smooth="yes"/>
      <point x="191" y="1403"/>
      <point x="145" y="1365"/>
      <point x="145" y="1305" type="curve" smooth="yes"/>
      <point x="145" y="1248"/>
      <point x="191" y="1209"/>
    </contour>
  </outline>
</glyph>
<glyph name="m" format="2">
  <advance width="1684"/>
  <unicode hex="006D"/>
  <anchor x="848" y="-300" name="btm"/>
  <anchor x="848" y="1050" name="top"/>
  <outline>
    <contour>
      <point x="176" y="0" type="line"/>
      <point x="313" y="0" type="line"/>
      <point x="313" y="729" type="line"/>
      <point x="411" y="840"/>
      <point x="501" y="895"/>
      <point x="581" y="895" type="curve" smooth="yes"/>
      <point x="724" y="895"/>
      <point x="781" y="811"/>
      <point x="781" y="615" type="curve" smooth="yes"/>
      <point x="781" y="0" type="line"/>
      <point x="917" y="0" type="line"/>
      <point x="917" y="732" type="line"/>
      <point x="1016" y="843"/>
      <point x="1102" y="895"/>
      <point x="1186" y="895" type="curve" smooth="yes"/>
      <point x="1327" y="895"/>
      <point x="1384" y="811"/>
      <point x="1384" y="615" type="curve" smooth="yes"/>
      <point x="1384" y="0" type="line"/>
      <point x="1521" y="0" type="line"/>
      <point x="1521" y="634" type="line"/>
      <point x="1521" y="888"/>
      <point x="1429" y="1015"/>
      <point x="1221" y="1015" type="curve" smooth="yes"/>
      <point x="1104" y="1015"/>
      <point x="999" y="940"/>
      <point x="891" y="823" type="curve"/>
      <point x="852" y="943"/>
      <point x="777" y="1015"/>
      <point x="618" y="1015" type="curve" smooth="yes"/>
      <point x="503" y="1015"/>
      <point x="396" y="940"/>
      <point x="309" y="843" type="curve"/>
      <point x="302" y="843" type="line"/>
      <point x="290" y="990" type="line"/>
      <point x="176" y="990" type="line"/>
    </contour>
  </outline>
</glyph>
<glyph name="n" format="2">
  <advance width="1108"/>
  <unicode hex="006E"/>
  <anchor x="560" y="-300" name="btm"/>
  <anchor x="597" y="1050" name="top"/>
  <outline>
    <contour>
      <point x="176" y="0" type="line"/>
      <point x="313" y="0" type="line"/>
      <point x="313" y="729" type="line"/>
      <point x="421" y="839"/>
      <point x="497" y="895"/>
      <point x="605" y="895" type="curve" smooth="yes"/>
      <point x="754" y="895"/>
      <point x="808" y="811"/>
      <point x="808" y="615" type="curve" smooth="yes"/>
      <point x="808" y="0" type="line"/>
      <point x="944" y="0" type="line"/>
      <point x="944" y="634" type="line"/>
      <point x="944" y="888"/>
      <point x="856" y="1015"/>
      <point x="644" y="1015" type="curve" smooth="yes"/>
      <point x="507" y="1015"/>
      <point x="405" y="940"/>
      <point x="309" y="843" type="curve"/>
      <point x="302" y="843" type="line"/>
      <point x="290" y="990" type="line"/>
      <point x="176" y="990" type="line"/>
    </contour>
  </outline>
</glyph>
<glyph name="p" format="2">
  <advance width="1128"/>
  <unicode hex="0070"/>
  <anchor x="601" y="-300" name="btm"/>
  <anchor x="601" y="1050" name="top"/>
  <outline>
    <contour>
      <point x="176" y="-430" type="line"/>
      <point x="313" y="-430" type="line"/>
      <point x="313" y="-85" type="line"/>
      <point x="310" y="92" type="line"/>
      <point x="406" y="19"/>
      <point x="499" y="-25"/>
      <point x="593" y="-25" type="curve" smooth="yes"/>
      <point x="826" y="-25"/>
      <point x="1026" y="167"/>
      <point x="1026" y="508" type="curve" smooth="yes"/>
      <point x="1026" y="820"/>
      <point x="895" y="1015"/>
      <point x="632" y="1015" type="curve" smooth="yes"/>
      <point x="512" y="1015"/>
      <point x="401" y="948"/>
      <point x="309" y="872" type="curve"/>
      <point x="302" y="872" type="line"/>
      <point x="290" y="990" type="line"/>
      <point x="176" y="990" type="line"/>
    </contour>
    <contour>
      <point x="313" y="752" type="line"/>
      <point x="419" y="847"/>
      <point x="509" y="899"/>
      <point x="600" y="899" type="curve" smooth="yes"/>
      <point x="807" y="899"/>
      <point x="883" y="741"/>
      <point x="883" y="508" type="curve" smooth="yes"/>
      <point x="883" y="251"/>
      <point x="754" y="92"/>
      <point x="574" y="92" type="curve" smooth="yes"/>
      <point x="503" y="92"/>
      <point x="412" y="122"/>
      <point x="313" y="205" type="curve"/>
    </contour>
  </outline>
</glyph>
<glyph name="q" format="2">
  <advance width="1115"/>
  <unicode hex="0071"/>
  <anchor x="525" y="-300" name="btm"/>
  <anchor x="525" y="1050" name="top"/>
  <outline>
    <contour>
      <point x="814" y="-430" type="line"/>
      <point x="951" y="-430" type="line"/>
      <point x="951" y="990" type="line"/>
      <point x="841" y="990" type="line"/>
      <point x="826" y="898" type="line"/>
      <point x="822" y="898" type="line"/>
      <point x="731" y="973"/>
      <point x="654" y="1015"/>
      <point x="535" y="1015" type="curve" smooth="yes"/>
      <point x="301" y="1015"/>
      <point x="100" y="819"/>
      <point x="100" y="492" type="curve" smooth="yes"/>
      <point x="100" y="154"/>
      <point x="257" y="-25"/>
      <point x="511" y="-25" type="curve" smooth="yes"/>
      <point x="635" y="-25"/>
      <point x="737" y="40"/>
      <point x="821" y="117" type="curve"/>
      <point x="814" y="-66" type="line"/>
    </contour>
    <contour>
      <point x="814" y="239" type="line"/>
      <point x="723" y="142"/>
      <point x="640" y="92"/>
      <point x="539" y="92" type="curve" smooth="yes"/>
      <point x="346" y="92"/>
      <point x="243" y="241"/>
      <point x="243" y="493" type="curve" smooth="yes"/>
      <point x="243" y="733"/>
      <point x="377" y="899"/>
      <point x="555" y="899" type="curve" smooth="yes"/>
      <point x="645" y="899"/>
      <point x="722" y="868"/>
      <point x="814" y="785" type="curve"/>
    </contour>
  </outline>
</glyph>
<glyph name="r" format="2">
  <advance width="686"/>
  <unicode hex="0072"/>
  <anchor x="280" y="-300" name="btm"/>
  <anchor x="434" y="1050" name="top"/>
  <outline>
    <contour>
      <point x="176" y="0" type="line"/>
      <point x="313" y="0" type="line"/>
      <point x="313" y="652" type="line"/>
      <point x="383" y="826"/>
      <point x="486" y="890"/>
      <point x="571" y="890" type="curve" smooth="yes"/>
      <point x="611" y="890"/>
      <point x="632" y="885"/>
      <point x="665" y="874" type="curve"/>
      <point x="692" y="994" type="line"/>
      <point x="660" y="1010"/>
      <point x="630" y="1015"/>
      <point x="589" y="1015" type="curve" smooth="yes"/>
      <point x="475" y="1015"/>
      <point x="375" y="933"/>
      <point x="309" y="809" type="curve"/>
      <point x="302" y="809" type="line"/>
      <point x="290" y="990" type="line"/>
      <point x="176" y="990" type="line"/>
    </contour>
  </outline>
</glyph>
<glyph name="s" format="2">
  <advance width="846"/>
  <unicode hex="0073"/>
  <anchor x="421" y="-300" name="btm"/>
  <anchor x="421" y="1050" name="top"/>
  <outline>
    <contour>
      <point x="739" y="909" type="line"/>
      <point x="664" y="970"/>
      <point x="557" y="1015"/>
      <point x="441" y="1015" type="curve" smooth="yes"/>
      <point x="230" y="1015"/>
      <point x="109" y="895"/>
      <point x="109" y="742" type="curve" smooth="yes"/>
      <point x="109" y="574"/>
      <point x="268" y="507"/>
      <point x="412" y="455" type="curve" smooth="yes"/>
      <point x="523" y="414"/>
      <point x="645" y="365"/>
      <point x="645" y="254" type="curve" smooth="yes"/>
      <point x="645" y="160"/>
      <point x="574" y="84"/>
      <point x="433" y="84" type="curve" smooth="yes"/>
      <point x="305" y="84"/>
      <point x="220" y="137"/>
      <point x="135" y="206" type="curve"/>
      <point x="64" y="112" type="line"/>
      <point x="156" y="36"/>
      <point x="285" y="-25"/>
      <point x="427" y="-25" type="curve" smooth="yes"/>
      <point x="654" y="-25"/>
      <point x="779" y="106"/>
      <point x="779" y="261" type="curve" smooth="yes"/>
      <point x="779" y="452"/>
      <point x="615" y="510"/>
      <point x="467" y="565" type="curve" smooth="yes"/>
      <point x="353" y="608"/>
      <point x="242" y="654"/>
      <point x="242" y="753" type="curve" smooth="yes"/>
      <point x="242" y="835"/>
      <point x="305" y="906"/>
      <point x="441" y="906" type="curve" smooth="yes"/>
      <point x="534" y="906"/>
      <point x="604" y="870"/>
      <point x="671" y="820" type="curve"/>
    </contour>
  </outline>
</glyph>
<glyph name="u" format="2">
  <advance width="1101"/>
  <unicode hex="0075"/>
  <anchor x="543" y="-300" name="btm"/>
  <anchor x="543" y="1050" name="top"/>
  <outline>
    <contour>
      <point x="800" y="159" type="line"/>
      <point x="812" y="0" type="line"/>
      <point x="925" y="0" type="line"/>
      <point x="925" y="990" type="line"/>
      <point x="789" y="990" type="line"/>
      <point x="789" y="276" type="line"/>
      <point x="686" y="150"/>
      <point x="615" y="95"/>
      <point x="501" y="95" type="curve" smooth="yes"/>
      <point x="353" y="95"/>
      <point x="299" y="180"/>
      <point x="299" y="376" type="curve" smooth="yes"/>
      <point x="299" y="990" type="line"/>
      <point x="162" y="990" type="line"/>
      <point x="162" y="357" type="line"/>
      <point x="162" y="103"/>
      <point x="250" y="-25"/>
      <point x="464" y="-25" type="curve" smooth="yes"/>
      <point x="606" y="-25"/>
      <point x="700" y="49"/>
      <point x="794" y="159" type="curve"/>
    </contour>
  </outline>
</glyph>
<glyph name="cent" format="2">
  <advance width="1003"/>
  <unicode hex="00A2"/>
  <outline>
    <contour>
      <point x="531" y="-63" type="line"/>
      <point x="622" y="-63" type="line"/>
      <point x="622" y="152" type="line"/>
      <point x="734" y="159"/>
      <point x="834" y="209"/>
      <point x="914" y="281" type="curve"/>
      <point x="851" y="369" type="line"/>
      <point x="792" y="316"/>
      <point x="714" y="272"/>
      <point x="622" y="267" type="curve"/>
      <point x="622" y="1005" type="line"/>
      <point x="702" y="1001"/>
      <point x="767" y="965"/>
      <point x="825" y="914" type="curve"/>
      <point x="893" y="1000" type="line"/>
      <point x="830" y="1060"/>
      <point x="745" y="1115"/>
      <point x="622" y="1120" type="curve"/>
      <point x="622" y="1336" type="line"/>
      <point x="531" y="1336" type="line"/>
      <point x="531" y="1115" type="line"/>
      <point x="304" y="1086"/>
      <point x="126" y="919"/>
      <point x="126" y="636" type="curve" smooth="yes"/>
      <point x="126" y="350"/>
      <point x="292" y="180"/>
      <point x="531" y="154" type="curve"/>
    </contour>
    <contour>
      <point x="531" y="273" type="line"/>
      <point x="364" y="305"/>
      <point x="263" y="441"/>
      <point x="263" y="636" type="curve" smooth="yes"/>
      <point x="263" y="830"/>
      <point x="370" y="965"/>
      <point x="531" y="998" type="curve"/>
    </contour>
  </outline>
</glyph>
<glyph name="yen" format="2">
  <advance width="1003"/>
  <unicode hex="00A5"/>
  <outline>
    <contour>
      <point x="431" y="0" type="line"/>
      <point x="569" y="0" type="line"/>
      <point x="569" y="330" type="line"/>
      <point x="907" y="330" type="line"/>
      <point x="907" y="416" type="line"/>
      <point x="569" y="416" type="line"/>
      <point x="569" y="554" type="line"/>
      <point x="907" y="554" type="line"/>
      <point x="907" y="639" type="line"/>
      <point x="605" y="639" type="line"/>
      <point x="950" y="1308" type="line"/>
      <point x="810" y="1308" type="line"/>
      <point x="637" y="938" type="line"/>
      <point x="593" y="848"/>
      <point x="554" y="758"/>
      <point x="507" y="661" type="curve"/>
      <point x="498" y="661" type="line"/>
      <point x="453" y="758"/>
      <point x="412" y="848"/>
      <point x="370" y="938" type="curve" smooth="yes"/>
      <point x="197" y="1308" type="line"/>
      <point x="53" y="1308" type="line"/>
      <point x="395" y="639" type="line"/>
      <point x="96" y="639" type="line"/>
      <point x="96" y="554" type="line"/>
      <point x="431" y="554" type="line"/>
      <point x="431" y="416" type="line"/>
      <point x="96" y="416" type="line"/>
      <point x="96" y="330" type="line"/>
      <point x="431" y="330" type="line"/>
    </contour>
  </outline>
</glyph>
<glyph name="dieresis" format="2">
  <advance width="1104"/>
  <unicode hex="00A8"/>
  <anchor x="552" y="1050" name="_top"/>
  <outline>
    <contour>
      <point x="382" y="1213" type="curve" smooth="yes"/>
      <point x="433" y="1213"/>
      <point x="472" y="1251"/>
      <point x="472" y="1303" type="curve" smooth="yes"/>
      <point x="472" y="1353"/>
      <point x="433" y="1392"/>
      <point x="382" y="1392" type="curve" smooth="yes"/>
      <point x="331" y="1392"/>
      <point x="292" y="1353"/>
      <point x="292" y="1303" type="curve" smooth="yes"/>
      <point x="292" y="1251"/>
      <point x="331" y="1213"/>
    </contour>
    <contour>
      <point x="722" y="1213" type="curve" smooth="yes"/>
      <point x="775" y="1213"/>
      <point x="812" y="1251"/>
      <point x="812" y="1303" type="curve" smooth="yes"/>
      <point x="812" y="1353"/>
      <point x="775" y="1392"/>
      <point x="722" y="1392" type="curve" smooth="yes"/>
      <point x="671" y="1392"/>
      <point x="634" y="1353"/>
      <point x="634" y="1303" type="curve" smooth="yes"/>
      <point x="634" y="1251"/>
      <point x="671" y="1213"/>
    </contour>
  </outline>
</glyph>
<glyph name="copyright" format="2">
  <advance width="1522"/>
  <unicode hex="00A9"/>
  <outline>
    <contour>
      <point x="764" y="-36" type="curve" smooth="yes"/>
      <point x="1125" y="-36"/>
      <point x="1434" y="238"/>
      <point x="1434" y="662" type="curve" smooth="yes"/>
      <point x="1434" y="1085"/>
      <point x="1125" y="1352"/>
      <point x="764" y="1352" type="curve" smooth="yes"/>
      <point x="402" y="1352"/>
      <point x="93" y="1085"/>
      <point x="93" y="662" type="curve" smooth="yes"/>
      <point x="93" y="238"/>
      <point x="402" y="-36"/>
    </contour>
    <contour>
      <point x="1000" y="448" type="line"/>
      <point x="939" y="394"/>
      <point x="871" y="353"/>
      <point x="780" y="353" type="curve" smooth="yes"/>
      <point x="625" y="353"/>
      <point x="524" y="471"/>
      <point x="524" y="661" type="curve" smooth="yes"/>
      <point x="524" y="830"/>
      <point x="631" y="949"/>
      <point x="786" y="949" type="curve" smooth="yes"/>
      <point x="861" y="949"/>
      <point x="914" y="918"/>
      <point x="973" y="862" type="curve"/>
      <point x="1034" y="931" type="line"/>
      <point x="969" y="996"/>
      <point x="895" y="1046"/>
      <point x="782" y="1046" type="curve" smooth="yes"/>
      <point x="586" y="1046"/>
      <point x="408" y="898"/>
      <point x="408" y="661" type="curve" smooth="yes"/>
      <point x="408" y="406"/>
      <point x="573" y="255"/>
      <point x="775" y="255" type="curve" smooth="yes"/>
      <point x="901" y="255"/>
      <point x="978" y="308"/>
      <point x="1053" y="374" type="curve"/>
    </contour>
    <contour>
      <point x="764" y="43" type="curve" smooth="yes"/>
      <point x="447" y="43"/>
      <point x="181" y="291"/>
      <point x="181" y="662" type="curve" smooth="yes"/>
      <point x="181" y="1030"/>
      <point x="447" y="1275"/>
      <point x="764" y="1275" type="curve" smooth="yes"/>
      <point x="1080" y="1275"/>
      <point x="1346" y="1030"/>
      <point x="1346" y="662" type="curve" smooth="yes"/>
      <point x="1346" y="291"/>
      <point x="1080" y="43"/>
    </contour>
  </outline>
</glyph>
<glyph name="softhyphen" format="2">
  <advance width="627"/>
  <unicode hex="00AD"/>
  <outline>
    <contour>
      <point x="83" y="458" type="line"/>
      <point x="546" y="458" type="line"/>
      <point x="546" y="567" type="line"/>
      <point x="83" y="567" type="line"/>
    </contour>
  </outline>
</glyph>
<glyph name="plusminus" format="2">
  <advance width="1003"/>
  <unicode hex="00B1"/>
  <outline>
    <contour>
      <point x="445" y="245" type="line"/>
      <point x="557" y="245" type="line"/>
      <point x="557" y="628" type="line"/>
      <point x="933" y="628" type="line"/>
      <point x="933" y="734" type="line"/>
      <point x="557" y="734" type="line"/>
      <point x="557" y="1134" type="line"/>
      <point x="445" y="1134" type="line"/>
      <point x="445" y="734" type="line"/>
      <point x="70" y="734" type="line"/>
      <point x="70" y="628" type="line"/>
      <point x="445" y="628" type="line"/>
    </contour>
    <contour>
      <point x="70" y="0" type="line"/>
      <point x="933" y="0" type="line"/>
      <point x="933" y="106" type="line"/>
      <point x="70" y="106" type="line"/>
    </contour>
  </outline>
</glyph>
<glyph name="two.sups" format="2">
  <advance width="747"/>
  <unicode hex="00B2"/>
  <outline>
    <contour>
      <point x="110" y="901" type="line"/>
      <point x="648" y="901" type="line"/>
      <point x="648" y="996" type="line"/>
      <point x="287" y="996" type="line"/>
      <point x="471" y="1182"/>
      <point x="604" y="1310"/>
      <point x="604" y="1469" type="curve" smooth="yes"/>
      <point x="604" y="1636"/>
      <point x="500" y="1724"/>
      <point x="346" y="1724" type="curve" smooth="yes"/>
      <point x="241" y="1724"/>
      <point x="144" y="1659"/>
      <point x="88" y="1571" type="curve"/>
      <point x="155" y="1510" type="line"/>
      <point x="200" y="1577"/>
      <point x="262" y="1631"/>
      <point x="333" y="1631" type="curve" smooth="yes"/>
      <point x="432" y="1631"/>
      <point x="495" y="1563"/>
      <point x="495" y="1453" type="curve" smooth="yes"/>
      <point x="495" y="1327"/>
      <point x="368" y="1202"/>
      <point x="110" y="967" type="curve"/>
    </contour>
  </outline>
</glyph>
<glyph name="three.sups" format="2">
  <advance width="747"/>
  <unicode hex="00B3"/>
  <outline>
    <contour>
      <point x="177" y="1535" type="line"/>
      <point x="224" y="1593"/>
      <point x="286" y="1635"/>
      <point x="347" y="1635" type="curve" smooth="yes"/>
      <point x="442" y="1635"/>
      <point x="503" y="1580"/>
      <point x="503" y="1499" type="curve" smooth="yes"/>
      <point x="503" y="1413"/>
      <point x="419" y="1344"/>
      <point x="272" y="1344" type="curve"/>
      <point x="272" y="1271" type="line"/>
      <point x="435" y="1271"/>
      <point x="534" y="1218"/>
      <point x="534" y="1120" type="curve" smooth="yes"/>
      <point x="534" y="1021"/>
      <point x="456" y="966"/>
      <point x="363" y="966" type="curve" smooth="yes"/>
      <point x="276" y="966"/>
      <point x="201" y="1014"/>
      <point x="152" y="1090" type="curve"/>
      <point x="76" y="1031" type="line"/>
      <point x="135" y="944"/>
      <point x="239" y="877"/>
      <point x="366" y="877" type="curve" smooth="yes"/>
      <point x="519" y="877"/>
      <point x="644" y="967"/>
      <point x="644" y="1114" type="curve" smooth="yes"/>
      <point x="644" y="1224"/>
      <point x="559" y="1291"/>
      <point x="466" y="1312" type="curve"/>
      <point x="550" y="1350"/>
      <point x="612" y="1414"/>
      <point x="612" y="1511" type="curve" smooth="yes"/>
      <point x="612" y="1646"/>
      <point x="498" y="1724"/>
      <point x="362" y="1724" type="curve" smooth="yes"/>
      <point x="255" y="1724"/>
      <point x="173" y="1671"/>
      <point x="109" y="1594" type="curve"/>
    </contour>
  </outline>
</glyph>
<glyph name="acute" format="2">
  <advance width="1104"/>
  <unicode hex="00B4"/>
  <anchor x="496" y="1050" name="_top"/>
  <outline>
    <contour>
      <point x="427" y="1173" type="line"/>
      <point x="534" y="1173" type="line"/>
      <point x="760" y="1457" type="line"/>
      <point x="612" y="1457" type="line"/>
    </contour>
  </outline>
</glyph>
<glyph name="paragraph" format="2">
  <advance width="1109"/>
  <unicode hex="00B6"/>
  <outline>
    <contour>
      <point x="645" y="478" type="line"/>
      <point x="645" y="1346" type="line"/>
      <point x="572" y="1346" type="line"/>
      <point x="290" y="1346"/>
      <point x="85" y="1230"/>
      <point x="85" y="914" type="curve" smooth="yes"/>
      <point x="85" y="606"/>
      <point x="300" y="478"/>
      <point x="598" y="478" type="curve"/>
    </contour>
    <contour>
      <point x="772" y="-164" type="line"/>
      <point x="912" y="-164" type="line"/>
      <point x="912" y="1346" type="line"/>
      <point x="772" y="1346" type="line"/>
    </contour>
  </outline>
</glyph>
<glyph name="cedilla" format="2">
  <advance width="1104"/>
  <unicode hex="00B8"/>
  <outline>
    <contour>
      <point x="419" y="-432" type="line"/>
      <point x="563" y="-417"/>
      <point x="698" y="-363"/>
      <point x="698" y="-250" type="curve" smooth="yes"/>
      <point x="698" y="-166"/>
      <point x="643" y="-128"/>
      <point x="576" y="-106" type="curve"/>
      <point x="632" y="5" type="line"/>
      <point x="537" y="5" type="line"/>
      <point x="455" y="-153" type="line"/>
      <point x="537" y="-173"/>
      <point x="589" y="-200"/>
      <point x="589" y="-256" type="curve" smooth="yes"/>
      <point x="589" y="-312"/>
      <point x="512" y="-342"/>
      <point x="403" y="-357" type="curve"/>
    </contour>
  </outline>
</glyph>
<glyph name="one.sups" format="2">
  <advance width="747"/>
  <unicode hex="00B9"/>
  <outline>
    <contour>
      <point x="355" y="901" type="line"/>
      <point x="465" y="901" type="line"/>
      <point x="465" y="1700" type="line"/>
      <point x="375" y="1700" type="line"/>
      <point x="323" y="1660"/>
      <point x="269" y="1635"/>
      <point x="184" y="1619" type="curve"/>
      <point x="184" y="1546" type="line"/>
      <point x="355" y="1546" type="line"/>
    </contour>
  </outline>
</glyph>
<glyph name="ordmasculine" format="2">
  <advance width="743"/>
  <unicode hex="00BA"/>
  <outline>
    <contour>
      <point x="371" y="516" type="curve" smooth="yes"/>
      <point x="537" y="516"/>
      <point x="677" y="644"/>
      <point x="677" y="860" type="curve" smooth="yes"/>
      <point x="677" y="1079"/>
      <point x="537" y="1205"/>
      <point x="371" y="1205" type="curve" smooth="yes"/>
      <point x="202" y="1205"/>
      <point x="64" y="1079"/>
      <point x="64" y="860" type="curve" smooth="yes"/>
      <point x="64" y="644"/>
      <point x="202" y="516"/>
    </contour>
    <contour>
      <point x="371" y="606" type="curve" smooth="yes"/>
      <point x="250" y="606"/>
      <point x="172" y="710"/>
      <point x="172" y="860" type="curve" smooth="yes"/>
      <point x="172" y="1014"/>
      <point x="250" y="1116"/>
      <point x="371" y="1116" type="curve" smooth="yes"/>
      <point x="490" y="1116"/>
      <point x="567" y="1014"/>
      <point x="567" y="860" type="curve" smooth="yes"/>
      <point x="567" y="710"/>
      <point x="490" y="606"/>
    </contour>
  </outline>
</glyph>
<glyph name="multiply" format="2">
  <advance width="1003"/>
  <unicode hex="00D7"/>
  <outline>
    <contour>
      <point x="179" y="265" type="line"/>
      <point x="501" y="600" type="line"/>
      <point x="823" y="265" type="line"/>
      <point x="898" y="343" type="line"/>
      <point x="576" y="676" type="line"/>
      <point x="898" y="1007" type="line"/>
      <point x="823" y="1085" type="line"/>
      <point x="501" y="751" type="line"/>
      <point x="179" y="1085" type="line"/>
      <point x="103" y="1007" type="line"/>
      <point x="427" y="676" type="line"/>
      <point x="103" y="343" type="line"/>
    </contour>
  </outline>
</glyph>
<glyph name="Oslash" format="2">
  <advance width="1338"/>
  <unicode hex="00D8"/>
  <anchor x="669" y="0" name="bottom"/>
  <anchor x="669" y="1346" name="top"/>
  <outline>
    <contour>
      <point x="182" y="-55" type="line"/>
      <point x="310" y="113" type="line"/>
      <point x="406" y="24"/>
      <point x="529" y="-25"/>
      <point x="670" y="-25" type="curve" smooth="yes"/>
      <point x="1001" y="-25"/>
      <point x="1236" y="248"/>
      <point x="1236" y="679" type="curve" smooth="yes"/>
      <point x="1236" y="875"/>
      <point x="1186" y="1037"/>
      <point x="1100" y="1155" type="curve"/>
      <point x="1242" y="1341" type="line"/>
      <point x="1161" y="1402" type="line"/>
      <point x="1033" y="1232" type="line"/>
      <point x="937" y="1321"/>
      <point x="812" y="1370"/>
      <point x="670" y="1370" type="curve" smooth="yes"/>
      <point x="337" y="1370"/>
      <point x="102" y="1107"/>
      <point x="102" y="679" type="curve" smooth="yes"/>
      <point x="102" y="478"/>
      <point x="153" y="312"/>
      <point x="241" y="192" type="curve"/>
      <point x="100" y="6" type="line"/>
    </contour>
    <contour>
      <point x="1011" y="1038" type="line"/>
      <point x="1063" y="945"/>
      <point x="1091" y="823"/>
      <point x="1091" y="679" type="curve" smooth="yes"/>
      <point x="1091" y="327"/>
      <point x="923" y="99"/>
      <point x="670" y="99" type="curve" smooth="yes"/>
      <point x="558" y="99"/>
      <point x="462" y="143"/>
      <point x="392" y="221" type="curve"/>
    </contour>
    <contour>
      <point x="330" y="308" type="line"/>
      <point x="276" y="404"/>
      <point x="246" y="531"/>
      <point x="246" y="679" type="curve" smooth="yes"/>
      <point x="246" y="1029"/>
      <point x="415" y="1247"/>
      <point x="670" y="1247" type="curve" smooth="yes"/>
      <point x="782" y="1247"/>
      <point x="879" y="1204"/>
      <point x="951" y="1124" type="curve"/>
    </contour>
  </outline>
</glyph>
<glyph name="Thorn" format="2">
  <advance width="1176"/>
  <unicode hex="00DE"/>
  <anchor x="628" y="-300" name="btm"/>
  <anchor x="628" y="1590" name="top"/>
  <outline>
    <contour>
      <point x="187" y="0" type="line"/>
      <point x="325" y="0" type="line"/>
      <point x="325" y="321" type="line"/>
      <point x="580" y="321" type="line"/>
      <point x="878" y="321"/>
      <point x="1070" y="451"/>
      <point x="1070" y="727" type="curve" smooth="yes"/>
      <point x="1070" y="1014"/>
      <point x="879" y="1115"/>
      <point x="580" y="1115" type="curve" smooth="yes"/>
      <point x="325" y="1115" type="line"/>
      <point x="325" y="1346" type="line"/>
      <point x="187" y="1346" type="line"/>
    </contour>
    <contour>
      <point x="325" y="435" type="line"/>
      <point x="325" y="1000" type="line"/>
      <point x="558" y="1000" type="line"/>
      <point x="808" y="1000"/>
      <point x="930" y="933"/>
      <point x="930" y="727" type="curve" smooth="yes"/>
      <point x="930" y="523"/>
      <point x="809" y="435"/>
      <point x="558" y="435" type="curve" smooth="yes"/>
    </contour>
  </outline>
</glyph>
<glyph name="germandbls" format="2">
  <advance width="1151"/>
  <unicode hex="00DF"/>
  <anchor x="634" y="-300" name="btm"/>
  <anchor x="634" y="1050" name="top"/>
  <outline>
    <contour>
      <point x="176" y="0" type="line"/>
      <point x="313" y="0" type="line"/>
      <point x="313" y="1038" type="line"/>
      <point x="313" y="1263"/>
      <point x="405" y="1371"/>
      <point x="555" y="1371" type="curve" smooth="yes"/>
      <point x="674" y="1371"/>
      <point x="735" y="1292"/>
      <point x="735" y="1182" type="curve" smooth="yes"/>
      <point x="735" y="1005"/>
      <point x="546" y="944"/>
      <point x="546" y="753" type="curve" smooth="yes"/>
      <point x="546" y="464"/>
      <point x="960" y="522"/>
      <point x="960" y="264" type="curve" smooth="yes"/>
      <point x="960" y="171"/>
      <point x="896" y="84"/>
      <point x="773" y="84" type="curve" smooth="yes"/>
      <point x="692" y="84"/>
      <point x="624" y="114"/>
      <point x="549" y="175" type="curve"/>
      <point x="491" y="78" type="line"/>
      <point x="573" y="15"/>
      <point x="666" y="-25"/>
      <point x="776" y="-25" type="curve" smooth="yes"/>
      <point x="967" y="-25"/>
      <point x="1092" y="104"/>
      <point x="1092" y="272" type="curve" smooth="yes"/>
      <point x="1092" y="609"/>
      <point x="678" y="555"/>
      <point x="678" y="768" type="curve" smooth="yes"/>
      <point x="678" y="919"/>
      <point x="870" y="989"/>
      <point x="870" y="1196" type="curve" smooth="yes"/>
      <point x="870" y="1354"/>
      <point x="757" y="1485"/>
      <point x="557" y="1485" type="curve" smooth="yes"/>
      <point x="318" y="1485"/>
      <point x="176" y="1323"/>
      <point x="176" y="1069" type="curve" smooth="yes"/>
    </contour>
  </outline>
</glyph>
<glyph name="divide" format="2">
  <advance width="1003"/>
  <unicode hex="00F7"/>
  <outline>
    <contour>
      <point x="70" y="622" type="line"/>
      <point x="933" y="622" type="line"/>
      <point x="933" y="729" type="line"/>
      <point x="70" y="729" type="line"/>
    </contour>
    <contour>
      <point x="501" y="208" type="curve" smooth="yes"/>
      <point x="556" y="208"/>
      <point x="599" y="248"/>
      <point x="599" y="307" type="curve" smooth="yes"/>
      <point x="599" y="364"/>
      <point x="556" y="404"/>
      <point x="501" y="404" type="curve" smooth="yes"/>
      <point x="446" y="404"/>
      <point x="403" y="364"/>
      <point x="403" y="307" type="curve" smooth="yes"/>
      <point x="403" y="248"/>
      <point x="446" y="208"/>
    </contour>
    <contour>
      <point x="501" y="945" type="curve" smooth="yes"/>
      <point x="556" y="945"/>
      <point x="599" y="985"/>
      <point x="599" y="1044" type="curve" smooth="yes"/>
      <point x="599" y="1101"/>
      <point x="556" y="1141"/>
      <point x="501" y="1141" type="curve" smooth="yes"/>
      <point x="446" y="1141"/>
      <point x="403" y="1101"/>
      <point x="403" y="1044" type="curve" smooth="yes"/>
      <point x="403" y="985"/>
      <point x="446" y="945"/>
    </contour>
  </outline>
</glyph>
<glyph name="oslash" format="2">
  <advance width="1104"/>
  <unicode hex="00F8"/>
  <anchor x="552" y="990" name="top"/>
  <outline>
    <contour>
      <point x="161" y="-46" type="line"/>
      <point x="265" y="82" type="line"/>
      <point x="345" y="12"/>
      <point x="446" y="-25"/>
      <point x="552" y="-25" type="curve" smooth="yes"/>
      <point x="793" y="-25"/>
      <point x="1005" y="165"/>
      <point x="1005" y="493" type="curve" smooth="yes"/>
      <point x="1005" y="640"/>
      <point x="963" y="759"/>
      <point x="896" y="847" type="curve"/>
      <point x="1010" y="983" type="line"/>
      <point x="944" y="1035" type="line"/>
      <point x="839" y="908" type="line"/>
      <point x="759" y="978"/>
      <point x="657" y="1015"/>
      <point x="552" y="1015" type="curve" smooth="yes"/>
      <point x="311" y="1015"/>
      <point x="99" y="825"/>
      <point x="99" y="493" type="curve" smooth="yes"/>
      <point x="99" y="348"/>
      <point x="141" y="231"/>
      <point x="208" y="143" type="curve"/>
      <point x="94" y="6" type="line"/>
    </contour>
    <contour>
      <point x="810" y="742" type="line"/>
      <point x="849" y="674"/>
      <point x="869" y="589"/>
      <point x="869" y="488" type="curve" smooth="yes"/>
      <point x="869" y="250"/>
      <point x="734" y="87"/>
      <point x="552" y="87" type="curve" smooth="yes"/>
      <point x="471" y="87"/>
      <point x="399" y="119"/>
      <point x="344" y="176" type="curve"/>
    </contour>
    <contour>
      <point x="293" y="247" type="line"/>
      <point x="255" y="314"/>
      <point x="235" y="399"/>
      <point x="235" y="499" type="curve" smooth="yes"/>
      <point x="235" y="738"/>
      <point x="370" y="903"/>
      <point x="552" y="903" type="curve" smooth="yes"/>
      <point x="634" y="903"/>
      <point x="706" y="871"/>
      <point x="760" y="812" type="curve"/>
    </contour>
  </outline>
</glyph>
<glyph name="aogonek" format="2">
  <advance width="1038"/>
  <unicode hex="0105"/>
  <outline>
    <contour>
      <point x="887" y="-296" type="line"/>
      <point x="862" y="-314"/>
      <point x="837" y="-323"/>
      <point x="803" y="-323" type="curve" smooth="yes"/>
      <point x="753" y="-323"/>
      <point x="705" y="-291"/>
      <point x="705" y="-224" type="curve" smooth="yes"/>
      <point x="705" y="-141"/>
      <point x="774" y="-47"/>
      <point x="882" y="0" type="curve"/>
      <point x="882" y="618" type="line"/>
      <point x="882" y="851"/>
      <point x="790" y="1015"/>
      <point x="551" y="1015" type="curve" smooth="yes"/>
      <point x="391" y="1015"/>
      <point x="253" y="942"/>
      <point x="170" y="887" type="curve"/>
      <point x="227" y="790" type="line"/>
      <point x="300" y="841"/>
      <point x="407" y="900"/>
      <point x="531" y="900" type="curve" smooth="yes"/>
      <point x="705" y="900"/>
      <point x="748" y="761"/>
      <point x="746" y="625" type="curve"/>
      <point x="317" y="577"/>
      <point x="125" y="470"/>
      <point x="125" y="252" type="curve" smooth="yes"/>
      <point x="125" y="71"/>
      <point x="252" y="-25"/>
      <point x="415" y="-25" type="curve" smooth="yes"/>
      <point x="541" y="-25"/>
      <point x="654" y="43"/>
      <point x="752" y="122" type="curve"/>
      <point x="756" y="122" type="line"/>
      <point x="770" y="10" type="line"/>
      <point x="684" y="-44"/>
      <point x="600" y="-140"/>
      <point x="600" y="-249" type="curve" smooth="yes"/>
      <point x="600" y="-361"/>
      <point x="677" y="-420"/>
      <point x="777" y="-420" type="curve" smooth="yes"/>
      <point x="826" y="-420"/>
      <point x="890" y="-396"/>
      <point x="926" y="-368" type="curve"/>
    </contour>
    <contour>
      <point x="746" y="231" type="line"/>
      <point x="640" y="138"/>
      <point x="552" y="87"/>
      <point x="449" y="87" type="curve" smooth="yes"/>
      <point x="344" y="87"/>
      <point x="261" y="138"/>
      <point x="261" y="262" type="curve" smooth="yes"/>
      <point x="261" y="401"/>
      <point x="384" y="488"/>
      <point x="746" y="531" type="curve"/>
    </contour>
  </outline>
</glyph>
<glyph name="eogonek" format="2">
  <advance width="1005"/>
  <unicode hex="0119"/>
  <outline>
    <contour>
      <point x="841" y="-296" type="line"/>
      <point x="815" y="-314"/>
      <point x="791" y="-323"/>
      <point x="756" y="-323" type="curve" smooth="yes"/>
      <point x="704" y="-323"/>
      <point x="658" y="-290"/>
      <point x="658" y="-224" type="curve" smooth="yes"/>
      <point x="658" y="-136"/>
      <point x="710" y="-52"/>
      <point x="887" y="76" type="curve"/>
      <point x="838" y="169" type="line"/>
      <point x="764" y="119"/>
      <point x="682" y="87"/>
      <point x="583" y="87" type="curve" smooth="yes"/>
      <point x="379" y="87"/>
      <point x="244" y="240"/>
      <point x="235" y="468" type="curve"/>
      <point x="922" y="468" type="line"/>
      <point x="926" y="493"/>
      <point x="927" y="518"/>
      <point x="927" y="553" type="curve" smooth="yes"/>
      <point x="927" y="840"/>
      <point x="784" y="1015"/>
      <point x="539" y="1015" type="curve" smooth="yes"/>
      <point x="314" y="1015"/>
      <point x="99" y="817"/>
      <point x="99" y="493" type="curve" smooth="yes"/>
      <point x="99" y="169"/>
      <point x="307" y="-25"/>
      <point x="567" y="-25" type="curve" smooth="yes"/>
      <point x="605" y="-25"/>
      <point x="641" y="-22"/>
      <point x="679" y="-8" type="curve"/>
      <point x="624" y="-56"/>
      <point x="554" y="-146"/>
      <point x="554" y="-249" type="curve" smooth="yes"/>
      <point x="554" y="-361"/>
      <point x="631" y="-420"/>
      <point x="731" y="-420" type="curve" smooth="yes"/>
      <point x="778" y="-420"/>
      <point x="844" y="-396"/>
      <point x="879" y="-368" type="curve"/>
    </contour>
    <contour>
      <point x="234" y="562" type="line"/>
      <point x="254" y="778"/>
      <point x="391" y="905"/>
      <point x="542" y="905" type="curve" smooth="yes"/>
      <point x="707" y="905"/>
      <point x="805" y="785"/>
      <point x="805" y="562" type="curve"/>
    </contour>
  </outline>
</glyph>
<glyph name="Iogonek" format="2">
  <advance width="507"/>
  <unicode hex="012E"/>
  <outline>
    <contour>
      <point x="378" y="-297" type="line"/>
      <point x="353" y="-317"/>
      <point x="328" y="-326"/>
      <point x="294" y="-326" type="curve" smooth="yes"/>
      <point x="244" y="-326"/>
      <point x="194" y="-294"/>
      <point x="194" y="-227" type="curve" smooth="yes"/>
      <point x="194" y="-140"/>
      <point x="244" y="-71"/>
      <point x="324" y="0" type="curve"/>
      <point x="324" y="1346" type="line"/>
      <point x="184" y="1346" type="line"/>
      <point x="184" y="0" type="line"/>
      <point x="215" y="0" type="line"/>
      <point x="149" y="-64"/>
      <point x="83" y="-140"/>
      <point x="83" y="-254" type="curve" smooth="yes"/>
      <point x="83" y="-370"/>
      <point x="166" y="-428"/>
      <point x="269" y="-428" type="curve" smooth="yes"/>
      <point x="320" y="-428"/>
      <point x="384" y="-403"/>
      <point x="420" y="-375" type="curve"/>
    </contour>
  </outline>
</glyph>
<glyph name="iogonek" format="2">
  <advance width="490"/>
  <unicode hex="012F"/>
  <outline>
    <contour>
      <point x="365" y="-296" type="line"/>
      <point x="337" y="-314"/>
      <point x="313" y="-323"/>
      <point x="281" y="-323" type="curve" smooth="yes"/>
      <point x="230" y="-323"/>
      <point x="183" y="-290"/>
      <point x="183" y="-224" type="curve" smooth="yes"/>
      <point x="183" y="-141"/>
      <point x="237" y="-64"/>
      <point x="313" y="0" type="curve"/>
      <point x="313" y="990" type="line"/>
      <point x="176" y="990" type="line"/>
      <point x="176" y="0" type="line"/>
      <point x="207" y="0" type="line"/>
      <point x="148" y="-61"/>
      <point x="77" y="-140"/>
      <point x="77" y="-249" type="curve" smooth="yes"/>
      <point x="77" y="-361"/>
      <point x="155" y="-420"/>
      <point x="255" y="-420" type="curve" smooth="yes"/>
      <point x="303" y="-420"/>
      <point x="368" y="-396"/>
      <point x="404" y="-368" type="curve"/>
    </contour>
    <contour>
      <point x="243" y="1209" type="curve" smooth="yes"/>
      <point x="299" y="1209"/>
      <point x="346" y="1248"/>
      <point x="346" y="1305" type="curve" smooth="yes"/>
      <point x="346" y="1365"/>
      <point x="299" y="1403"/>
      <point x="243" y="1403" type="curve" smooth="yes"/>
      <point x="187" y="1403"/>
      <point x="141" y="1365"/>
      <point x="141" y="1305" type="curve" smooth="yes"/>
      <point x="141" y="1248"/>
      <point x="187" y="1209"/>
    </contour>
  </outline>
</glyph>
<glyph name="idotless" format="2">
  <advance width="490"/>
  <unicode hex="0131"/>
  <anchor x="244" y="-300" name="btm"/>
  <anchor x="244" y="1050" name="top"/>
  <outline>
    <contour>
      <point x="176" y="0" type="line"/>
      <point x="313" y="0" type="line"/>
      <point x="313" y="990" type="line"/>
      <point x="176" y="990" type="line"/>
    </contour>
  </outline>
</glyph>
<glyph name="kgreenlandic" format="2">
  <advance width="988"/>
  <unicode hex="0138"/>
  <outline>
    <contour>
      <point x="176" y="0" type="line"/>
      <point x="313" y="0" type="line"/>
      <point x="313" y="260" type="line"/>
      <point x="512" y="495" type="line"/>
      <point x="817" y="0" type="line"/>
      <point x="967" y="0" type="line"/>
      <point x="593" y="595" type="line"/>
      <point x="918" y="990" type="line"/>
      <point x="766" y="990" type="line"/>
      <point x="319" y="434" type="line"/>
      <point x="313" y="434" type="line"/>
      <point x="313" y="990" type="line"/>
      <point x="176" y="990" type="line"/>
    </contour>
  </outline>
</glyph>
<glyph name="oe" format="2">
  <advance width="1726"/>
  <unicode hex="0153"/>
  <anchor x="907" y="990" name="top"/>
  <outline>
    <contour>
      <point x="1557" y="174" type="line"/>
      <point x="1483" y="124"/>
      <point x="1404" y="89"/>
      <point x="1304" y="89" type="curve" smooth="yes"/>
      <point x="1122" y="89"/>
      <point x="979" y="242"/>
      <point x="974" y="466" type="curve"/>
      <point x="1643" y="466" type="line"/>
      <point x="1647" y="490"/>
      <point x="1649" y="520"/>
      <point x="1649" y="552" type="curve" smooth="yes"/>
      <point x="1649" y="838"/>
      <point x="1508" y="1015"/>
      <point x="1268" y="1015" type="curve" smooth="yes"/>
      <point x="1117" y="1015"/>
      <point x="985" y="913"/>
      <point x="911" y="748" type="curve"/>
      <point x="841" y="923"/>
      <point x="696" y="1015"/>
      <point x="543" y="1015" type="curve" smooth="yes"/>
      <point x="305" y="1015"/>
      <point x="99" y="825"/>
      <point x="99" y="493" type="curve" smooth="yes"/>
      <point x="99" y="165"/>
      <point x="304" y="-25"/>
      <point x="540" y="-25" type="curve" smooth="yes"/>
      <point x="707" y="-25"/>
      <point x="836" y="65"/>
      <point x="913" y="240" type="curve"/>
      <point x="986" y="77"/>
      <point x="1126" y="-25"/>
      <point x="1288" y="-25" type="curve" smooth="yes"/>
      <point x="1427" y="-25"/>
      <point x="1527" y="24"/>
      <point x="1609" y="76" type="curve"/>
    </contour>
    <contour>
      <point x="543" y="90" type="curve" smooth="yes"/>
      <point x="367" y="90"/>
      <point x="239" y="253"/>
      <point x="239" y="493" type="curve" smooth="yes"/>
      <point x="239" y="735"/>
      <point x="367" y="900"/>
      <point x="543" y="900" type="curve" smooth="yes"/>
      <point x="720" y="900"/>
      <point x="845" y="735"/>
      <point x="845" y="493" type="curve" smooth="yes"/>
      <point x="845" y="253"/>
      <point x="720" y="90"/>
    </contour>
    <contour>
      <point x="974" y="561" type="line"/>
      <point x="993" y="768"/>
      <point x="1117" y="905"/>
      <point x="1265" y="905" type="curve" smooth="yes"/>
      <point x="1426" y="905"/>
      <point x="1527" y="785"/>
      <point x="1527" y="561" type="curve"/>
    </contour>
  </outline>
</glyph>
<glyph name="tbar" format="2">
  <advance width="670"/>
  <unicode hex="0167"/>
  <anchor x="380" y="-300" name="btm"/>
  <anchor x="671" y="1003" name="car"/>
  <anchor x="277" y="1227" name="top"/>
  <outline>
    <contour>
      <point x="54" y="531" type="line"/>
      <point x="611" y="531" type="line"/>
      <point x="611" y="642" type="line"/>
      <point x="54" y="642" type="line"/>
    </contour>
    <component base="t"/>
  </outline>
</glyph>
<glyph name="Schwa" format="2">
  <advance width="1343"/>
  <unicode hex="018F"/>
  <anchor x="672" y="0" name="bottom"/>
  <anchor x="672" y="1346" name="top"/>
  <outline>
    <contour>
      <point x="337" y="1120" type="line"/>
      <point x="419" y="1198"/>
      <point x="538" y="1251"/>
      <point x="674" y="1251" type="curve" smooth="yes"/>
      <point x="938" y="1251"/>
      <point x="1091" y="1042"/>
      <point x="1100" y="706" type="curve"/>
      <point x="132" y="706" type="line"/>
      <point x="130" y="691"/>
      <point x="129" y="678"/>
      <point x="129" y="667" type="curve" smooth="yes"/>
      <point x="129" y="258"/>
      <point x="342" y="-25"/>
      <point x="673" y="-25" type="curve" smooth="yes"/>
      <point x="1006" y="-25"/>
      <point x="1237" y="248"/>
      <point x="1237" y="677" type="curve" smooth="yes"/>
      <point x="1237" y="1106"/>
      <point x="1024" y="1370"/>
      <point x="681" y="1370" type="curve" smooth="yes"/>
      <point x="504" y="1370"/>
      <point x="362" y="1305"/>
      <point x="270" y="1215" type="curve"/>
    </contour>
    <contour>
      <point x="1097" y="597" type="line"/>
      <point x="1073" y="290"/>
      <point x="908" y="95"/>
      <point x="673" y="95" type="curve" smooth="yes"/>
      <point x="447" y="95"/>
      <point x="289" y="288"/>
      <point x="271" y="597" type="curve"/>
    </contour>
  </outline>
</glyph>
<glyph name="oogonek" format="2">
  <advance width="1104"/>
  <unicode hex="01EB"/>
  <outline>
    <contour>
      <point x="714" y="-296" type="line"/>
      <point x="688" y="-314"/>
      <point x="663" y="-323"/>
      <point x="629" y="-323" type="curve" smooth="yes"/>
      <point x="579" y="-323"/>
      <point x="532" y="-291"/>
      <point x="532" y="-224" type="curve" smooth="yes"/>
      <point x="532" y="-143"/>
      <point x="590" y="-53"/>
      <point x="681" y="-10" type="curve" smooth="yes"/>
      <point x="874" y="77"/>
      <point x="1005" y="215"/>
      <point x="1005" y="493" type="curve" smooth="yes"/>
      <point x="1005" y="825"/>
      <point x="793" y="1015"/>
      <point x="552" y="1015" type="curve" smooth="yes"/>
      <point x="311" y="1015"/>
      <point x="99" y="825"/>
      <point x="99" y="493" type="curve" smooth="yes"/>
      <point x="99" y="175"/>
      <point x="300" y="-14"/>
      <point x="542" y="-24" type="curve"/>
      <point x="495" y="-61"/>
      <point x="427" y="-146"/>
      <point x="427" y="-249" type="curve" smooth="yes"/>
      <point x="427" y="-361"/>
      <point x="505" y="-420"/>
      <point x="603" y="-420" type="curve" smooth="yes"/>
      <point x="653" y="-420"/>
      <point x="718" y="-396"/>
      <point x="753" y="-368" type="curve"/>
    </contour>
    <contour>
      <point x="552" y="90" type="curve" smooth="yes"/>
      <point x="370" y="90"/>
      <point x="241" y="253"/>
      <point x="241" y="493" type="curve" smooth="yes"/>
      <point x="241" y="735"/>
      <point x="370" y="900"/>
      <point x="552" y="900" type="curve" smooth="yes"/>
      <point x="734" y="900"/>
      <point x="864" y="735"/>
      <point x="864" y="493" type="curve" smooth="yes"/>
      <point x="864" y="253"/>
      <point x="734" y="90"/>
    </contour>
  </outline>
</glyph>
<glyph name="Bstroke" format="2">
  <advance width="1222"/>
  <unicode hex="0243"/>
  <outline>
    <contour>
      <point x="222" y="0" type="line"/>
      <point x="636" y="0" type="line"/>
      <point x="938" y="0"/>
      <point x="1142" y="132"/>
      <point x="1142" y="399" type="curve" smooth="yes"/>
      <point x="1142" y="588"/>
      <point x="1023" y="696"/>
      <point x="826" y="727" type="curve"/>
      <point x="826" y="735" type="line"/>
      <point x="984" y="776"/>
      <point x="1061" y="887"/>
      <point x="1061" y="1021" type="curve" smooth="yes"/>
      <point x="1061" y="1248"/>
      <point x="879" y="1346"/>
      <point x="607" y="1346" type="curve" smooth="yes"/>
      <point x="222" y="1346" type="line"/>
      <point x="222" y="448" type="line"/>
      <point x="64" y="441" type="line"/>
      <point x="64" y="363" type="line"/>
      <point x="222" y="363" type="line"/>
    </contour>
    <contour>
      <point x="362" y="107" type="line"/>
      <point x="362" y="363" type="line"/>
      <point x="684" y="363" type="line"/>
      <point x="684" y="448" type="line"/>
      <point x="362" y="448" type="line"/>
      <point x="362" y="674" type="line"/>
      <point x="612" y="674" type="line"/>
      <point x="862" y="674"/>
      <point x="1006" y="588"/>
      <point x="1006" y="404" type="curve" smooth="yes"/>
      <point x="1006" y="201"/>
      <point x="857" y="107"/>
      <point x="612" y="107" type="curve" smooth="yes"/>
    </contour>
    <contour>
      <point x="362" y="770" type="line"/>
      <point x="362" y="1240" type="line"/>
      <point x="583" y="1240" type="line"/>
      <point x="808" y="1240"/>
      <point x="927" y="1173"/>
      <point x="927" y="1015" type="curve" smooth="yes"/>
      <point x="927" y="854"/>
      <point x="823" y="770"/>
      <point x="575" y="770" type="curve" smooth="yes"/>
    </contour>
  </outline>
</glyph>
<glyph name="schwa" format="2">
  <advance width="1005"/>
  <unicode hex="0259"/>
  <outline>
    <contour>
      <point x="190" y="815" type="line"/>
      <point x="268" y="868"/>
      <point x="350" y="905"/>
      <point x="456" y="905" type="curve" smooth="yes"/>
      <point x="649" y="905"/>
      <point x="761" y="754"/>
      <point x="769" y="538" type="curve"/>
      <point x="83" y="538" type="line"/>
      <point x="79" y="513"/>
      <point x="77" y="484"/>
      <point x="77" y="453" type="curve" smooth="yes"/>
      <point x="77" y="151"/>
      <point x="239" y="-25"/>
      <point x="481" y="-25" type="curve" smooth="yes"/>
      <point x="721" y="-25"/>
      <point x="906" y="173"/>
      <point x="906" y="498" type="curve" smooth="yes"/>
      <point x="906" y="825"/>
      <point x="722" y="1015"/>
      <point x="476" y="1015" type="curve" smooth="yes"/>
      <point x="334" y="1015"/>
      <point x="227" y="969"/>
      <point x="139" y="908" type="curve"/>
    </contour>
    <contour>
      <point x="770" y="443" type="line"/>
      <point x="751" y="218"/>
      <point x="644" y="87"/>
      <point x="478" y="87" type="curve" smooth="yes"/>
      <point x="312" y="87"/>
      <point x="199" y="201"/>
      <point x="199" y="443" type="curve"/>
    </contour>
  </outline>
</glyph>
<glyph name="h.sups" format="2">
  <advance width="741"/>
  <unicode hex="02B0"/>
  <outline>
    <contour>
      <point x="111" y="532" type="line"/>
      <point x="217" y="532" type="line"/>
      <point x="217" y="1009" type="line"/>
      <point x="289" y="1080"/>
      <point x="347" y="1112"/>
      <point x="403" y="1112" type="curve" smooth="yes"/>
      <point x="514" y="1112"/>
      <point x="538" y="1043"/>
      <point x="538" y="932" type="curve" smooth="yes"/>
      <point x="538" y="532" type="line"/>
      <point x="645" y="532" type="line"/>
      <point x="645" y="949" type="line"/>
      <point x="645" y="1100"/>
      <point x="591" y="1205"/>
      <point x="437" y="1205" type="curve" smooth="yes"/>
      <point x="349" y="1205"/>
      <point x="270" y="1153"/>
      <point x="213" y="1092" type="curve"/>
      <point x="217" y="1232" type="line"/>
      <point x="217" y="1496" type="line"/>
      <point x="111" y="1496" type="line"/>
    </contour>
  </outline>
</glyph>
<glyph name="r.sups" format="2">
  <advance width="476"/>
  <unicode hex="02B3"/>
  <outline>
    <contour>
      <point x="111" y="532" type="line"/>
      <point x="221" y="532" type="line"/>
      <point x="221" y="957" type="line"/>
      <point x="268" y="1066"/>
      <point x="333" y="1104"/>
      <point x="393" y="1104" type="curve" smooth="yes"/>
      <point x="415" y="1104"/>
      <point x="441" y="1099"/>
      <point x="456" y="1095" type="curve"/>
      <point x="479" y="1191" type="line"/>
      <point x="462" y="1199"/>
      <point x="434" y="1205"/>
      <point x="403" y="1205" type="curve" smooth="yes"/>
      <point x="329" y="1205"/>
      <point x="268" y="1157"/>
      <point x="217" y="1072" type="curve"/>
      <point x="211" y="1072" type="line"/>
      <point x="196" y="1189" type="line"/>
      <point x="111" y="1189" type="line"/>
    </contour>
  </outline>
</glyph>
<glyph name="w.sups" format="2">
  <advance width="979"/>
  <unicode hex="02B7"/>
  <outline>
    <contour>
      <point x="218" y="532" type="line"/>
      <point x="347" y="532" type="line"/>
      <point x="444" y="886" type="line"/>
      <point x="489" y="1074" type="line"/>
      <point x="493" y="1074" type="line"/>
      <point x="539" y="886" type="line"/>
      <point x="634" y="532" type="line"/>
      <point x="764" y="532" type="line"/>
      <point x="947" y="1189" type="line"/>
      <point x="844" y="1189" type="line"/>
      <point x="749" y="806" type="line"/>
      <point x="703" y="622" type="line"/>
      <point x="695" y="622" type="line"/>
      <point x="648" y="806" type="line"/>
      <point x="541" y="1189" type="line"/>
      <point x="440" y="1189" type="line"/>
      <point x="338" y="806" type="line"/>
      <point x="292" y="622" type="line"/>
      <point x="284" y="622" type="line"/>
      <point x="241" y="806" type="line"/>
      <point x="145" y="1189" type="line"/>
      <point x="33" y="1189" type="line"/>
    </contour>
  </outline>
</glyph>
<glyph name="commaturnedmod" format="2">
  <advance width="485"/>
  <unicode hex="02BB"/>
  <outline>
    <contour>
      <point x="317" y="1431" type="line"/>
      <point x="189" y="1353"/>
      <point x="118" y="1242"/>
      <point x="118" y="1085" type="curve" smooth="yes"/>
      <point x="118" y="979"/>
      <point x="161" y="920"/>
      <point x="231" y="920" type="curve" smooth="yes"/>
      <point x="287" y="920"/>
      <point x="328" y="959"/>
      <point x="328" y="1020" type="curve" smooth="yes"/>
      <point x="328" y="1081"/>
      <point x="280" y="1113"/>
      <point x="231" y="1113" type="curve" smooth="yes"/>
      <point x="225" y="1113"/>
      <point x="218" y="1113"/>
      <point x="213" y="1111" type="curve"/>
      <point x="213" y="1227"/>
      <point x="263" y="1295"/>
      <point x="361" y="1365" type="curve"/>
    </contour>
  </outline>
</glyph>
<glyph name="apostrophemod" format="2">
  <advance width="485"/>
  <unicode hex="02BC"/>
  <outline>
    <contour>
      <point x="168" y="922" type="line"/>
      <point x="296" y="999"/>
      <point x="369" y="1110"/>
      <point x="369" y="1266" type="curve" smooth="yes"/>
      <point x="369" y="1372"/>
      <point x="325" y="1433"/>
      <point x="255" y="1433" type="curve" smooth="yes"/>
      <point x="199" y="1433"/>
      <point x="159" y="1395"/>
      <point x="159" y="1331" type="curve" smooth="yes"/>
      <point x="159" y="1271"/>
      <point x="206" y="1239"/>
      <point x="255" y="1239" type="curve" smooth="yes"/>
      <point x="261" y="1239"/>
      <point x="266" y="1239"/>
      <point x="272" y="1242" type="curve"/>
      <point x="272" y="1124"/>
      <point x="222" y="1057"/>
      <point x="125" y="987" type="curve"/>
    </contour>
  </outline>
</glyph>
<glyph name="ringhalfleft" format="2">
  <advance width="330"/>
  <unicode hex="02BF"/>
  <outline>
    <contour>
      <point x="262" y="1171" type="line"/>
      <point x="167" y="1171"/>
      <point x="128" y="1221"/>
      <point x="128" y="1292" type="curve" smooth="yes"/>
      <point x="128" y="1363"/>
      <point x="167" y="1412"/>
      <point x="262" y="1412" type="curve"/>
      <point x="262" y="1476" type="line"/>
      <point x="125" y="1480"/>
      <point x="44" y="1407"/>
      <point x="44" y="1292" type="curve" smooth="yes"/>
      <point x="44" y="1176"/>
      <point x="125" y="1104"/>
      <point x="262" y="1108" type="curve"/>
    </contour>
  </outline>
</glyph>
<glyph name="secondtonechinese" format="2">
  <advance width="455"/>
  <unicode hex="02CA"/>
  <outline>
    <contour>
      <point x="99" y="1173" type="line"/>
      <point x="206" y="1173" type="line"/>
      <point x="433" y="1457" type="line"/>
      <point x="285" y="1457" type="line"/>
    </contour>
  </outline>
</glyph>
<glyph name="ogonek" format="2">
  <advance width="1104"/>
  <unicode hex="02DB"/>
  <outline>
    <contour>
      <point x="714" y="-296" type="line"/>
      <point x="689" y="-314"/>
      <point x="663" y="-323"/>
      <point x="629" y="-323" type="curve" smooth="yes"/>
      <point x="579" y="-323"/>
      <point x="532" y="-291"/>
      <point x="532" y="-224" type="curve" smooth="yes"/>
      <point x="532" y="-141"/>
      <point x="589" y="-60"/>
      <point x="679" y="7" type="curve"/>
      <point x="573" y="7" type="line"/>
      <point x="502" y="-47"/>
      <point x="427" y="-140"/>
      <point x="427" y="-249" type="curve" smooth="yes"/>
      <point x="427" y="-361"/>
      <point x="505" y="-420"/>
      <point x="603" y="-420" type="curve" smooth="yes"/>
      <point x="653" y="-420"/>
      <point x="718" y="-396"/>
      <point x="753" y="-368" type="curve"/>
    </contour>
  </outline>
</glyph>
<glyph name="hungarumlaut" format="2">
  <advance width="1104"/>
  <unicode hex="02DD"/>
  <anchor x="644" y="1050" name="_top"/>
  <outline>
    <contour>
      <point x="364" y="1168" type="line"/>
      <point x="460" y="1168" type="line"/>
      <point x="636" y="1457" type="line"/>
      <point x="511" y="1457" type="line"/>
    </contour>
    <contour>
      <point x="654" y="1168" type="line"/>
      <point x="749" y="1168" type="line"/>
      <point x="925" y="1457" type="line"/>
      <point x="800" y="1457" type="line"/>
    </contour>
  </outline>
</glyph>
<glyph name="gravecomb" format="2">
  <unicode hex="0300"/>
  <anchor x="-41" y="990" name="_top"/>
  <anchor x="-39" y="1457" name="top"/>
  <outline>
    <contour>
      <point x="18" y="1173" type="line"/>
      <point x="126" y="1173" type="line"/>
      <point x="-60" y="1457" type="line"/>
      <point x="-208" y="1457" type="line"/>
    </contour>
  </outline>
</glyph>
<glyph name="tildecomb" format="2">
  <unicode hex="0303"/>
  <anchor x="0" y="990" name="_top"/>
  <anchor x="2" y="1390" name="top"/>
  <outline>
    <contour>
      <point x="-191" y="1188" type="line"/>
      <point x="-180" y="1258"/>
      <point x="-157" y="1295"/>
      <point x="-115" y="1295" type="curve" smooth="yes"/>
      <point x="-43" y="1295"/>
      <point x="13" y="1188"/>
      <point x="117" y="1188" type="curve" smooth="yes"/>
      <point x="216" y="1188"/>
      <point x="263" y="1282"/>
      <point x="272" y="1390" type="curve"/>
      <point x="191" y="1390" type="line"/>
      <point x="180" y="1321"/>
      <point x="157" y="1282"/>
      <point x="115" y="1282" type="curve" smooth="yes"/>
      <point x="47" y="1282"/>
      <point x="-13" y="1390"/>
      <point x="-117" y="1390" type="curve" smooth="yes"/>
      <point x="-216" y="1390"/>
      <point x="-263" y="1296"/>
      <point x="-272" y="1188" type="curve"/>
    </contour>
  </outline>
</glyph>
<glyph name="commaabovecomb" format="2">
  <unicode hex="0313"/>
  <anchor x="-431" y="990" name="_top"/>
  <anchor x="-429" y="1484" name="top"/>
  <outline>
    <contour>
      <point x="-492" y="1115" type="line"/>
      <point x="-381" y="1168"/>
      <point x="-336" y="1257"/>
      <point x="-336" y="1349" type="curve" smooth="yes"/>
      <point x="-336" y="1437"/>
      <point x="-370" y="1484"/>
      <point x="-430" y="1484" type="curve" smooth="yes"/>
      <point x="-472" y="1484"/>
      <point x="-507" y="1457"/>
      <point x="-507" y="1400" type="curve" smooth="yes"/>
      <point x="-507" y="1350"/>
      <point x="-466" y="1326"/>
      <point x="-429" y="1326" type="curve" smooth="yes"/>
      <point x="-423" y="1326"/>
      <point x="-417" y="1326"/>
      <point x="-412" y="1328" type="curve"/>
      <point x="-415" y="1266"/>
      <point x="-449" y="1213"/>
      <point x="-525" y="1175" type="curve"/>
    </contour>
  </outline>
</glyph>
<glyph name="dotbelowcomb" format="2">
  <unicode hex="0323"/>
  <anchor x="0" y="-300" name="_btm"/>
  <outline>
    <contour>
      <point x="0" y="-412" type="curve" smooth="yes"/>
      <point x="56" y="-412"/>
      <point x="97" y="-372"/>
      <point x="97" y="-312" type="curve" smooth="yes"/>
      <point x="97" y="-255"/>
      <point x="56" y="-215"/>
      <point x="0" y="-215" type="curve" smooth="yes"/>
      <point x="-56" y="-215"/>
      <point x="-97" y="-255"/>
      <point x="-97" y="-312" type="curve" smooth="yes"/>
      <point x="-97" y="-372"/>
      <point x="-56" y="-412"/>
    </contour>
  </outline>
</glyph>
<glyph name="dieresisbelowcomb" format="2">
  <unicode hex="0324"/>
  <anchor x="0" y="-300" name="_btm"/>
  <outline>
    <contour>
      <point x="170" y="-403" type="curve" smooth="yes"/>
      <point x="223" y="-403"/>
      <point x="260" y="-363"/>
      <point x="260" y="-313" type="curve" smooth="yes"/>
      <point x="260" y="-262"/>
      <point x="223" y="-224"/>
      <point x="170" y="-224" type="curve" smooth="yes"/>
      <point x="119" y="-224"/>
      <point x="80" y="-262"/>
      <point x="80" y="-313" type="curve" smooth="yes"/>
      <point x="80" y="-363"/>
      <point x="119" y="-403"/>
    </contour>
    <contour>
      <point x="-170" y="-403" type="curve" smooth="yes"/>
      <point x="-119" y="-403"/>
      <point x="-80" y="-363"/>
      <point x="-80" y="-313" type="curve" smooth="yes"/>
      <point x="-80" y="-262"/>
      <point x="-119" y="-224"/>
      <point x="-170" y="-224" type="curve" smooth="yes"/>
      <point x="-223" y="-224"/>
      <point x="-260" y="-262"/>
      <point x="-260" y="-313" type="curve" smooth="yes"/>
      <point x="-260" y="-363"/>
      <point x="-223" y="-403"/>
    </contour>
  </outline>
</glyph>
<glyph name="commaaccentcomb" format="2">
  <unicode hex="0326"/>
  <anchor x="-17" y="-300" name="_btm"/>
  <outline>
    <contour>
      <point x="-149" y="-436" type="line"/>
      <point x="-4" y="-423"/>
      <point x="131" y="-369"/>
      <point x="131" y="-255" type="curve" smooth="yes"/>
      <point x="131" y="-166"/>
      <point x="71" y="-122"/>
      <point x="-56" y="-100" type="curve"/>
      <point x="-89" y="-171" type="line"/>
      <point x="-30" y="-184"/>
      <point x="21" y="-208"/>
      <point x="21" y="-265" type="curve" smooth="yes"/>
      <point x="21" y="-319"/>
      <point x="-55" y="-348"/>
      <point x="-165" y="-363" type="curve"/>
    </contour>
  </outline>
</glyph>
<glyph name="brevebelowcomb" format="2">
  <unicode hex="032E"/>
  <anchor x="0" y="-300" name="_btm"/>
  <outline>
    <contour>
      <point x="163" y="-166" type="line"/>
      <point x="152" y="-249"/>
      <point x="101" y="-330"/>
      <point x="0" y="-330" type="curve" smooth="yes"/>
      <point x="-101" y="-330"/>
      <point x="-152" y="-249"/>
      <point x="-163" y="-166" type="curve"/>
      <point x="-252" y="-166" type="line"/>
      <point x="-242" y="-280"/>
      <point x="-173" y="-420"/>
      <point x="0" y="-420" type="curve" smooth="yes"/>
      <point x="173" y="-420"/>
      <point x="242" y="-280"/>
      <point x="252" y="-166" type="curve"/>
    </contour>
  </outline>
</glyph>
<glyph name="mu" format="2">
  <advance width="1115"/>
  <unicode hex="03BC"/>
  <outline>
    <contour>
      <point x="176" y="-410" type="line"/>
      <point x="313" y="-410" type="line"/>
      <point x="313" y="-105" type="line"/>
      <point x="305" y="79" type="line"/>
      <point x="355" y="0"/>
      <point x="419" y="-19"/>
      <point x="507" y="-19" type="curve" smooth="yes"/>
      <point x="628" y="-19"/>
      <point x="725" y="50"/>
      <point x="808" y="159" type="curve"/>
      <point x="813" y="159" type="line"/>
      <point x="825" y="0" type="line"/>
      <point x="939" y="0" type="line"/>
      <point x="939" y="990" type="line"/>
      <point x="803" y="990" type="line"/>
      <point x="803" y="276" type="line"/>
      <point x="700" y="150"/>
      <point x="625" y="95"/>
      <point x="516" y="95" type="curve" smooth="yes"/>
      <point x="374" y="95"/>
      <point x="313" y="183"/>
      <point x="313" y="378" type="curve" smooth="yes"/>
      <point x="313" y="990" type="line"/>
      <point x="176" y="990" type="line"/>
    </contour>
  </outline>
</glyph>
<glyph name="candraBindu-deva" format="2">
  <unicode hex="0901"/>
  <anchor x="273" y="1168" name="_candra"/>
  <anchor x="264" y="1748" name="top"/>
  <outline>
    <contour>
      <point x="493" y="1611" type="line"/>
      <point x="451" y="1546"/>
      <point x="388" y="1481"/>
      <point x="271" y="1481" type="curve" smooth="yes"/>
      <point x="158" y="1481"/>
      <point x="94" y="1538"/>
      <point x="49" y="1609" type="curve"/>
      <point x="-31" y="1559" type="line"/>
      <point x="16" y="1462"/>
      <point x="111" y="1371"/>
      <point x="270" y="1371" type="curve" smooth="yes"/>
      <point x="405" y="1371"/>
      <point x="508" y="1440"/>
      <point x="570" y="1564" type="curve"/>
    </contour>
    <contour>
      <point x="265" y="1550" type="curve" smooth="yes"/>
      <point x="323" y="1550"/>
      <point x="347" y="1574"/>
      <point x="347" y="1631" type="curve" smooth="yes"/>
      <point x="347" y="1688"/>
      <point x="323" y="1712"/>
      <point x="265" y="1712" type="curve" smooth="yes"/>
      <point x="208" y="1712"/>
      <point x="183" y="1688"/>
      <point x="183" y="1631" type="curve" smooth="yes"/>
      <point x="183" y="1574"/>
      <point x="208" y="1550"/>
    </contour>
  </outline>
</glyph>
<glyph name="a-deva" format="2">
  <advance width="1378"/>
  <unicode hex="0905"/>
  <anchor x="1102" y="28" name="bottom"/>
  <anchor x="1100" y="1247" name="candra"/>
  <anchor x="1095" y="1168" name="top"/>
  <outline>
    <contour>
      <point x="332" y="727" type="line"/>
      <point x="520" y="671"/>
      <point x="598" y="598"/>
      <point x="598" y="468" type="curve" smooth="yes"/>
      <point x="598" y="326"/>
      <point x="501" y="264"/>
      <point x="371" y="264" type="curve" smooth="yes"/>
      <point x="268" y="264"/>
      <point x="162" y="301"/>
      <point x="54" y="400" type="curve"/>
      <point x="-12" y="320" type="line"/>
      <point x="111" y="200"/>
      <point x="246" y="150"/>
      <point x="384" y="150" type="curve" smooth="yes"/>
      <point x="570" y="150"/>
      <point x="727" y="264"/>
      <point x="727" y="461" type="curve" smooth="yes"/>
      <point x="727" y="622"/>
      <point x="616" y="736"/>
      <point x="404" y="763" type="curve"/>
    </contour>
    <contour>
      <point x="245" y="667" type="line"/>
      <point x="322" y="669"/>
      <point x="417" y="686"/>
      <point x="499" y="731" type="curve" smooth="yes"/>
      <point x="618" y="792"/>
      <point x="674" y="883"/>
      <point x="674" y="1008" type="curve" smooth="yes"/>
      <point x="674" y="1175"/>
      <point x="555" y="1268"/>
      <point x="369" y="1268" type="curve" smooth="yes"/>
      <point x="277" y="1268"/>
      <point x="194" y="1246"/>
      <point x="107" y="1208" type="curve"/>
      <point x="144" y="1109" type="line"/>
      <point x="228" y="1143"/>
      <point x="301" y="1159"/>
      <point x="365" y="1159" type="curve" smooth="yes"/>
      <point x="468" y="1159"/>
      <point x="554" y="1126"/>
      <point x="554" y="996" type="curve" smooth="yes"/>
      <point x="554" y="881"/>
      <point x="480" y="814"/>
      <point x="322" y="782" type="curve" smooth="yes"/>
      <point x="299" y="777"/>
      <point x="275" y="772"/>
      <point x="236" y="768" type="curve"/>
    </contour>
    <contour>
      <point x="676" y="558" type="line"/>
      <point x="781" y="557"/>
      <point x="961" y="585"/>
      <point x="1078" y="660" type="curve"/>
      <point x="1071" y="781" type="line"/>
      <point x="944" y="688"/>
      <point x="767" y="652"/>
      <point x="634" y="650" type="curve"/>
    </contour>
    <contour>
      <point x="1038" y="0" type="line"/>
      <point x="1165" y="0" type="line"/>
      <point x="1165" y="1196" type="line"/>
      <point x="1038" y="1196" type="line"/>
    </contour>
    <contour>
      <point x="836" y="1143" type="line"/>
      <point x="1391" y="1143" type="line"/>
      <point x="1391" y="1247" type="line"/>
      <point x="836" y="1247" type="line"/>
    </contour>
  </outline>
</glyph>
<glyph name="i-deva" format="2">
  <advance width="980"/>
  <unicode hex="0907"/>
  <anchor x="680" y="20" name="bottom"/>
  <anchor x="528" y="1173" name="candra"/>
  <anchor x="739" y="1168" name="top"/>
  <outline>
    <contour>
      <point x="282" y="498" type="line"/>
      <point x="239" y="548"/>
      <point x="218" y="627"/>
      <point x="218" y="686" type="curve" smooth="yes"/>
      <point x="218" y="762"/>
      <point x="246" y="809"/>
      <point x="379" y="809" type="curve" smooth="yes"/>
      <point x="747" y="809" type="line"/>
      <point x="733" y="921" type="line"/>
      <point x="346" y="921" type="line" smooth="yes"/>
      <point x="187" y="919"/>
      <point x="101" y="850"/>
      <point x="101" y="720" type="curve" smooth="yes"/>
      <point x="101" y="615"/>
      <point x="149" y="490"/>
      <point x="206" y="436" type="curve" smooth="yes"/>
      <point x="225" y="419"/>
      <point x="251" y="401"/>
      <point x="289" y="407" type="curve" smooth="yes"/>
      <point x="343" y="415"/>
      <point x="525" y="437"/>
      <point x="618" y="437" type="curve" smooth="yes"/>
      <point x="755" y="437"/>
      <point x="804" y="382"/>
      <point x="800" y="282" type="curve" smooth="yes"/>
      <point x="796" y="168"/>
      <point x="707" y="92"/>
      <point x="508" y="92" type="curve" smooth="yes"/>
      <point x="407" y="92"/>
      <point x="317" y="108"/>
      <point x="231" y="154" type="curve"/>
      <point x="298" y="97" type="line"/>
      <point x="208" y="280" type="line"/>
      <point x="88" y="247" type="line"/>
      <point x="85" y="228"/>
      <point x="83" y="208"/>
      <point x="83" y="193" type="curve" smooth="yes"/>
      <point x="83" y="83"/>
      <point x="177" y="36"/>
      <point x="285" y="2" type="curve"/>
      <point x="284" y="29" type="line"/>
      <point x="351" y="-5"/>
      <point x="433" y="-19"/>
      <point x="516" y="-19" type="curve"/>
      <point x="736" y="-19"/>
      <point x="919" y="80"/>
      <point x="919" y="301" type="curve" smooth="yes"/>
      <point x="919" y="510"/>
      <point x="777" y="553"/>
      <point x="628" y="552" type="curve" smooth="yes"/>
      <point x="510" y="552"/>
      <point x="314" y="531"/>
      <point x="251" y="514" type="curve"/>
    </contour>
    <contour>
      <point x="432" y="-319" type="line"/>
      <point x="536" y="-257" type="line"/>
      <point x="279" y="102" type="line"/>
      <point x="205" y="86" type="line"/>
    </contour>
    <contour>
      <point x="-12" y="1143" type="line"/>
      <point x="993" y="1143" type="line"/>
      <point x="993" y="1247" type="line"/>
      <point x="-12" y="1247" type="line"/>
    </contour>
    <contour>
      <point x="669" y="809" type="line"/>
      <point x="794" y="809" type="line"/>
      <point x="794" y="1195" type="line"/>
      <point x="669" y="1195" type="line"/>
    </contour>
  </outline>
</glyph>
<glyph name="nga-deva" format="2">
  <advance width="1110"/>
  <unicode hex="0919"/>
  <anchor x="551" y="-49" name="bottom"/>
  <anchor x="552" y="1168" name="candra"/>
  <anchor x="731" y="1168" name="top"/>
  <anchor x="509" y="-153" name="nukta"/>
  <outline>
    <contour>
      <point x="978" y="763" type="curve" smooth="yes"/>
      <point x="921" y="763"/>
      <point x="896" y="739"/>
      <point x="896" y="682" type="curve" smooth="yes"/>
      <point x="896" y="625"/>
      <point x="921" y="601"/>
      <point x="978" y="601" type="curve" smooth="yes"/>
      <point x="1036" y="601"/>
      <point x="1060" y="625"/>
      <point x="1060" y="682" type="curve" smooth="yes"/>
      <point x="1060" y="739"/>
      <point x="1036" y="763"/>
    </contour>
    <contour>
      <point x="1123" y="1247" type="line"/>
      <point x="879" y="1247" type="line"/>
      <point x="879" y="1143" type="line"/>
      <point x="1123" y="1143" type="line"/>
    </contour>
    <component base="dda-deva"/>
  </outline>
</glyph>
<glyph name="jha-deva" format="2">
  <advance width="1483"/>
  <unicode hex="091D"/>
  <anchor x="1207" y="28" name="bottom"/>
  <anchor x="962" y="1173" name="candra"/>
  <anchor x="165" y="-195" name="nukta"/>
  <anchor x="1207" y="1168" name="top"/>
  <outline>
    <contour>
      <point x="842" y="384" type="line"/>
      <point x="948" y="371"/>
      <point x="1138" y="412"/>
      <point x="1202" y="472" type="curve"/>
      <point x="1189" y="592" type="line"/>
      <point x="1072" y="502"/>
      <point x="914" y="468"/>
      <point x="796" y="478" type="curve"/>
    </contour>
    <component base="i-deva"/>
    <component base="aaMatra-deva" xOffset="929"/>
  </outline>
</glyph>
<glyph name="ddha-deva" format="2">
  <advance width="1069"/>
  <unicode hex="0922"/>
  <anchor x="576" y="96" name="bottom"/>
  <anchor x="567" y="1168" name="candra"/>
  <anchor x="112" y="44" name="nukta"/>
  <anchor x="779" y="1168" name="top"/>
  <outline>
    <contour>
      <point x="779" y="160" type="line"/>
      <point x="703" y="224"/>
      <point x="653" y="272"/>
      <point x="653" y="356" type="curve" smooth="yes"/>
      <point x="653" y="415"/>
      <point x="678" y="476"/>
      <point x="773" y="476" type="curve" smooth="yes"/>
      <point x="842" y="476"/>
      <point x="893" y="445"/>
      <point x="893" y="361" type="curve" smooth="yes"/>
      <point x="893" y="247"/>
      <point x="803" y="160"/>
      <point x="583" y="159" type="curve" smooth="yes"/>
      <point x="328" y="158"/>
      <point x="217" y="254"/>
      <point x="217" y="480" type="curve" smooth="yes"/>
      <point x="217" y="713"/>
      <point x="337" y="785"/>
      <point x="603" y="788" type="curve" smooth="yes"/>
      <point x="652" y="789"/>
      <point x="777" y="786"/>
      <point x="842" y="784" type="curve"/>
      <point x="842" y="1174" type="line"/>
      <point x="716" y="1174" type="line"/>
      <point x="716" y="849" type="line"/>
      <point x="774" y="888" type="line"/>
      <point x="706" y="899"/>
      <point x="625" y="900"/>
      <point x="564" y="901" type="curve" smooth="yes"/>
      <point x="237" y="901"/>
      <point x="85" y="761"/>
      <point x="85" y="490" type="curve" smooth="yes"/>
      <point x="85" y="188"/>
      <point x="290" y="51"/>
      <point x="560" y="51" type="curve" smooth="yes"/>
      <point x="803" y="51"/>
      <point x="1006" y="149"/>
      <point x="1006" y="348" type="curve" smooth="yes"/>
      <point x="1006" y="497"/>
      <point x="907" y="573"/>
      <point x="761" y="573" type="curve" smooth="yes"/>
      <point x="602" y="573"/>
      <point x="537" y="472"/>
      <point x="537" y="380" type="curve" smooth="yes"/>
      <point x="537" y="264"/>
      <point x="601" y="195"/>
      <point x="692" y="133" type="curve"/>
    </contour>
    <contour>
      <point x="-12" y="1143" type="line"/>
      <point x="1082" y="1143" type="line"/>
      <point x="1082" y="1247" type="line"/>
      <point x="-12" y="1247" type="line"/>
    </contour>
  </outline>
</glyph>
<glyph name="ta-deva" format="2">
  <advance width="1107"/>
  <unicode hex="0924"/>
  <anchor x="830" y="28" name="bottom"/>
  <anchor x="564" y="1168" name="candra"/>
  <anchor x="97" y="44" name="nukta"/>
  <anchor x="834" y="1168" name="top"/>
  <outline>
    <contour>
      <point x="455" y="39" type="line"/>
      <point x="302" y="250"/>
      <point x="213" y="412"/>
      <point x="213" y="552" type="curve" smooth="yes"/>
      <point x="213" y="693"/>
      <point x="290" y="713"/>
      <point x="442" y="713" type="curve" smooth="yes"/>
      <point x="837" y="713" type="line"/>
      <point x="804" y="828" type="line"/>
      <point x="402" y="828" type="line" smooth="yes"/>
      <point x="160" y="829"/>
      <point x="83" y="713"/>
      <point x="83" y="570" type="curve" smooth="yes"/>
      <point x="83" y="366"/>
      <point x="230" y="130"/>
      <point x="354" y="-30" type="curve"/>
    </contour>
    <contour>
      <point x="767" y="0" type="line"/>
      <point x="893" y="0" type="line"/>
      <point x="893" y="1191" type="line"/>
      <point x="767" y="1191" type="line"/>
    </contour>
    <contour>
      <point x="-12" y="1143" type="line"/>
      <point x="1120" y="1143" type="line"/>
      <point x="1120" y="1247" type="line"/>
      <point x="-12" y="1247" type="line"/>
    </contour>
  </outline>
</glyph>
<glyph name="na-deva" format="2">
  <advance width="1040"/>
  <unicode hex="0928"/>
  <anchor x="763" y="28" name="bottom"/>
  <anchor x="479" y="1168" name="candra"/>
  <anchor x="236" y="44" name="nukta"/>
  <anchor x="763" y="1168" name="top"/>
  <outline>
    <contour>
      <point x="700" y="0" type="line"/>
      <point x="826" y="0" type="line"/>
      <point x="826" y="1191" type="line"/>
      <point x="700" y="1191" type="line"/>
    </contour>
    <contour>
      <point x="186" y="437" type="line"/>
      <point x="282" y="437"/>
      <point x="300" y="499"/>
      <point x="300" y="575" type="curve" smooth="yes"/>
      <point x="300" y="750" type="line"/>
      <point x="50" y="750" type="line"/>
      <point x="50" y="638" type="line"/>
    </contour>
    <contour>
      <point x="186" y="639" type="line"/>
      <point x="748" y="639" type="line"/>
      <point x="748" y="751" type="line"/>
      <point x="186" y="750" type="line"/>
    </contour>
    <contour>
      <point x="-12" y="1143" type="line"/>
      <point x="1053" y="1143" type="line"/>
      <point x="1053" y="1247" type="line"/>
      <point x="-12" y="1247" type="line"/>
    </contour>
  </outline>
</glyph>
<glyph name="pa-deva" format="2">
  <advance width="1165"/>
  <unicode hex="092A"/>
  <anchor x="889" y="28" name="bottom"/>
  <anchor x="569" y="1168" name="candra"/>
  <anchor x="335" y="128" name="nukta"/>
  <anchor x="894" y="1166" name="top"/>
  <outline>
    <contour>
      <point x="850" y="623" type="line"/>
      <point x="752" y="490"/>
      <point x="629" y="431"/>
      <point x="516" y="430" type="curve" smooth="yes"/>
      <point x="343" y="429"/>
      <point x="291" y="519"/>
      <point x="291" y="667" type="curve" smooth="yes"/>
      <point x="291" y="1178" type="line"/>
      <point x="164" y="1178" type="line"/>
      <point x="164" y="685" type="line" smooth="yes"/>
      <point x="164" y="441"/>
      <point x="275" y="317"/>
      <point x="510" y="317" type="curve" smooth="yes"/>
      <point x="630" y="317"/>
      <point x="776" y="375"/>
      <point x="866" y="490" type="curve"/>
    </contour>
    <contour>
      <point x="825" y="0" type="line"/>
      <point x="951" y="0" type="line"/>
      <point x="951" y="1191" type="line"/>
      <point x="825" y="1191" type="line"/>
    </contour>
    <contour>
      <point x="-13" y="1143" type="line"/>
      <point x="1178" y="1143" type="line"/>
      <point x="1178" y="1247" type="line"/>
      <point x="-13" y="1247" type="line"/>
    </contour>
  </outline>
</glyph>
<glyph name="la-deva" format="2">
  <advance width="1404"/>
  <unicode hex="0932"/>
  <anchor x="1127" y="28" name="bottom"/>
  <anchor x="708" y="1168" name="candra"/>
  <anchor x="81" y="44" name="nukta"/>
  <anchor x="1127" y="1168" name="top"/>
  <outline>
    <contour>
      <point x="446" y="54" type="line"/>
      <point x="335" y="194"/>
      <point x="208" y="393"/>
      <point x="208" y="587" type="curve" smooth="yes"/>
      <point x="208" y="745"/>
      <point x="294" y="800"/>
      <point x="398" y="800" type="curve" smooth="yes"/>
      <point x="519" y="800"/>
      <point x="592" y="720"/>
      <point x="648" y="598" type="curve"/>
      <point x="687" y="687" type="line"/>
      <point x="613" y="857"/>
      <point x="511" y="920"/>
      <point x="375" y="920" type="curve" smooth="yes"/>
      <point x="192" y="920"/>
      <point x="82" y="809"/>
      <point x="82" y="608" type="curve" smooth="yes"/>
      <point x="82" y="352"/>
      <point x="255" y="93"/>
      <point x="350" y="-21" type="curve"/>
    </contour>
    <contour>
      <point x="716" y="491" type="line"/>
      <point x="713" y="514"/>
      <point x="711" y="535"/>
      <point x="711" y="557" type="curve" smooth="yes"/>
      <point x="711" y="708"/>
      <point x="793" y="794"/>
      <point x="914" y="794" type="curve" smooth="yes"/>
      <point x="1009" y="794"/>
      <point x="1065" y="749"/>
      <point x="1098" y="690" type="curve"/>
      <point x="1114" y="777" type="line"/>
      <point x="1078" y="865"/>
      <point x="979" y="911"/>
      <point x="893" y="911" type="curve" smooth="yes"/>
      <point x="739" y="911"/>
      <point x="587" y="794"/>
      <point x="587" y="574" type="curve" smooth="yes"/>
      <point x="587" y="544"/>
      <point x="590" y="510"/>
      <point x="599" y="475" type="curve"/>
    </contour>
    <contour>
      <point x="1064" y="0" type="line"/>
      <point x="1190" y="0" type="line"/>
      <point x="1190" y="1190" type="line"/>
      <point x="1064" y="1190" type="line"/>
    </contour>
    <contour>
      <point x="-12" y="1143" type="line"/>
      <point x="1417" y="1143" type="line"/>
      <point x="1417" y="1247" type="line"/>
      <point x="-12" y="1247" type="line"/>
    </contour>
  </outline>
</glyph>
<glyph name="ssa-deva" format="2">
  <advance width="1158"/>
  <unicode hex="0937"/>
  <anchor x="882" y="28" name="bottom"/>
  <anchor x="580" y="1168" name="candra"/>
  <anchor x="324" y="44" name="nukta"/>
  <anchor x="882" y="1168" name="top"/>
  <outline>
    <contour>
      <point x="855" y="606" type="line"/>
      <point x="757" y="473"/>
      <point x="622" y="412"/>
      <point x="510" y="411" type="curve" smooth="yes"/>
      <point x="340" y="410"/>
      <point x="288" y="498"/>
      <point x="288" y="662" type="curve" smooth="yes"/>
      <point x="288" y="1172" type="line"/>
      <point x="165" y="1172" type="line"/>
      <point x="165" y="665" type="line" smooth="yes"/>
      <point x="165" y="421"/>
      <point x="276" y="297"/>
      <point x="503" y="297" type="curve" smooth="yes"/>
      <point x="623" y="297"/>
      <point x="770" y="355"/>
      <point x="860" y="470" type="curve"/>
    </contour>
    <contour>
      <point x="843" y="476" type="line"/>
      <point x="913" y="545" type="line"/>
      <point x="272" y="1197" type="line"/>
      <point x="202" y="1128" type="line"/>
    </contour>
    <contour>
      <point x="818" y="0" type="line"/>
      <point x="944" y="0" type="line"/>
      <point x="944" y="1191" type="line"/>
      <point x="818" y="1191" type="line"/>
    </contour>
    <contour>
      <point x="-12" y="1143" type="line"/>
      <point x="1171" y="1143" type="line"/>
      <point x="1171" y="1247" type="line"/>
      <point x="-12" y="1247" type="line"/>
    </contour>
  </outline>
</glyph>
<glyph name="sa-deva" format="2">
  <advance width="1302"/>
  <unicode hex="0938"/>
  <anchor x="1025" y="28" name="bottom"/>
  <anchor x="735" y="1168" name="candra"/>
  <anchor x="188" y="44" name="nukta"/>
  <anchor x="1025" y="1168" name="top"/>
  <outline>
    <contour>
      <point x="487" y="-23" type="line"/>
      <point x="586" y="51" type="line"/>
      <point x="173" y="622" type="line"/>
      <point x="153" y="603" type="line"/>
      <point x="175" y="575"/>
      <point x="219" y="545"/>
      <point x="278" y="545" type="curve" smooth="yes"/>
      <point x="410" y="545"/>
      <point x="487" y="621"/>
      <point x="487" y="801" type="curve" smooth="yes"/>
      <point x="487" y="1191" type="line"/>
      <point x="361" y="1190" type="line"/>
      <point x="361" y="795" type="line" smooth="yes"/>
      <point x="361" y="694"/>
      <point x="334" y="644"/>
      <point x="246" y="644" type="curve" smooth="yes"/>
      <point x="198" y="644"/>
      <point x="160" y="666"/>
      <point x="123" y="695" type="curve"/>
      <point x="45" y="630" type="line"/>
    </contour>
    <contour>
      <point x="997" y="688" type="line"/>
      <point x="922" y="658"/>
      <point x="827" y="642"/>
      <point x="732" y="642" type="curve" smooth="yes"/>
      <point x="619" y="642"/>
      <point x="506" y="660"/>
      <point x="428" y="690" type="curve"/>
      <point x="384" y="600" type="line"/>
      <point x="490" y="553"/>
      <point x="610" y="530"/>
      <point x="737" y="530" type="curve" smooth="yes"/>
      <point x="830" y="530"/>
      <point x="921" y="542"/>
      <point x="997" y="568" type="curve"/>
    </contour>
    <contour>
      <point x="962" y="0" type="line"/>
      <point x="1088" y="0" type="line"/>
      <point x="1088" y="1172" type="line"/>
      <point x="962" y="1172" type="line"/>
    </contour>
    <contour>
      <point x="-12" y="1143" type="line"/>
      <point x="1315" y="1143" type="line"/>
      <point x="1315" y="1247" type="line"/>
      <point x="-12" y="1247" type="line"/>
    </contour>
  </outline>
</glyph>
<glyph name="nukta-deva" format="2">
  <unicode hex="093C"/>
  <anchor x="277" y="28" name="_nukta"/>
  <outline>
    <contour>
      <point x="277" y="109" type="curve" smooth="yes"/>
      <point x="220" y="109"/>
      <point x="195" y="85"/>
      <point x="195" y="28" type="curve" smooth="yes"/>
      <point x="195" y="-28"/>
      <point x="220" y="-52"/>
      <point x="277" y="-52" type="curve" smooth="yes"/>
      <point x="334" y="-52"/>
      <point x="358" y="-28"/>
      <point x="358" y="28" type="curve" smooth="yes"/>
      <point x="358" y="85"/>
      <point x="334" y="109"/>
    </contour>
  </outline>
</glyph>
<glyph name="aaMatra-deva" format="2">
  <advance width="554"/>
  <unicode hex="093E"/>
  <anchor x="277" y="28" name="bottom"/>
  <anchor x="276" y="1167" name="candra"/>
  <anchor x="277" y="1168" name="top"/>
  <outline>
    <contour>
      <point x="214" y="0" type="line"/>
      <point x="341" y="0" type="line"/>
      <point x="341" y="1193" type="line"/>
      <point x="214" y="1193" type="line"/>
    </contour>
    <contour>
      <point x="-12" y="1143" type="line"/>
      <point x="567" y="1143" type="line"/>
      <point x="567" y="1247" type="line"/>
      <point x="-12" y="1247" type="line"/>
    </contour>
  </outline>
</glyph>
<glyph name="iMatra-deva" format="2">
  <advance width="553"/>
  <unicode hex="093F"/>
  <anchor x="1312" y="1467" name="candra"/>
  <anchor x="1459" y="1408" name="imatra"/>
  <anchor x="1432" y="1370" name="top"/>
  <outline>
    <contour>
      <point x="366" y="1196" type="line"/>
      <point x="259" y="1328"/>
      <point x="233" y="1398"/>
      <point x="233" y="1467" type="curve" smooth="yes"/>
      <point x="233" y="1588"/>
      <point x="309" y="1652"/>
      <point x="501" y="1652" type="curve" smooth="yes"/>
      <point x="792" y="1652"/>
      <point x="1097" y="1545"/>
      <point x="1409" y="1334" type="curve"/>
      <point x="1459" y="1408" type="line"/>
      <point x="1146" y="1640"/>
      <point x="797" y="1765"/>
      <point x="487" y="1765" type="curve" smooth="yes"/>
      <point x="244" y="1765"/>
      <point x="106" y="1679"/>
      <point x="106" y="1492" type="curve" smooth="yes"/>
      <point x="106" y="1396"/>
      <point x="143" y="1302"/>
      <point x="258" y="1194" type="curve"/>
    </contour>
    <contour>
      <point x="214" y="0" type="line"/>
      <point x="340" y="0" type="line"/>
      <point x="340" y="1189" type="line"/>
      <point x="214" y="1189" type="line"/>
    </contour>
    <contour>
      <point x="-12" y="1143" type="line"/>
      <point x="570" y="1143" type="line"/>
      <point x="570" y="1247" type="line"/>
      <point x="-12" y="1247" type="line"/>
    </contour>
  </outline>
</glyph>
<glyph name="iiMatra-deva" format="2">
  <advance width="568"/>
  <unicode hex="0940"/>
  <anchor x="545" y="1204" name="candra"/>
  <anchor x="-235" y="1168" name="iimatra"/>
  <anchor x="385" y="1172" name="top"/>
  <outline>
    <contour>
      <point x="337" y="1209" type="line"/>
      <point x="242" y="1560"/>
      <point x="26" y="1766"/>
      <point x="-198" y="1766" type="curve" smooth="yes"/>
      <point x="-355" y="1766"/>
      <point x="-406" y="1659"/>
      <point x="-406" y="1569" type="curve" smooth="yes"/>
      <point x="-405" y="1484"/>
      <point x="-358" y="1392"/>
      <point x="-277" y="1335" type="curve"/>
      <point x="-220" y="1398" type="line"/>
      <point x="-268" y="1440"/>
      <point x="-300" y="1493"/>
      <point x="-300" y="1550" type="curve" smooth="yes"/>
      <point x="-301" y="1617"/>
      <point x="-261" y="1658"/>
      <point x="-185" y="1658" type="curve" smooth="yes"/>
      <point x="-14" y="1658"/>
      <point x="183" y="1434"/>
      <point x="256" y="1155" type="curve"/>
    </contour>
    <contour>
      <point x="221" y="0" type="line"/>
      <point x="347" y="0" type="line"/>
      <point x="347" y="1204" type="line"/>
      <point x="221" y="1204" type="line"/>
    </contour>
    <contour>
      <point x="-12" y="1143" type="line"/>
      <point x="581" y="1143" type="line"/>
      <point x="581" y="1247" type="line"/>
      <point x="-12" y="1247" type="line"/>
    </contour>
  </outline>
</glyph>
<glyph name="rrVocalicMatra-deva" format="2">
  <unicode hex="0944"/>
  <anchor x="277" y="28" name="_bottom"/>
  <outline>
    <contour>
      <point x="556" y="-521" type="line"/>
      <point x="494" y="-570"/>
      <point x="404" y="-600"/>
      <point x="327" y="-600" type="curve" smooth="yes"/>
      <point x="234" y="-600"/>
      <point x="191" y="-559"/>
      <point x="191" y="-485" type="curve" smooth="yes"/>
      <point x="191" y="-405"/>
      <point x="253" y="-363"/>
      <point x="412" y="-346" type="curve"/>
      <point x="402" y="-254" type="line"/>
      <point x="140" y="-272"/>
      <point x="75" y="-382"/>
      <point x="75" y="-481" type="curve" smooth="yes"/>
      <point x="75" y="-605"/>
      <point x="166" y="-701"/>
      <point x="323" y="-701" type="curve" smooth="yes"/>
      <point x="430" y="-701"/>
      <point x="533" y="-663"/>
      <point x="604" y="-609" type="curve"/>
    </contour>
    <contour>
      <point x="324" y="-282" type="line"/>
      <point x="177" y="-261"/>
      <point x="127" y="-203"/>
      <point x="127" y="-133" type="curve" smooth="yes"/>
      <point x="127" y="-50"/>
      <point x="183" y="-2"/>
      <point x="341" y="-5" type="curve"/>
      <point x="341" y="95" type="line"/>
      <point x="331" y="96"/>
      <point x="329" y="97"/>
      <point x="319" y="97" type="curve" smooth="yes"/>
      <point x="170" y="97"/>
      <point x="7" y="27"/>
      <point x="7" y="-118" type="curve" smooth="yes"/>
      <point x="7" y="-187"/>
      <point x="25" y="-310"/>
      <point x="273" y="-334" type="curve"/>
    </contour>
  </outline>
</glyph>
<glyph name="eCandraMatra-deva" format="2">
  <unicode hex="0945"/>
  <anchor x="272" y="1168" name="_candra"/>
  <anchor x="275" y="1458" name="candra"/>
  <outline>
    <contour>
      <point x="498" y="1611" type="line"/>
      <point x="456" y="1546"/>
      <point x="393" y="1481"/>
      <point x="276" y="1481" type="curve" smooth="yes"/>
      <point x="163" y="1481"/>
      <point x="99" y="1538"/>
      <point x="54" y="1609" type="curve"/>
      <point x="-26" y="1559" type="line"/>
      <point x="21" y="1462"/>
      <point x="116" y="1371"/>
      <point x="275" y="1371" type="curve" smooth="yes"/>
      <point x="410" y="1371"/>
      <point x="513" y="1440"/>
      <point x="575" y="1564" type="curve"/>
    </contour>
  </outline>
</glyph>
<glyph name="aiMatra-deva" format="2">
  <unicode hex="0948"/>
  <anchor x="256" y="1168" name="_top"/>
  <anchor x="477" y="1346" name="candra"/>
  <anchor x="348" y="1346" name="top"/>
  <outline>
    <contour>
      <point x="308" y="1206" type="line"/>
      <point x="204" y="1668"/>
      <point x="61" y="1779"/>
      <point x="-228" y="1779" type="curve" smooth="yes"/>
      <point x="-296" y="1779"/>
      <point x="-343" y="1771"/>
      <point x="-394" y="1762" type="curve"/>
      <point x="-373" y="1661" type="line"/>
      <point x="-320" y="1671"/>
      <point x="-274" y="1677"/>
      <point x="-219" y="1677" type="curve" smooth="yes"/>
      <point x="-30" y="1677"/>
      <point x="94" y="1626"/>
      <point x="211" y="1301" type="curve"/>
      <point x="239" y="1305" type="line"/>
      <point x="93" y="1474"/>
      <point x="35" y="1525"/>
      <point x="-147" y="1527" type="curve" smooth="yes"/>
      <point x="-226" y="1528"/>
      <point x="-286" y="1519"/>
      <point x="-345" y="1508" type="curve"/>
      <point x="-323" y="1414" type="line"/>
      <point x="-258" y="1425"/>
      <point x="-199" y="1431"/>
      <point x="-135" y="1431" type="curve" smooth="yes"/>
      <point x="48" y="1431"/>
      <point x="121" y="1350"/>
      <point x="244" y="1183" type="curve"/>
    </contour>
  </outline>
</glyph>
<glyph name="prishthaMatraE-deva" format="2">
  <advance width="569"/>
  <unicode hex="094E"/>
  <anchor x="285" y="28" name="bottom"/>
  <anchor x="285" y="1168" name="top"/>
  <outline>
    <contour>
      <point x="221" y="0" type="line"/>
      <point x="348" y="0" type="line"/>
      <point x="348" y="1193" type="line"/>
      <point x="221" y="1193" type="line"/>
    </contour>
    <contour>
      <point x="221" y="1143" type="line"/>
      <point x="581" y="1143" type="line"/>
      <point x="581" y="1247" type="line"/>
      <point x="221" y="1247" type="line"/>
    </contour>
  </outline>
</glyph>
<glyph name="awMatra-deva" format="2">
  <advance width="554"/>
  <unicode hex="094F"/>
  <anchor x="277" y="28" name="bottom"/>
  <anchor x="276" y="1167" name="candra"/>
  <anchor x="277" y="1168" name="top"/>
  <outline>
    <contour>
      <point x="268" y="1085" type="line"/>
      <point x="279" y="1131"/>
      <point x="287" y="1173"/>
      <point x="287" y="1210" type="curve" smooth="yes"/>
      <point x="287" y="1347"/>
      <point x="207" y="1388"/>
      <point x="24" y="1416" type="curve" smooth="yes"/>
      <point x="-195" y="1450" type="line" smooth="yes"/>
      <point x="-347" y="1472"/>
      <point x="-386" y="1534"/>
      <point x="-387" y="1602" type="curve" smooth="yes"/>
      <point x="-387" y="1615"/>
      <point x="-386" y="1628"/>
      <point x="-383" y="1641" type="curve"/>
      <point x="-451" y="1655" type="line"/>
      <point x="-465" y="1624"/>
      <point x="-471" y="1593"/>
      <point x="-471" y="1563" type="curve" smooth="yes"/>
      <point x="-471" y="1463"/>
      <point x="-399" y="1375"/>
      <point x="-239" y="1353" type="curve" smooth="yes"/>
      <point x="18" y="1318" type="line" smooth="yes"/>
      <point x="182" y="1293"/>
      <point x="220" y="1277"/>
      <point x="220" y="1171" type="curve" smooth="yes"/>
      <point x="220" y="1151"/>
      <point x="219" y="1126"/>
      <point x="217" y="1100" type="curve"/>
    </contour>
    <contour>
      <point x="310" y="1193" type="line"/>
      <point x="348" y="1265"/>
      <point x="363" y="1326"/>
      <point x="363" y="1375" type="curve" smooth="yes"/>
      <point x="363" y="1503"/>
      <point x="269" y="1571"/>
      <point x="88" y="1604" type="curve" smooth="yes"/>
      <point x="-70" y="1632" type="line" smooth="yes"/>
      <point x="-220" y="1660"/>
      <point x="-260" y="1697"/>
      <point x="-261" y="1749" type="curve" smooth="yes"/>
      <point x="-261" y="1759"/>
      <point x="-261" y="1769"/>
      <point x="-259" y="1780" type="curve"/>
      <point x="-319" y="1792" type="line"/>
      <point x="-338" y="1766"/>
      <point x="-347" y="1738"/>
      <point x="-347" y="1711" type="curve" smooth="yes"/>
      <point x="-347" y="1637"/>
      <point x="-284" y="1570"/>
      <point x="-164" y="1547" type="curve" smooth="yes"/>
      <point x="53" y="1506" type="line" smooth="yes"/>
      <point x="209" y="1475"/>
      <point x="275" y="1436"/>
      <point x="275" y="1337" type="curve" smooth="yes"/>
      <point x="275" y="1312"/>
      <point x="272" y="1271"/>
      <point x="254" y="1216" type="curve"/>
    </contour>
    <component base="aaMatra-deva"/>
  </outline>
</glyph>
<glyph name="udatta-deva" format="2">
  <unicode hex="0951"/>
  <anchor x="270" y="1168" name="_top"/>
  <outline>
    <contour>
      <point x="224" y="1411" type="line"/>
      <point x="316" y="1411" type="line"/>
      <point x="316" y="1819" type="line"/>
      <point x="224" y="1819" type="line"/>
    </contour>
  </outline>
</glyph>
<glyph name="anudatta-deva" format="2">
  <unicode hex="0952"/>
  <outline>
    <contour>
      <point x="-824" y="-425" type="line"/>
      <point x="-134" y="-425" type="line"/>
      <point x="-134" y="-324" type="line"/>
      <point x="-824" y="-324" type="line"/>
    </contour>
  </outline>
</glyph>
<glyph name="acute-deva" format="2">
  <unicode hex="0954"/>
  <outline>
    <contour>
      <point x="-265" y="1320" type="line"/>
      <point x="135" y="1692" type="line"/>
      <point x="54" y="1765" type="line"/>
      <point x="-327" y="1388" type="line"/>
    </contour>
  </outline>
</glyph>
<glyph name="ueMatra-deva" format="2">
  <unicode hex="0956"/>
  <anchor x="408" y="130" name="_bottom"/>
  <outline>
    <contour>
      <point x="496" y="68" type="line"/>
      <point x="454" y="2"/>
      <point x="386" y="-62"/>
      <point x="268" y="-62" type="curve" smooth="yes"/>
      <point x="146" y="-62"/>
      <point x="81" y="-6"/>
      <point x="36" y="66" type="curve"/>
      <point x="-30" y="18" type="line"/>
      <point x="17" y="-79"/>
      <point x="115" y="-173"/>
      <point x="273" y="-173" type="curve" smooth="yes"/>
      <point x="408" y="-173"/>
      <point x="512" y="-103"/>
      <point x="573" y="21" type="curve"/>
    </contour>
  </outline>
</glyph>
<glyph name="llVocalic-deva" format="2">
  <advance width="1307"/>
  <unicode hex="0961"/>
  <anchor x="675" y="29" name="bottom"/>
  <anchor x="642" y="1167" name="candra"/>
  <anchor x="983" y="1168" name="top"/>
  <outline>
    <contour>
      <point x="1318" y="1247" type="line"/>
      <point x="-12" y="1247" type="line"/>
      <point x="-12" y="1143" type="line"/>
      <point x="1318" y="1143" type="line"/>
    </contour>
    <contour>
      <point x="1047" y="1191" type="line"/>
      <point x="920" y="1191" type="line"/>
      <point x="920" y="868" type="line"/>
      <point x="1047" y="868" type="line"/>
    </contour>
    <contour>
      <point x="412" y="107" type="line"/>
      <point x="315" y="231"/>
      <point x="200" y="406"/>
      <point x="200" y="592" type="curve" smooth="yes"/>
      <point x="200" y="745"/>
      <point x="286" y="801"/>
      <point x="385" y="801" type="curve" smooth="yes"/>
      <point x="506" y="801"/>
      <point x="579" y="721"/>
      <point x="636" y="591" type="curve"/>
      <point x="674" y="687" type="line"/>
      <point x="599" y="857"/>
      <point x="498" y="920"/>
      <point x="362" y="920" type="curve" smooth="yes"/>
      <point x="184" y="920"/>
      <point x="74" y="809"/>
      <point x="74" y="608" type="curve" smooth="yes"/>
      <point x="74" y="352"/>
      <point x="235" y="131"/>
      <point x="316" y="31" type="curve"/>
    </contour>
    <contour>
      <point x="734" y="496" type="line"/>
      <point x="731" y="519"/>
      <point x="729" y="540"/>
      <point x="729" y="562" type="curve" smooth="yes"/>
      <point x="729" y="713"/>
      <point x="811" y="799"/>
      <point x="925" y="799" type="curve" smooth="yes"/>
      <point x="1047" y="799"/>
      <point x="1111" y="714"/>
      <point x="1111" y="560" type="curve" smooth="yes"/>
      <point x="1111" y="535"/>
      <point x="1110" y="513"/>
      <point x="1107" y="488" type="curve"/>
      <point x="1140" y="521" type="line"/>
      <point x="984" y="518"/>
      <point x="819" y="448"/>
      <point x="821" y="297" type="curve" smooth="yes"/>
      <point x="821" y="207"/>
      <point x="872" y="93"/>
      <point x="1121" y="70" type="curve"/>
      <point x="1168" y="122" type="line"/>
      <point x="1011" y="145"/>
      <point x="945" y="206"/>
      <point x="945" y="284" type="curve" smooth="yes"/>
      <point x="945" y="376"/>
      <point x="1030" y="423"/>
      <point x="1217" y="428" type="curve"/>
      <point x="1226" y="479"/>
      <point x="1230" y="533"/>
      <point x="1230" y="565" type="curve" smooth="yes"/>
      <point x="1230" y="789"/>
      <point x="1123" y="917"/>
      <point x="920" y="917" type="curve" smooth="yes"/>
      <point x="757" y="917"/>
      <point x="605" y="799"/>
      <point x="605" y="580" type="curve" smooth="yes"/>
      <point x="605" y="549"/>
      <point x="608" y="515"/>
      <point x="617" y="480" type="curve"/>
    </contour>
    <contour>
      <point x="1242" y="158" type="line"/>
      <point x="962" y="139"/>
      <point x="894" y="21"/>
      <point x="894" y="-79" type="curve" smooth="yes"/>
      <point x="894" y="-211"/>
      <point x="991" y="-312"/>
      <point x="1163" y="-311" type="curve" smooth="yes"/>
      <point x="1276" y="-310"/>
      <point x="1385" y="-271"/>
      <point x="1460" y="-213" type="curve"/>
      <point x="1411" y="-123" type="line"/>
      <point x="1344" y="-175"/>
      <point x="1249" y="-208"/>
      <point x="1165" y="-208" type="curve" smooth="yes"/>
      <point x="1061" y="-209"/>
      <point x="1013" y="-164"/>
      <point x="1013" y="-83" type="curve" smooth="yes"/>
      <point x="1013" y="-1"/>
      <point x="1081" y="46"/>
      <point x="1253" y="64" type="curve"/>
    </contour>
  </outline>
</glyph>
<glyph name="llVocalicMatra-deva" format="2">
  <unicode hex="0963"/>
  <anchor x="277" y="28" name="_bottom"/>
  <outline>
    <contour>
      <point x="621" y="-446" type="line"/>
      <point x="709" y="-352"/>
      <point x="756" y="-242"/>
      <point x="756" y="-133" type="curve" smooth="yes"/>
      <point x="756" y="31"/>
      <point x="664" y="139"/>
      <point x="501" y="139" type="curve" smooth="yes"/>
      <point x="364" y="139"/>
      <point x="236" y="40"/>
      <point x="236" y="-141" type="curve" smooth="yes"/>
      <point x="236" y="-170"/>
      <point x="239" y="-197"/>
      <point x="246" y="-227" type="curve"/>
      <point x="349" y="-214" type="line"/>
      <point x="347" y="-194"/>
      <point x="345" y="-176"/>
      <point x="345" y="-157" type="curve" smooth="yes"/>
      <point x="345" y="-34"/>
      <point x="412" y="35"/>
      <point x="505" y="35" type="curve" smooth="yes"/>
      <point x="595" y="35"/>
      <point x="647" y="-32"/>
      <point x="647" y="-137" type="curve" smooth="yes"/>
      <point x="647" y="-220"/>
      <point x="609" y="-309"/>
      <point x="540" y="-384" type="curve"/>
      <point x="541" y="-389" type="line"/>
    </contour>
    <contour>
      <point x="794" y="-907" type="line"/>
      <point x="737" y="-953"/>
      <point x="655" y="-980"/>
      <point x="586" y="-980" type="curve" smooth="yes"/>
      <point x="504" y="-980"/>
      <point x="465" y="-944"/>
      <point x="465" y="-878" type="curve" smooth="yes"/>
      <point x="465" y="-807"/>
      <point x="522" y="-770"/>
      <point x="666" y="-754" type="curve"/>
      <point x="656" y="-668" type="line"/>
      <point x="416" y="-684"/>
      <point x="357" y="-784"/>
      <point x="357" y="-874" type="curve" smooth="yes"/>
      <point x="357" y="-988"/>
      <point x="439" y="-1075"/>
      <point x="583" y="-1075" type="curve" smooth="yes"/>
      <point x="679" y="-1075"/>
      <point x="774" y="-1040"/>
      <point x="839" y="-990" type="curve"/>
    </contour>
    <contour>
      <point x="-52" y="-458" type="line"/>
      <point x="30" y="-397" type="line"/>
      <point x="-34" y="-315"/>
      <point x="-89" y="-232"/>
      <point x="-89" y="-126" type="curve" smooth="yes"/>
      <point x="-89" y="-8"/>
      <point x="-22" y="37"/>
      <point x="58" y="37" type="curve" smooth="yes"/>
      <point x="152" y="37"/>
      <point x="216" y="-32"/>
      <point x="271" y="-142" type="curve"/>
      <point x="299" y="-57" type="line"/>
      <point x="235" y="86"/>
      <point x="149" y="141"/>
      <point x="40" y="141" type="curve" smooth="yes"/>
      <point x="-109" y="141"/>
      <point x="-201" y="48"/>
      <point x="-201" y="-115" type="curve" smooth="yes"/>
      <point x="-201" y="-251"/>
      <point x="-131" y="-366"/>
      <point x="-56" y="-458" type="curve"/>
    </contour>
    <contour>
      <point x="586" y="-694" type="line"/>
      <point x="453" y="-675"/>
      <point x="407" y="-623"/>
      <point x="407" y="-561" type="curve" smooth="yes"/>
      <point x="407" y="-488"/>
      <point x="479" y="-448"/>
      <point x="623" y="-446" type="curve"/>
      <point x="623" y="-353" type="line"/>
      <point x="594" y="-352"/>
      <point x="588" y="-352"/>
      <point x="578" y="-352" type="curve" smooth="yes"/>
      <point x="443" y="-352"/>
      <point x="295" y="-415"/>
      <point x="295" y="-548" type="curve" smooth="yes"/>
      <point x="295" y="-609"/>
      <point x="311" y="-721"/>
      <point x="538" y="-741" type="curve"/>
    </contour>
  </outline>
</glyph>
<glyph name="four-deva" format="2">
  <advance width="959"/>
  <unicode hex="096A"/>
  <outline>
    <contour>
      <point x="3" y="1102" type="line"/>
      <point x="241" y="1005"/>
      <point x="667" y="739"/>
      <point x="667" y="430" type="curve" smooth="yes"/>
      <point x="667" y="316"/>
      <point x="619" y="228"/>
      <point x="479" y="231" type="curve" smooth="yes"/>
      <point x="366" y="232"/>
      <point x="295" y="287"/>
      <point x="295" y="439" type="curve" smooth="yes"/>
      <point x="295" y="745"/>
      <point x="639" y="919"/>
      <point x="901" y="996" type="curve"/>
      <point x="857" y="1101" type="line"/>
      <point x="653" y="1042"/>
      <point x="172" y="829"/>
      <point x="172" y="437" type="curve" smooth="yes"/>
      <point x="172" y="224"/>
      <point x="297" y="119"/>
      <point x="479" y="119" type="curve" smooth="yes"/>
      <point x="692" y="119"/>
      <point x="784" y="255"/>
      <point x="786" y="423" type="curve" smooth="yes"/>
      <point x="789" y="794"/>
      <point x="310" y="1096"/>
      <point x="52" y="1197" type="curve"/>
    </contour>
  </outline>
</glyph>
<glyph name="eight-deva" format="2">
  <advance width="815"/>
  <unicode hex="096E"/>
  <outline>
    <contour>
      <point x="765" y="218" type="line"/>
      <point x="678" y="181"/>
      <point x="583" y="161"/>
      <point x="507" y="161" type="curve" smooth="yes"/>
      <point x="323" y="162"/>
      <point x="221" y="272"/>
      <point x="221" y="445" type="curve" smooth="yes"/>
      <point x="221" y="676"/>
      <point x="386" y="890"/>
      <point x="723" y="1201" type="curve"/>
      <point x="634" y="1280" type="line"/>
      <point x="292" y="973"/>
      <point x="92" y="703"/>
      <point x="92" y="453" type="curve" smooth="yes"/>
      <point x="91" y="272"/>
      <point x="193" y="45"/>
      <point x="503" y="43" type="curve" smooth="yes"/>
      <point x="611" y="43"/>
      <point x="735" y="72"/>
      <point x="802" y="111" type="curve"/>
    </contour>
  </outline>
</glyph>
<glyph name="oe-deva" format="2">
  <advance width="1386"/>
  <unicode hex="0973"/>
  <anchor x="1102" y="28" name="bottom"/>
  <anchor x="1100" y="1247" name="candra"/>
  <anchor x="1095" y="1168" name="top"/>
  <outline>
    <contour>
      <point x="1040" y="1113" type="line"/>
      <point x="1165" y="1113" type="line"/>
      <point x="1165" y="1469" type="line"/>
      <point x="1040" y="1469" type="line"/>
    </contour>
    <component base="a-deva"/>
  </outline>
</glyph>
<glyph name="ooe-deva" format="2">
  <advance width="1954"/>
  <unicode hex="0974"/>
  <anchor x="1658" y="28" name="bottom"/>
  <anchor x="1391" y="1172" name="candra"/>
  <anchor x="1657" y="1168" name="top"/>
  <outline>
    <contour>
      <point x="1595" y="1113" type="line"/>
      <point x="1720" y="1113" type="line"/>
      <point x="1720" y="1469" type="line"/>
      <point x="1595" y="1469" type="line"/>
    </contour>
    <component base="aa-deva"/>
  </outline>
</glyph>
<glyph name="ue-deva" format="2">
  <advance width="1386"/>
  <unicode hex="0976"/>
  <anchor x="1102" y="28" name="bottom"/>
  <anchor x="1100" y="1247" name="candra"/>
  <anchor x="1095" y="1168" name="top"/>
  <outline>
    <contour>
      <point x="821" y="68" type="line"/>
      <point x="779" y="2"/>
      <point x="711" y="-62"/>
      <point x="593" y="-62" type="curve" smooth="yes"/>
      <point x="470" y="-62"/>
      <point x="406" y="-6"/>
      <point x="361" y="66" type="curve"/>
      <point x="295" y="18" type="line"/>
      <point x="342" y="-79"/>
      <point x="440" y="-173"/>
      <point x="598" y="-173" type="curve" smooth="yes"/>
      <point x="733" y="-173"/>
      <point x="837" y="-103"/>
      <point x="898" y="21" type="curve"/>
    </contour>
    <component base="a-deva"/>
  </outline>
</glyph>
<glyph name="jja-deva" format="2">
  <advance width="1418"/>
  <unicode hex="097C"/>
  <anchor x="1143" y="28" name="bottom"/>
  <anchor x="783" y="1168" name="candra"/>
  <anchor x="527" y="66" name="nukta"/>
  <anchor x="1145" y="1168" name="top"/>
  <outline>
    <contour>
      <point x="114" y="-52" type="line"/>
      <point x="1204" y="-52" type="line"/>
      <point x="1204" y="49" type="line"/>
      <point x="114" y="49" type="line"/>
    </contour>
    <component base="ja-deva"/>
  </outline>
</glyph>
<glyph name="ddda-deva" format="2">
  <advance width="986"/>
  <unicode hex="097E"/>
  <anchor x="520" y="-78" name="bottom"/>
  <anchor x="544" y="1168" name="candra"/>
  <anchor x="509" y="-153" name="nukta"/>
  <anchor x="728" y="1168" name="top"/>
  <outline>
    <contour>
      <point x="104" y="-262" type="line"/>
      <point x="903" y="-262" type="line"/>
      <point x="903" y="-161" type="line"/>
      <point x="104" y="-161" type="line"/>
    </contour>
    <component base="dda-deva"/>
  </outline>
</glyph>
<glyph name="d.sups" format="2">
  <advance width="760"/>
  <unicode hex="1D48"/>
  <outline>
    <contour>
      <point x="550" y="606" type="line"/>
      <point x="563" y="532" type="line"/>
      <point x="648" y="532" type="line"/>
      <point x="648" y="1496" type="line"/>
      <point x="542" y="1496" type="line"/>
      <point x="542" y="1244" type="line"/>
      <point x="548" y="1128" type="line"/>
      <point x="489" y="1176"/>
      <point x="431" y="1205"/>
      <point x="359" y="1205" type="curve" smooth="yes"/>
      <point x="209" y="1205"/>
      <point x="71" y="1076"/>
      <point x="71" y="872" type="curve" smooth="yes"/>
      <point x="71" y="644"/>
      <point x="177" y="516"/>
      <point x="351" y="516" type="curve" smooth="yes"/>
      <point x="430" y="516"/>
      <point x="488" y="558"/>
      <point x="543" y="606" type="curve"/>
    </contour>
    <contour>
      <point x="542" y="698" type="line"/>
      <point x="481" y="639"/>
      <point x="430" y="606"/>
      <point x="374" y="606" type="curve" smooth="yes"/>
      <point x="242" y="606"/>
      <point x="181" y="705"/>
      <point x="181" y="872" type="curve" smooth="yes"/>
      <point x="181" y="1015"/>
      <point x="268" y="1116"/>
      <point x="372" y="1116" type="curve" smooth="yes"/>
      <point x="425" y="1116"/>
      <point x="483" y="1095"/>
      <point x="542" y="1042" type="curve"/>
    </contour>
  </outline>
</glyph>
<glyph name="t.sups" format="2">
  <advance width="461"/>
  <unicode hex="1D57"/>
  <outline>
    <contour>
      <point x="424" y="621" type="line"/>
      <point x="399" y="611"/>
      <point x="372" y="604"/>
      <point x="346" y="604" type="curve" smooth="yes"/>
      <point x="271" y="604"/>
      <point x="241" y="653"/>
      <point x="241" y="735" type="curve" smooth="yes"/>
      <point x="241" y="1101" type="line"/>
      <point x="426" y="1101" type="line"/>
      <point x="426" y="1189" type="line"/>
      <point x="241" y="1189" type="line"/>
      <point x="241" y="1375" type="line"/>
      <point x="152" y="1375" type="line"/>
      <point x="137" y="1189" type="line"/>
      <point x="35" y="1183" type="line"/>
      <point x="35" y="1101" type="line"/>
      <point x="134" y="1101" type="line"/>
      <point x="134" y="739" type="line"/>
      <point x="134" y="607"/>
      <point x="181" y="516"/>
      <point x="322" y="516" type="curve" smooth="yes"/>
      <point x="363" y="516"/>
      <point x="412" y="528"/>
      <point x="448" y="541" type="curve"/>
    </contour>
  </outline>
</glyph>
<glyph name="c.sups" format="2">
  <advance width="623"/>
  <unicode hex="1D9C"/>
  <outline>
    <contour>
      <point x="543" y="665" type="line"/>
      <point x="503" y="632"/>
      <point x="457" y="606"/>
      <point x="384" y="606" type="curve" smooth="yes"/>
      <point x="260" y="606"/>
      <point x="172" y="710"/>
      <point x="172" y="860" type="curve" smooth="yes"/>
      <point x="172" y="1010"/>
      <point x="264" y="1116"/>
      <point x="383" y="1116" type="curve" smooth="yes"/>
      <point x="448" y="1116"/>
      <point x="482" y="1096"/>
      <point x="525" y="1061" type="curve"/>
      <point x="578" y="1132" type="line"/>
      <point x="536" y="1168"/>
      <point x="473" y="1205"/>
      <point x="379" y="1205" type="curve" smooth="yes"/>
      <point x="212" y="1205"/>
      <point x="64" y="1079"/>
      <point x="64" y="860" type="curve" smooth="yes"/>
      <point x="64" y="640"/>
      <point x="196" y="516"/>
      <point x="376" y="516" type="curve" smooth="yes"/>
      <point x="477" y="516"/>
      <point x="541" y="554"/>
      <point x="589" y="594" type="curve"/>
    </contour>
  </outline>
</glyph>
<glyph name="f.sups" format="2">
  <advance width="397"/>
  <unicode hex="1DA0"/>
  <outline>
    <contour>
      <point x="133" y="532" type="line"/>
      <point x="240" y="532" type="line"/>
      <point x="240" y="1103" type="line"/>
      <point x="384" y="1103" type="line"/>
      <point x="384" y="1189" type="line"/>
      <point x="240" y="1189" type="line"/>
      <point x="240" y="1297" type="line"/>
      <point x="240" y="1376"/>
      <point x="271" y="1429"/>
      <point x="334" y="1429" type="curve" smooth="yes"/>
      <point x="367" y="1429"/>
      <point x="392" y="1421"/>
      <point x="411" y="1414" type="curve"/>
      <point x="435" y="1495" type="line"/>
      <point x="399" y="1509"/>
      <point x="367" y="1517"/>
      <point x="325" y="1517" type="curve" smooth="yes"/>
      <point x="196" y="1517"/>
      <point x="133" y="1422"/>
      <point x="133" y="1289" type="curve" smooth="yes"/>
      <point x="133" y="1189" type="line"/>
      <point x="41" y="1183" type="line"/>
      <point x="41" y="1103" type="line"/>
      <point x="133" y="1103" type="line"/>
    </contour>
  </outline>
</glyph>
<glyph name="z.sups" format="2">
  <advance width="583"/>
  <unicode hex="1DBB"/>
  <outline>
    <contour>
      <point x="41" y="532" type="line"/>
      <point x="546" y="532" type="line"/>
      <point x="546" y="621" type="line"/>
      <point x="178" y="621" type="line"/>
      <point x="535" y="1127" type="line"/>
      <point x="535" y="1189" type="line"/>
      <point x="83" y="1189" type="line"/>
      <point x="83" y="1101" type="line"/>
      <point x="400" y="1101" type="line"/>
      <point x="41" y="591" type="line"/>
    </contour>
  </outline>
</glyph>
<glyph name="quoteleft" format="2">
  <advance width="485"/>
  <unicode hex="2018"/>
  <outline>
    <contour>
      <point x="317" y="1431" type="line"/>
      <point x="189" y="1353"/>
      <point x="106" y="1224"/>
      <point x="106" y="1068" type="curve" smooth="yes"/>
      <point x="106" y="961"/>
      <point x="161" y="903"/>
      <point x="231" y="903" type="curve" smooth="yes"/>
      <point x="287" y="903"/>
      <point x="328" y="941"/>
      <point x="328" y="1002" type="curve" smooth="yes"/>
      <point x="328" y="1064"/>
      <point x="280" y="1096"/>
      <point x="231" y="1096" type="curve" smooth="yes"/>
      <point x="225" y="1096"/>
      <point x="218" y="1096"/>
      <point x="213" y="1094" type="curve"/>
      <point x="213" y="1210"/>
      <point x="263" y="1295"/>
      <point x="361" y="1365" type="curve"/>
    </contour>
  </outline>
</glyph>
<glyph name="dagger" format="2">
  <advance width="901"/>
  <unicode hex="2020"/>
  <outline>
    <contour>
      <point x="391" y="-164" type="line"/>
      <point x="511" y="-164" type="line"/>
      <point x="503" y="1032" type="line"/>
      <point x="786" y="1024" type="line"/>
      <point x="786" y="1145" type="line"/>
      <point x="503" y="1136" type="line"/>
      <point x="511" y="1458" type="line"/>
      <point x="391" y="1458" type="line"/>
      <point x="399" y="1136" type="line"/>
      <point x="116" y="1145" type="line"/>
      <point x="116" y="1024" type="line"/>
      <point x="399" y="1032" type="line"/>
    </contour>
  </outline>
</glyph>
<glyph name="perthousand" format="2">
  <advance width="2418"/>
  <unicode hex="2030"/>
  <outline>
    <contour>
      <point x="405" y="-25" type="line"/>
      <point x="505" y="-25" type="line"/>
      <point x="1251" y="1370" type="line"/>
      <point x="1151" y="1370" type="line"/>
    </contour>
    <contour>
      <point x="375" y="522" type="curve" smooth="yes"/>
      <point x="555" y="522"/>
      <point x="673" y="677"/>
      <point x="673" y="948" type="curve" smooth="yes"/>
      <point x="673" y="1219"/>
      <point x="555" y="1370"/>
      <point x="375" y="1370" type="curve" smooth="yes"/>
      <point x="193" y="1370"/>
      <point x="76" y="1219"/>
      <point x="76" y="948" type="curve" smooth="yes"/>
      <point x="76" y="677"/>
      <point x="193" y="522"/>
    </contour>
    <contour>
      <point x="375" y="612" type="curve" smooth="yes"/>
      <point x="259" y="612"/>
      <point x="184" y="730"/>
      <point x="184" y="948" type="curve" smooth="yes"/>
      <point x="184" y="1169"/>
      <point x="259" y="1282"/>
      <point x="375" y="1282" type="curve" smooth="yes"/>
      <point x="488" y="1282"/>
      <point x="564" y="1169"/>
      <point x="564" y="948" type="curve" smooth="yes"/>
      <point x="564" y="730"/>
      <point x="488" y="612"/>
    </contour>
    <contour>
      <point x="1293" y="-25" type="curve" smooth="yes"/>
      <point x="1474" y="-25"/>
      <point x="1591" y="128"/>
      <point x="1591" y="401" type="curve" smooth="yes"/>
      <point x="1591" y="671"/>
      <point x="1474" y="823"/>
      <point x="1293" y="823" type="curve" smooth="yes"/>
      <point x="1112" y="823"/>
      <point x="994" y="671"/>
      <point x="994" y="401" type="curve" smooth="yes"/>
      <point x="994" y="128"/>
      <point x="1112" y="-25"/>
    </contour>
    <contour>
      <point x="1293" y="65" type="curve" smooth="yes"/>
      <point x="1179" y="65"/>
      <point x="1102" y="182"/>
      <point x="1102" y="401" type="curve" smooth="yes"/>
      <point x="1102" y="620"/>
      <point x="1179" y="734"/>
      <point x="1293" y="734" type="curve" smooth="yes"/>
      <point x="1407" y="734"/>
      <point x="1483" y="620"/>
      <point x="1483" y="401" type="curve" smooth="yes"/>
      <point x="1483" y="182"/>
      <point x="1407" y="65"/>
    </contour>
    <contour>
      <point x="2044" y="-25" type="curve" smooth="yes"/>
      <point x="2226" y="-25"/>
      <point x="2344" y="128"/>
      <point x="2344" y="401" type="curve" smooth="yes"/>
      <point x="2344" y="671"/>
      <point x="2226" y="823"/>
      <point x="2044" y="823" type="curve" smooth="yes"/>
      <point x="1863" y="823"/>
      <point x="1745" y="671"/>
      <point x="1745" y="401" type="curve" smooth="yes"/>
      <point x="1745" y="128"/>
      <point x="1863" y="-25"/>
    </contour>
    <contour>
      <point x="2044" y="65" type="curve" smooth="yes"/>
      <point x="1930" y="65"/>
      <point x="1854" y="182"/>
      <point x="1854" y="401" type="curve" smooth="yes"/>
      <point x="1854" y="620"/>
      <point x="1930" y="734"/>
      <point x="2044" y="734" type="curve" smooth="yes"/>
      <point x="2159" y="734"/>
      <point x="2235" y="620"/>
      <point x="2235" y="401" type="curve" smooth="yes"/>
      <point x="2235" y="182"/>
      <point x="2159" y="65"/>
    </contour>
  </outline>
</glyph>
<glyph name="minute" format="2">
  <advance width="485"/>
  <unicode hex="2032"/>
  <outline>
    <contour>
      <point x="167" y="928" type="line"/>
      <point x="256" y="928" type="line"/>
      <point x="320" y="1233" type="line"/>
      <point x="348" y="1415" type="line"/>
      <point x="214" y="1415" type="line"/>
    </contour>
  </outline>
</glyph>
<glyph name="second" format="2">
  <advance width="817"/>
  <unicode hex="2033"/>
  <outline>
    <contour>
      <point x="498" y="928" type="line"/>
      <point x="587" y="928" type="line"/>
      <point x="652" y="1233" type="line"/>
      <point x="679" y="1415" type="line"/>
      <point x="546" y="1415" type="line"/>
    </contour>
    <contour>
      <point x="167" y="928" type="line"/>
      <point x="256" y="928" type="line"/>
      <point x="320" y="1233" type="line"/>
      <point x="348" y="1415" type="line"/>
      <point x="214" y="1415" type="line"/>
    </contour>
  </outline>
</glyph>
<glyph name="guilsinglleft" format="2">
  <advance width="545"/>
  <unicode hex="2039"/>
  <outline>
    <contour>
      <point x="370" y="140" type="line"/>
      <point x="434" y="190" type="line"/>
      <point x="189" y="516" type="line"/>
      <point x="434" y="838" type="line"/>
      <point x="370" y="892" type="line"/>
      <point x="90" y="570" type="line"/>
      <point x="90" y="463" type="line"/>
    </contour>
  </outline>
</glyph>
<glyph name="fraction" format="2">
  <advance width="171"/>
  <unicode hex="2044"/>
  <outline>
    <contour>
      <point x="-300" y="-25" type="line"/>
      <point x="-200" y="-25" type="line"/>
      <point x="466" y="1370" type="line"/>
      <point x="366" y="1370" type="line"/>
    </contour>
  </outline>
</glyph>
<glyph name="zero.sups" format="2">
  <advance width="747"/>
  <unicode hex="2070"/>
  <outline>
    <contour>
      <point x="375" y="877" type="curve" smooth="yes"/>
      <point x="555" y="877"/>
      <point x="673" y="1029"/>
      <point x="673" y="1303" type="curve" smooth="yes"/>
      <point x="673" y="1572"/>
      <point x="555" y="1724"/>
      <point x="375" y="1724" type="curve" smooth="yes"/>
      <point x="193" y="1724"/>
      <point x="76" y="1572"/>
      <point x="76" y="1303" type="curve" smooth="yes"/>
      <point x="76" y="1029"/>
      <point x="193" y="877"/>
    </contour>
    <contour>
      <point x="375" y="966" type="curve" smooth="yes"/>
      <point x="259" y="966"/>
      <point x="184" y="1084"/>
      <point x="184" y="1303" type="curve" smooth="yes"/>
      <point x="184" y="1522"/>
      <point x="259" y="1635"/>
      <point x="375" y="1635" type="curve" smooth="yes"/>
      <point x="488" y="1635"/>
      <point x="564" y="1522"/>
      <point x="564" y="1303" type="curve" smooth="yes"/>
      <point x="564" y="1084"/>
      <point x="488" y="966"/>
    </contour>
  </outline>
</glyph>
<glyph name="i.sups" format="2">
  <advance width="329"/>
  <unicode hex="2071"/>
  <outline>
    <contour>
      <point x="111" y="532" type="line"/>
      <point x="217" y="532" type="line"/>
      <point x="217" y="1189" type="line"/>
      <point x="111" y="1189" type="line"/>
    </contour>
    <contour>
      <point x="167" y="1324" type="curve" smooth="yes"/>
      <point x="211" y="1324"/>
      <point x="244" y="1354"/>
      <point x="244" y="1397" type="curve" smooth="yes"/>
      <point x="244" y="1440"/>
      <point x="211" y="1470"/>
      <point x="167" y="1470" type="curve" smooth="yes"/>
      <point x="123" y="1470"/>
      <point x="89" y="1440"/>
      <point x="89" y="1397" type="curve" smooth="yes"/>
      <point x="89" y="1354"/>
      <point x="123" y="1324"/>
    </contour>
  </outline>
</glyph>
<glyph name="four.sups" format="2">
  <advance width="747"/>
  <unicode hex="2074"/>
  <outline>
    <contour>
      <point x="453" y="901" type="line"/>
      <point x="553" y="901" type="line"/>
      <point x="553" y="1123" type="line"/>
      <point x="672" y="1123" type="line"/>
      <point x="672" y="1205" type="line"/>
      <point x="553" y="1205" type="line"/>
      <point x="553" y="1700" type="line"/>
      <point x="436" y="1700" type="line"/>
      <point x="89" y="1180" type="line"/>
      <point x="89" y="1123" type="line"/>
      <point x="453" y="1123" type="line"/>
    </contour>
    <contour>
      <point x="211" y="1205" type="line"/>
      <point x="346" y="1414" type="line"/>
      <point x="453" y="1582" type="line"/>
      <point x="461" y="1582" type="line"/>
      <point x="453" y="1363" type="line"/>
      <point x="453" y="1205" type="line"/>
    </contour>
  </outline>
</glyph>
<glyph name="seven.sups" format="2">
  <advance width="747"/>
  <unicode hex="2077"/>
  <outline>
    <contour>
      <point x="390" y="901" type="line"/>
      <point x="406" y="1182"/>
      <point x="453" y="1385"/>
      <point x="652" y="1637" type="curve"/>
      <point x="652" y="1700" type="line"/>
      <point x="102" y="1700" type="line"/>
      <point x="102" y="1605" type="line"/>
      <point x="527" y="1605" type="line"/>
      <point x="359" y="1379"/>
      <point x="293" y="1185"/>
      <point x="275" y="901" type="curve"/>
    </contour>
  </outline>
</glyph>
<glyph name="one.subs" format="2">
  <advance width="747"/>
  <unicode hex="2081"/>
  <outline>
    <contour>
      <point x="355" y="-403" type="line"/>
      <point x="465" y="-403" type="line"/>
      <point x="465" y="396" type="line"/>
      <point x="375" y="396" type="line"/>
      <point x="323" y="356"/>
      <point x="269" y="332"/>
      <point x="184" y="315" type="curve"/>
      <point x="184" y="242" type="line"/>
      <point x="355" y="242" type="line"/>
    </contour>
  </outline>
</glyph>
<glyph name="two.subs" format="2">
  <advance width="747"/>
  <unicode hex="2082"/>
  <outline>
    <contour>
      <point x="110" y="-403" type="line"/>
      <point x="648" y="-403" type="line"/>
      <point x="648" y="-307" type="line"/>
      <point x="287" y="-307" type="line"/>
      <point x="471" y="-122"/>
      <point x="604" y="6"/>
      <point x="604" y="165" type="curve" smooth="yes"/>
      <point x="604" y="334"/>
      <point x="500" y="421"/>
      <point x="346" y="421" type="curve" smooth="yes"/>
      <point x="241" y="421"/>
      <point x="144" y="356"/>
      <point x="88" y="269" type="curve"/>
      <point x="155" y="207" type="line"/>
      <point x="200" y="275"/>
      <point x="262" y="327"/>
      <point x="333" y="327" type="curve" smooth="yes"/>
      <point x="432" y="327"/>
      <point x="495" y="259"/>
      <point x="495" y="151" type="curve" smooth="yes"/>
      <point x="495" y="24"/>
      <point x="368" y="-101"/>
      <point x="110" y="-337" type="curve"/>
    </contour>
  </outline>
</glyph>
<glyph name="five.subs" format="2">
  <advance width="747"/>
  <unicode hex="2085"/>
  <outline>
    <contour>
      <point x="279" y="298" type="line"/>
      <point x="612" y="298" type="line"/>
      <point x="612" y="396" type="line"/>
      <point x="186" y="396" type="line"/>
      <point x="148" y="14" type="line"/>
      <point x="206" y="-27" type="line"/>
      <point x="249" y="8"/>
      <point x="297" y="41"/>
      <point x="364" y="41" type="curve" smooth="yes"/>
      <point x="470" y="41"/>
      <point x="543" y="-31"/>
      <point x="543" y="-148" type="curve" smooth="yes"/>
      <point x="543" y="-259"/>
      <point x="468" y="-338"/>
      <point x="369" y="-338" type="curve" smooth="yes"/>
      <point x="271" y="-338"/>
      <point x="204" y="-288"/>
      <point x="152" y="-215" type="curve"/>
      <point x="76" y="-272" type="line"/>
      <point x="137" y="-358"/>
      <point x="232" y="-427"/>
      <point x="373" y="-427" type="curve" smooth="yes"/>
      <point x="531" y="-427"/>
      <point x="653" y="-317"/>
      <point x="653" y="-151" type="curve" smooth="yes"/>
      <point x="653" y="24"/>
      <point x="536" y="119"/>
      <point x="392" y="119" type="curve" smooth="yes"/>
      <point x="338" y="119"/>
      <point x="294" y="104"/>
      <point x="254" y="84" type="curve"/>
    </contour>
  </outline>
</glyph>
<glyph name="parenright.subs" format="2">
  <advance width="470"/>
  <unicode hex="208E"/>
  <outline>
    <contour>
      <point x="161" y="-558" type="line"/>
      <point x="274" y="-395"/>
      <point x="336" y="-232"/>
      <point x="336" y="-4" type="curve" smooth="yes"/>
      <point x="336" y="222"/>
      <point x="274" y="384"/>
      <point x="161" y="548" type="curve"/>
      <point x="82" y="507" type="line"/>
      <point x="189" y="349"/>
      <point x="228" y="178"/>
      <point x="228" y="-4" type="curve" smooth="yes"/>
      <point x="228" y="-186"/>
      <point x="189" y="-356"/>
      <point x="82" y="-517" type="curve"/>
    </contour>
  </outline>
</glyph>
<glyph name="peseta" format="2">
  <advance width="1003"/>
  <unicode hex="20A7"/>
  <outline>
    <contour>
      <point x="179" y="0" type="line"/>
      <point x="311" y="0" type="line"/>
      <point x="311" y="516" type="line"/>
      <point x="402" y="516" type="line"/>
      <point x="643" y="516"/>
      <point x="823" y="631"/>
      <point x="844" y="872" type="curve"/>
      <point x="974" y="872" type="line"/>
      <point x="974" y="970" type="line"/>
      <point x="844" y="970" type="line"/>
      <point x="824" y="1214"/>
      <point x="644" y="1308"/>
      <point x="402" y="1308" type="curve" smooth="yes"/>
      <point x="179" y="1308" type="line"/>
      <point x="179" y="970" type="line"/>
      <point x="24" y="959" type="line"/>
      <point x="24" y="872" type="line"/>
      <point x="179" y="872" type="line"/>
    </contour>
    <contour>
      <point x="311" y="614" type="line"/>
      <point x="311" y="872" type="line"/>
      <point x="711" y="872" type="line"/>
      <point x="694" y="701"/>
      <point x="577" y="614"/>
      <point x="380" y="614" type="curve" smooth="yes"/>
    </contour>
    <contour>
      <point x="311" y="970" type="line"/>
      <point x="311" y="1209" type="line"/>
      <point x="380" y="1209" type="line"/>
      <point x="578" y="1209"/>
      <point x="694" y="1144"/>
      <point x="711" y="970" type="curve"/>
    </contour>
  </outline>
</glyph>
<glyph name="euro" format="2">
  <advance width="1003"/>
  <unicode hex="20AC"/>
  <outline>
    <contour>
      <point x="907" y="241" type="line"/>
      <point x="834" y="140"/>
      <point x="758" y="87"/>
      <point x="653" y="87" type="curve" smooth="yes"/>
      <point x="473" y="87"/>
      <point x="357" y="241"/>
      <point x="322" y="490" type="curve"/>
      <point x="779" y="490" type="line"/>
      <point x="779" y="576" type="line"/>
      <point x="313" y="576" type="line"/>
      <point x="311" y="602"/>
      <point x="311" y="630"/>
      <point x="311" y="658" type="curve" smooth="yes"/>
      <point x="311" y="680"/>
      <point x="311" y="702"/>
      <point x="313" y="722" type="curve"/>
      <point x="861" y="722" type="line"/>
      <point x="861" y="809" type="line"/>
      <point x="321" y="809" type="line"/>
      <point x="353" y="1064"/>
      <point x="475" y="1220"/>
      <point x="670" y="1220" type="curve" smooth="yes"/>
      <point x="760" y="1220"/>
      <point x="830" y="1169"/>
      <point x="889" y="1093" type="curve"/>
      <point x="972" y="1172" type="line"/>
      <point x="905" y="1261"/>
      <point x="796" y="1332"/>
      <point x="674" y="1332" type="curve" smooth="yes"/>
      <point x="407" y="1332"/>
      <point x="223" y="1135"/>
      <point x="180" y="809" type="curve"/>
      <point x="48" y="799" type="line"/>
      <point x="48" y="722" type="line"/>
      <point x="171" y="722" type="line"/>
      <point x="169" y="701"/>
      <point x="169" y="677"/>
      <point x="169" y="653" type="curve" smooth="yes"/>
      <point x="169" y="628"/>
      <point x="169" y="601"/>
      <point x="171" y="575" type="curve"/>
      <point x="48" y="567" type="line"/>
      <point x="48" y="490" type="line"/>
      <point x="180" y="490" type="line"/>
      <point x="224" y="169"/>
      <point x="401" y="-25"/>
      <point x="644" y="-25" type="curve" smooth="yes"/>
      <point x="794" y="-25"/>
      <point x="903" y="48"/>
      <point x="992" y="167" type="curve"/>
    </contour>
  </outline>
</glyph>
<glyph name="rupeeIndian" format="2">
  <advance width="1003"/>
  <unicode hex="20B9"/>
  <outline>
    <contour>
      <point x="691" y="0" type="line"/>
      <point x="849" y="0" type="line"/>
      <point x="454" y="552" type="line"/>
      <point x="643" y="586"/>
      <point x="774" y="705"/>
      <point x="783" y="918" type="curve"/>
      <point x="917" y="918" type="line"/>
      <point x="917" y="1006" type="line"/>
      <point x="779" y="1006" type="line"/>
      <point x="761" y="1103"/>
      <point x="702" y="1179"/>
      <point x="621" y="1220" type="curve"/>
      <point x="917" y="1220" type="line"/>
      <point x="917" y="1308" type="line"/>
      <point x="148" y="1308" type="line"/>
      <point x="148" y="1193" type="line"/>
      <point x="297" y="1193" type="line"/>
      <point x="491" y="1193"/>
      <point x="613" y="1141"/>
      <point x="641" y="1006" type="curve"/>
      <point x="288" y="1006" type="line"/>
      <point x="148" y="997" type="line"/>
      <point x="148" y="918" type="line"/>
      <point x="646" y="918" type="line"/>
      <point x="637" y="738"/>
      <point x="510" y="654"/>
      <point x="297" y="654" type="curve" smooth="yes"/>
      <point x="148" y="654" type="line"/>
      <point x="148" y="540" type="line"/>
      <point x="310" y="540" type="line"/>
    </contour>
  </outline>
</glyph>
<glyph name="liraTurkish" format="2">
  <advance width="1003"/>
  <unicode hex="20BA"/>
  <outline>
    <contour>
      <point x="248" y="-25" type="line"/>
      <point x="628" y="-32"/>
      <point x="935" y="126"/>
      <point x="935" y="465" type="curve" smooth="yes"/>
      <point x="935" y="504"/>
      <point x="931" y="536"/>
      <point x="921" y="586" type="curve"/>
      <point x="803" y="553" type="line"/>
      <point x="814" y="513"/>
      <point x="814" y="485"/>
      <point x="814" y="458" type="curve" smooth="yes"/>
      <point x="814" y="227"/>
      <point x="576" y="110"/>
      <point x="388" y="105" type="curve"/>
      <point x="388" y="623" type="line"/>
      <point x="734" y="806" type="line"/>
      <point x="734" y="899" type="line"/>
      <point x="388" y="718" type="line"/>
      <point x="388" y="873" type="line"/>
      <point x="734" y="1055" type="line"/>
      <point x="734" y="1149" type="line"/>
      <point x="388" y="968" type="line"/>
      <point x="388" y="1308" type="line"/>
      <point x="248" y="1308" type="line"/>
      <point x="248" y="900" type="line"/>
      <point x="51" y="797" type="line"/>
      <point x="51" y="703" type="line"/>
      <point x="248" y="805" type="line"/>
      <point x="248" y="649" type="line"/>
      <point x="51" y="547" type="line"/>
      <point x="51" y="453" type="line"/>
      <point x="248" y="555" type="line"/>
    </contour>
  </outline>
</glyph>
<glyph name="estimated" format="2">
  <advance width="1638"/>
  <unicode hex="212E"/>
  <outline>
    <contour>
      <point x="1290" y="246" type="line"/>
      <point x="1176" y="106"/>
      <point x="1008" y="16"/>
      <point x="823" y="16" type="curve" smooth="yes"/>
      <point x="647" y="16"/>
      <point x="487" y="94"/>
      <point x="377" y="221" type="curve"/>
      <point x="369" y="233"/>
      <point x="360" y="246"/>
      <point x="360" y="262" type="curve" smooth="yes"/>
      <point x="360" y="639" type="line"/>
      <point x="360" y="643"/>
      <point x="365" y="647"/>
      <point x="369" y="647" type="curve" smooth="yes"/>
      <point x="1544" y="647" type="line"/>
      <point x="1544" y="664" type="line"/>
      <point x="1544" y="1044"/>
      <point x="1221" y="1352"/>
      <point x="819" y="1352" type="curve" smooth="yes"/>
      <point x="418" y="1352"/>
      <point x="94" y="1044"/>
      <point x="94" y="664" type="curve" smooth="yes"/>
      <point x="94" y="283"/>
      <point x="418" y="-25"/>
      <point x="819" y="-25" type="curve" smooth="yes"/>
      <point x="1053" y="-25"/>
      <point x="1262" y="82"/>
      <point x="1397" y="246" type="curve"/>
    </contour>
    <contour>
      <point x="369" y="684" type="line"/>
      <point x="365" y="684"/>
      <point x="360" y="688"/>
      <point x="360" y="696" type="curve" smooth="yes"/>
      <point x="360" y="1065" type="line"/>
      <point x="360" y="1081"/>
      <point x="369" y="1098"/>
      <point x="377" y="1110" type="curve"/>
      <point x="492" y="1233"/>
      <point x="647" y="1311"/>
      <point x="823" y="1311" type="curve" smooth="yes"/>
      <point x="991" y="1311"/>
      <point x="1147" y="1237"/>
      <point x="1262" y="1118" type="curve" smooth="yes"/>
      <point x="1274" y="1106"/>
      <point x="1282" y="1090"/>
      <point x="1282" y="1073" type="curve" smooth="yes"/>
      <point x="1282" y="696" type="line"/>
      <point x="1282" y="688"/>
      <point x="1278" y="684"/>
      <point x="1270" y="684" type="curve" smooth="yes"/>
    </contour>
  </outline>
</glyph>
<glyph name="arrowdown" format="2">
  <advance width="1269"/>
  <unicode hex="2193"/>
  <outline>
    <contour>
      <point x="630" y="-50" type="line"/>
      <point x="638" y="-50" type="line"/>
      <point x="1181" y="506" type="line"/>
      <point x="1101" y="578" type="line"/>
      <point x="691" y="141" type="line"/>
      <point x="691" y="1078" type="line"/>
      <point x="576" y="1078" type="line"/>
      <point x="576" y="141" type="line"/>
      <point x="166" y="578" type="line"/>
      <point x="87" y="506" type="line"/>
    </contour>
  </outline>
</glyph>
<glyph name="product" format="2">
  <advance width="1360"/>
  <unicode hex="220F"/>
  <outline>
    <contour>
      <point x="187" y="-246" type="line"/>
      <point x="325" y="-246" type="line"/>
      <point x="325" y="1186" type="line"/>
      <point x="1032" y="1186" type="line"/>
      <point x="1032" y="-246" type="line"/>
      <point x="1175" y="-246" type="line"/>
      <point x="1175" y="1308" type="line"/>
      <point x="187" y="1308" type="line"/>
    </contour>
  </outline>
</glyph>
<glyph name="bulletoperator" format="2">
  <advance width="1014"/>
  <unicode hex="2219"/>
  <outline>
    <contour>
      <point x="498" y="551" type="curve" smooth="yes"/>
      <point x="556" y="551"/>
      <point x="606" y="596"/>
      <point x="606" y="664" type="curve" smooth="yes"/>
      <point x="606" y="734"/>
      <point x="556" y="779"/>
      <point x="498" y="779" type="curve" smooth="yes"/>
      <point x="441" y="779"/>
      <point x="391" y="734"/>
      <point x="391" y="664" type="curve" smooth="yes"/>
      <point x="391" y="596"/>
      <point x="441" y="551"/>
    </contour>
  </outline>
</glyph>
<glyph name="infinity" format="2">
  <advance width="1586"/>
  <unicode hex="221E"/>
  <outline>
    <contour>
      <point x="755" y="780" type="line"/>
      <point x="681" y="876"/>
      <point x="572" y="1000"/>
      <point x="404" y="1000" type="curve" smooth="yes"/>
      <point x="223" y="1000"/>
      <point x="83" y="872"/>
      <point x="83" y="667" type="curve" smooth="yes"/>
      <point x="83" y="492"/>
      <point x="220" y="354"/>
      <point x="384" y="354" type="curve" smooth="yes"/>
      <point x="558" y="354"/>
      <point x="671" y="490"/>
      <point x="742" y="570" type="curve"/>
      <point x="750" y="570" type="line"/>
      <point x="872" y="419"/>
      <point x="987" y="318"/>
      <point x="1162" y="318" type="curve" smooth="yes"/>
      <point x="1361" y="318"/>
      <point x="1503" y="468"/>
      <point x="1503" y="686" type="curve" smooth="yes"/>
      <point x="1503" y="889"/>
      <point x="1361" y="1033"/>
      <point x="1162" y="1033" type="curve" smooth="yes"/>
      <point x="985" y="1033"/>
      <point x="857" y="907"/>
      <point x="763" y="780" type="curve"/>
    </contour>
    <contour>
      <point x="398" y="462" type="curve" smooth="yes"/>
      <point x="285" y="462"/>
      <point x="194" y="549"/>
      <point x="194" y="673" type="curve" smooth="yes"/>
      <point x="194" y="796"/>
      <point x="280" y="867"/>
      <point x="394" y="867" type="curve" smooth="yes"/>
      <point x="505" y="867"/>
      <point x="595" y="785"/>
      <point x="688" y="662" type="curve"/>
      <point x="614" y="552"/>
      <point x="517" y="462"/>
    </contour>
    <contour>
      <point x="1165" y="449" type="curve" smooth="yes"/>
      <point x="1035" y="449"/>
      <point x="938" y="531"/>
      <point x="816" y="691" type="curve"/>
      <point x="920" y="840"/>
      <point x="1025" y="924"/>
      <point x="1149" y="924" type="curve" smooth="yes"/>
      <point x="1302" y="924"/>
      <point x="1391" y="821"/>
      <point x="1391" y="680" type="curve" smooth="yes"/>
      <point x="1391" y="555"/>
      <point x="1308" y="449"/>
    </contour>
  </outline>
</glyph>
<glyph name="integral" format="2">
  <advance width="652"/>
  <unicode hex="222B"/>
  <outline>
    <contour>
      <point x="601" y="1603" type="line"/>
      <point x="586" y="1610"/>
      <point x="549" y="1615"/>
      <point x="510" y="1615" type="curve" smooth="yes"/>
      <point x="295" y="1615"/>
      <point x="250" y="1415"/>
      <point x="250" y="1156" type="curve" smooth="yes"/>
      <point x="250" y="863"/>
      <point x="338" y="424"/>
      <point x="338" y="128" type="curve" smooth="yes"/>
      <point x="338" y="-88"/>
      <point x="318" y="-213"/>
      <point x="199" y="-213" type="curve" smooth="yes"/>
      <point x="170" y="-213"/>
      <point x="146" y="-210"/>
      <point x="129" y="-205" type="curve"/>
      <point x="111" y="-310" type="line"/>
      <point x="129" y="-318"/>
      <point x="164" y="-324"/>
      <point x="205" y="-324" type="curve" smooth="yes"/>
      <point x="417" y="-324"/>
      <point x="463" y="-126"/>
      <point x="463" y="136" type="curve" smooth="yes"/>
      <point x="463" y="431"/>
      <point x="377" y="867"/>
      <point x="377" y="1162" type="curve" smooth="yes"/>
      <point x="377" y="1377"/>
      <point x="398" y="1506"/>
      <point x="512" y="1506" type="curve" smooth="yes"/>
      <point x="541" y="1506"/>
      <point x="565" y="1502"/>
      <point x="583" y="1498" type="curve"/>
    </contour>
  </outline>
</glyph>
<glyph name="notequal" format="2">
  <advance width="1003"/>
  <unicode hex="2260"/>
  <outline>
    <contour>
      <point x="129" y="146" type="line"/>
      <point x="236" y="146" type="line"/>
      <point x="394" y="407" type="line"/>
      <point x="933" y="407" type="line"/>
      <point x="933" y="514" type="line"/>
      <point x="457" y="514" type="line"/>
      <point x="653" y="837" type="line"/>
      <point x="933" y="837" type="line"/>
      <point x="933" y="944" type="line"/>
      <point x="715" y="944" type="line"/>
      <point x="874" y="1206" type="line"/>
      <point x="767" y="1206" type="line"/>
      <point x="608" y="944" type="line"/>
      <point x="70" y="944" type="line"/>
      <point x="70" y="837" type="line"/>
      <point x="546" y="837" type="line"/>
      <point x="350" y="514" type="line"/>
      <point x="70" y="514" type="line"/>
      <point x="70" y="407" type="line"/>
      <point x="288" y="407" type="line"/>
    </contour>
  </outline>
</glyph>
<glyph name="filledbox" format="2">
  <advance width="608"/>
  <unicode hex="25A0"/>
  <outline>
    <contour>
      <point x="111" y="342" type="line"/>
      <point x="497" y="342" type="line"/>
      <point x="497" y="739" type="line"/>
      <point x="111" y="739" type="line"/>
    </contour>
  </outline>
</glyph>
<glyph name="triagup" format="2">
  <advance width="1159"/>
  <unicode hex="25B2"/>
  <outline>
    <contour>
      <point x="49" y="86" type="line"/>
      <point x="1110" y="86" type="line"/>
      <point x="1110" y="90" type="line"/>
      <point x="585" y="1088" type="line"/>
      <point x="577" y="1088" type="line"/>
      <point x="49" y="90" type="line"/>
    </contour>
  </outline>
</glyph>
<glyph name="whiteuppointingtriangle" format="2">
  <advance width="1159"/>
  <unicode hex="25B3"/>
  <outline>
    <contour>
      <point x="49" y="86" type="line"/>
      <point x="1110" y="86" type="line"/>
      <point x="1110" y="90" type="line"/>
      <point x="585" y="1088" type="line"/>
      <point x="577" y="1088" type="line"/>
      <point x="49" y="90" type="line"/>
    </contour>
    <contour>
      <point x="231" y="187" type="line"/>
      <point x="581" y="873" type="line"/>
      <point x="931" y="187" type="line"/>
    </contour>
  </outline>
</glyph>
<glyph name="whiterightpointingtriangle" format="2">
  <advance width="1159"/>
  <unicode hex="25B7"/>
  <outline>
    <contour>
      <point x="119" y="46" type="line"/>
      <point x="123" y="46" type="line"/>
      <point x="1120" y="573" type="line"/>
      <point x="1120" y="582" type="line"/>
      <point x="123" y="1107" type="line"/>
      <point x="119" y="1107" type="line"/>
    </contour>
    <contour>
      <point x="222" y="227" type="line"/>
      <point x="222" y="927" type="line"/>
      <point x="899" y="578" type="line"/>
    </contour>
  </outline>
</glyph>
<glyph name="lozenge" format="2">
  <advance width="1044"/>
  <unicode hex="25CA"/>
  <outline>
    <contour>
      <point x="456" y="-20" type="line"/>
      <point x="588" y="-20" type="line"/>
      <point x="926" y="676" type="line"/>
      <point x="588" y="1372" type="line"/>
      <point x="456" y="1372" type="line"/>
      <point x="117" y="676" type="line"/>
    </contour>
    <contour>
      <point x="518" y="95" type="line"/>
      <point x="385" y="372" type="line"/>
      <point x="243" y="676" type="line"/>
      <point x="385" y="977" type="line"/>
      <point x="518" y="1257" type="line"/>
      <point x="526" y="1257" type="line"/>
      <point x="658" y="977" type="line"/>
      <point x="801" y="676" type="line"/>
      <point x="658" y="372" type="line"/>
      <point x="526" y="95" type="line"/>
    </contour>
  </outline>
</glyph>
<glyph name="f_f" format="2">
  <advance width="1135"/>
  <unicode hex="FB00"/>
  <outline>
    <contour>
      <point x="199" y="0" type="line"/>
      <point x="335" y="0" type="line"/>
      <point x="335" y="877" type="line"/>
      <point x="766" y="877" type="line"/>
      <point x="766" y="0" type="line"/>
      <point x="902" y="0" type="line"/>
      <point x="902" y="877" type="line"/>
      <point x="1119" y="877" type="line"/>
      <point x="1119" y="990" type="line"/>
      <point x="902" y="990" type="line"/>
      <point x="902" y="1171" type="line"/>
      <point x="902" y="1303"/>
      <point x="950" y="1376"/>
      <point x="1048" y="1376" type="curve" smooth="yes"/>
      <point x="1083" y="1376"/>
      <point x="1123" y="1367"/>
      <point x="1163" y="1350" type="curve"/>
      <point x="1194" y="1456" type="line"/>
      <point x="1149" y="1475"/>
      <point x="1091" y="1489"/>
      <point x="1037" y="1489" type="curve" smooth="yes"/>
      <point x="856" y="1489"/>
      <point x="766" y="1373"/>
      <point x="766" y="1173" type="curve" smooth="yes"/>
      <point x="766" y="990" type="line"/>
      <point x="335" y="990" type="line"/>
      <point x="335" y="1137" type="line"/>
      <point x="335" y="1277"/>
      <point x="393" y="1355"/>
      <point x="499" y="1355" type="curve" smooth="yes"/>
      <point x="547" y="1355"/>
      <point x="590" y="1347"/>
      <point x="635" y="1326" type="curve"/>
      <point x="666" y="1431" type="line"/>
      <point x="616" y="1455"/>
      <point x="551" y="1468"/>
      <point x="491" y="1468" type="curve" smooth="yes"/>
      <point x="300" y="1468"/>
      <point x="199" y="1348"/>
      <point x="199" y="1142" type="curve" smooth="yes"/>
      <point x="199" y="990" type="line"/>
      <point x="65" y="981" type="line"/>
      <point x="65" y="877" type="line"/>
      <point x="199" y="877" type="line"/>
    </contour>
  </outline>
</glyph>
<glyph name="fl" format="2">
  <advance width="1081"/>
  <unicode hex="FB02"/>
  <outline>
    <contour>
      <point x="199" y="0" type="line"/>
      <point x="335" y="0" type="line"/>
      <point x="335" y="877" type="line"/>
      <point x="552" y="877" type="line"/>
      <point x="552" y="990" type="line"/>
      <point x="335" y="990" type="line"/>
      <point x="335" y="1171" type="line"/>
      <point x="335" y="1303"/>
      <point x="382" y="1376"/>
      <point x="480" y="1376" type="curve" smooth="yes"/>
      <point x="517" y="1376"/>
      <point x="557" y="1367"/>
      <point x="595" y="1350" type="curve"/>
      <point x="627" y="1456" type="line"/>
      <point x="582" y="1475"/>
      <point x="526" y="1489"/>
      <point x="470" y="1489" type="curve" smooth="yes"/>
      <point x="290" y="1489"/>
      <point x="199" y="1373"/>
      <point x="199" y="1173" type="curve" smooth="yes"/>
      <point x="199" y="990" type="line"/>
      <point x="64" y="981" type="line"/>
      <point x="64" y="877" type="line"/>
      <point x="199" y="877" type="line"/>
    </contour>
    <contour>
      <point x="968" y="94" type="line"/>
      <point x="949" y="90"/>
      <point x="941" y="90"/>
      <point x="931" y="90" type="curve" smooth="yes"/>
      <point x="907" y="90"/>
      <point x="886" y="111"/>
      <point x="886" y="160" type="curve" smooth="yes"/>
      <point x="886" y="1464" type="line"/>
      <point x="750" y="1464" type="line"/>
      <point x="750" y="172" type="line"/>
      <point x="750" y="43"/>
      <point x="797" y="-25"/>
      <point x="905" y="-25" type="curve" smooth="yes"/>
      <point x="942" y="-25"/>
      <point x="966" y="-19"/>
      <point x="987" y="-10" type="curve"/>
    </contour>
  </outline>
</glyph>
<glyph name="add" format="2">
  <advance width="1096"/>
  <outline>
    <contour>
      <point x="831" y="-567" type="line"/>
      <point x="1045" y="-419"/>
      <point x="1091" y="-265"/>
      <point x="1091" y="-143" type="curve" smooth="yes"/>
      <point x="1091" y="51"/>
      <point x="977" y="163"/>
      <point x="797" y="163" type="curve" smooth="yes"/>
      <point x="625" y="163"/>
      <point x="494" y="53"/>
      <point x="494" y="-146" type="curve" smooth="yes"/>
      <point x="494" y="-175"/>
      <point x="497" y="-206"/>
      <point x="505" y="-238" type="curve"/>
      <point x="614" y="-224" type="line"/>
      <point x="611" y="-203"/>
      <point x="610" y="-183"/>
      <point x="610" y="-163" type="curve" smooth="yes"/>
      <point x="610" y="-26"/>
      <point x="678" y="52"/>
      <point x="796" y="52" type="curve" smooth="yes"/>
      <point x="913" y="52"/>
      <point x="976" y="-20"/>
      <point x="976" y="-140" type="curve" smooth="yes"/>
      <point x="976" y="-240"/>
      <point x="940" y="-353"/>
      <point x="766" y="-481" type="curve"/>
    </contour>
    <contour>
      <point x="330" y="-479" type="line"/>
      <point x="166" y="-373"/>
      <point x="111" y="-263"/>
      <point x="111" y="-137" type="curve" smooth="yes"/>
      <point x="111" y="4"/>
      <point x="195" y="54"/>
      <point x="287" y="54" type="curve" smooth="yes"/>
      <point x="400" y="54"/>
      <point x="476" y="-22"/>
      <point x="526" y="-138" type="curve"/>
      <point x="560" y="-49" type="line"/>
      <point x="494" y="104"/>
      <point x="396" y="165"/>
      <point x="268" y="165" type="curve" smooth="yes"/>
      <point x="105" y="165"/>
      <point x="-9" y="62"/>
      <point x="-9" y="-122" type="curve" smooth="yes"/>
      <point x="-9" y="-301"/>
      <point x="84" y="-447"/>
      <point x="274" y="-562" type="curve"/>
    </contour>
  </outline>
</glyph>
<glyph name="anusvara-deva.imatra" format="2">
  <anchor x="266" y="1168" name="_top"/>
  <outline>
    <contour>
      <point x="262" y="1570" type="curve" smooth="yes"/>
      <point x="317" y="1570"/>
      <point x="341" y="1593"/>
      <point x="341" y="1647" type="curve" smooth="yes"/>
      <point x="341" y="1702"/>
      <point x="317" y="1725"/>
      <point x="262" y="1725" type="curve" smooth="yes"/>
      <point x="207" y="1725"/>
      <point x="183" y="1702"/>
      <point x="183" y="1647" type="curve" smooth="yes"/>
      <point x="183" y="1593"/>
      <point x="207" y="1570"/>
    </contour>
  </outline>
</glyph>
<glyph name="at.case" format="2">
  <advance width="1578"/>
  <outline>
    <contour>
      <point x="1025" y="121" type="line"/>
      <point x="949" y="72"/>
      <point x="853" y="49"/>
      <point x="755" y="49" type="curve" smooth="yes"/>
      <point x="445" y="49"/>
      <point x="208" y="227"/>
      <point x="208" y="598" type="curve" smooth="yes"/>
      <point x="208" y="1030"/>
      <point x="526" y="1309"/>
      <point x="865" y="1309" type="curve" smooth="yes"/>
      <point x="1191" y="1309"/>
      <point x="1373" y="1111"/>
      <point x="1373" y="806" type="curve" smooth="yes"/>
      <point x="1373" y="546"/>
      <point x="1238" y="405"/>
      <point x="1128" y="405" type="curve" smooth="yes"/>
      <point x="1026" y="405"/>
      <point x="998" y="479"/>
      <point x="1038" y="656" type="curve" smooth="yes"/>
      <point x="1117" y="1014" type="line"/>
      <point x="1019" y="1014" type="line"/>
      <point x="996" y="932" type="line"/>
      <point x="992" y="932" type="line"/>
      <point x="956" y="998"/>
      <point x="900" y="1030"/>
      <point x="835" y="1030" type="curve" smooth="yes"/>
      <point x="599" y="1030"/>
      <point x="464" y="786"/>
      <point x="464" y="585" type="curve" smooth="yes"/>
      <point x="464" y="425"/>
      <point x="564" y="323"/>
      <point x="682" y="323" type="curve" smooth="yes"/>
      <point x="780" y="323"/>
      <point x="864" y="386"/>
      <point x="928" y="465" type="curve"/>
      <point x="932" y="465" type="line"/>
      <point x="942" y="367"/>
      <point x="1010" y="308"/>
      <point x="1113" y="308" type="curve" smooth="yes"/>
      <point x="1293" y="308"/>
      <point x="1475" y="487"/>
      <point x="1475" y="812" type="curve" smooth="yes"/>
      <point x="1475" y="1170"/>
      <point x="1235" y="1403"/>
      <point x="881" y="1403" type="curve" smooth="yes"/>
      <point x="465" y="1403"/>
      <point x="105" y="1081"/>
      <point x="105" y="593" type="curve" smooth="yes"/>
      <point x="105" y="172"/>
      <point x="390" y="-44"/>
      <point x="745" y="-44" type="curve" smooth="yes"/>
      <point x="861" y="-44"/>
      <point x="968" y="-19"/>
      <point x="1067" y="42" type="curve"/>
    </contour>
    <contour>
      <point x="906" y="547" type="line"/>
      <point x="832" y="460"/>
      <point x="767" y="420"/>
      <point x="710" y="420" type="curve" smooth="yes"/>
      <point x="636" y="420"/>
      <point x="576" y="477"/>
      <point x="576" y="598" type="curve" smooth="yes"/>
      <point x="576" y="747"/>
      <point x="675" y="933"/>
      <point x="832" y="933" type="curve" smooth="yes"/>
      <point x="891" y="933"/>
      <point x="924" y="911"/>
      <point x="965" y="842" type="curve"/>
    </contour>
  </outline>
</glyph>
<glyph name="b-deva" format="2">
  <advance width="625"/>
  <outline>
    <contour>
      <point x="814" y="569" type="line"/>
      <point x="716" y="408"/>
      <point x="606" y="313"/>
      <point x="448" y="313" type="curve" smooth="yes"/>
      <point x="300" y="313"/>
      <point x="229" y="390"/>
      <point x="229" y="563" type="curve" smooth="yes"/>
      <point x="229" y="815"/>
      <point x="377" y="829"/>
      <point x="492" y="830" type="curve" smooth="yes"/>
      <point x="587" y="831"/>
      <point x="732" y="793"/>
      <point x="832" y="713" type="curve"/>
      <point x="875" y="805" type="line"/>
      <point x="773" y="894"/>
      <point x="609" y="932"/>
      <point x="494" y="934" type="curve" smooth="yes"/>
      <point x="355" y="936"/>
      <point x="104" y="909"/>
      <point x="104" y="566" type="curve" smooth="yes"/>
      <point x="104" y="358"/>
      <point x="206" y="210"/>
      <point x="436" y="210" type="curve" smooth="yes"/>
      <point x="563" y="210"/>
      <point x="715" y="253"/>
      <point x="831" y="427" type="curve"/>
    </contour>
    <contour>
      <point x="711" y="316" type="line"/>
      <point x="774" y="384" type="line"/>
      <point x="300" y="867" type="line"/>
      <point x="236" y="798" type="line"/>
    </contour>
    <contour>
      <point x="-12" y="1143" type="line"/>
      <point x="643" y="1143" type="line"/>
      <point x="643" y="1247" type="line"/>
      <point x="-12" y="1247" type="line"/>
    </contour>
  </outline>
</glyph>
<glyph name="b_ja-deva" format="2">
  <advance width="2066"/>
  <anchor x="1791" y="28" name="bottom"/>
  <anchor x="1431" y="1168" name="candra"/>
  <anchor x="1175" y="66" name="nukta"/>
  <anchor x="1793" y="1168" name="top"/>
  <outline>
    <contour>
      <point x="809" y="569" type="line"/>
      <point x="711" y="408"/>
      <point x="601" y="313"/>
      <point x="443" y="313" type="curve" smooth="yes"/>
      <point x="295" y="313"/>
      <point x="224" y="390"/>
      <point x="224" y="563" type="curve" smooth="yes"/>
      <point x="224" y="815"/>
      <point x="372" y="830"/>
      <point x="487" y="830" type="curve" smooth="yes"/>
      <point x="545" y="830"/>
      <point x="581" y="826"/>
      <point x="619" y="812" type="curve"/>
      <point x="648" y="907" type="line"/>
      <point x="595" y="927"/>
      <point x="554" y="934"/>
      <point x="489" y="934" type="curve" smooth="yes"/>
      <point x="349" y="934"/>
      <point x="99" y="909"/>
      <point x="99" y="566" type="curve" smooth="yes"/>
      <point x="99" y="358"/>
      <point x="201" y="210"/>
      <point x="431" y="210" type="curve" smooth="yes"/>
      <point x="558" y="210"/>
      <point x="714" y="257"/>
      <point x="830" y="431" type="curve"/>
    </contour>
    <contour>
      <point x="707" y="316" type="line"/>
      <point x="770" y="384" type="line"/>
      <point x="296" y="867" type="line"/>
      <point x="232" y="798" type="line"/>
    </contour>
    <contour>
      <point x="-12" y="1143" type="line"/>
      <point x="697" y="1143" type="line"/>
      <point x="697" y="1247" type="line"/>
      <point x="-12" y="1247" type="line"/>
    </contour>
    <component base="ja-deva" xOffset="648"/>
  </outline>
</glyph>
<glyph name="b_r-deva" format="2">
  <advance width="626"/>
  <outline>
    <contour>
      <point x="814" y="569" type="line"/>
      <point x="688" y="411"/>
      <point x="571" y="313"/>
      <point x="448" y="313" type="curve" smooth="yes"/>
      <point x="300" y="313"/>
      <point x="229" y="390"/>
      <point x="229" y="563" type="curve" smooth="yes"/>
      <point x="229" y="815"/>
      <point x="377" y="829"/>
      <point x="492" y="830" type="curve" smooth="yes"/>
      <point x="587" y="831"/>
      <point x="732" y="793"/>
      <point x="832" y="713" type="curve"/>
      <point x="875" y="805" type="line"/>
      <point x="773" y="894"/>
      <point x="609" y="932"/>
      <point x="494" y="934" type="curve" smooth="yes"/>
      <point x="355" y="936"/>
      <point x="104" y="909"/>
      <point x="104" y="566" type="curve" smooth="yes"/>
      <point x="104" y="358"/>
      <point x="206" y="215"/>
      <point x="436" y="215" type="curve" smooth="yes"/>
      <point x="541" y="215"/>
      <point x="688" y="273"/>
      <point x="831" y="427" type="curve"/>
    </contour>
    <contour>
      <point x="238" y="-43" type="line"/>
      <point x="744" y="344" type="line" smooth="yes"/>
      <point x="727" y="421" type="line"/>
      <point x="166" y="52" type="line"/>
    </contour>
    <contour>
      <point x="702" y="326" type="line"/>
      <point x="769" y="399" type="line"/>
      <point x="304" y="871" type="line"/>
      <point x="238" y="798" type="line"/>
    </contour>
    <contour>
      <point x="-12" y="1143" type="line"/>
      <point x="643" y="1143" type="line"/>
      <point x="643" y="1247" type="line"/>
      <point x="-12" y="1247" type="line"/>
    </contour>
  </outline>
</glyph>
<glyph name="b_sa-deva" format="2">
  <advance width="1949"/>
  <anchor x="1672" y="28" name="bottom"/>
  <anchor x="1382" y="1168" name="candra"/>
  <anchor x="835" y="44" name="nukta"/>
  <anchor x="1672" y="1168" name="top"/>
  <outline>
    <contour>
      <point x="808" y="569" type="line"/>
      <point x="710" y="408"/>
      <point x="600" y="313"/>
      <point x="442" y="313" type="curve" smooth="yes"/>
      <point x="294" y="313"/>
      <point x="223" y="390"/>
      <point x="223" y="563" type="curve" smooth="yes"/>
      <point x="223" y="815"/>
      <point x="371" y="830"/>
      <point x="486" y="830" type="curve" smooth="yes"/>
      <point x="544" y="830"/>
      <point x="580" y="826"/>
      <point x="618" y="812" type="curve"/>
      <point x="647" y="907" type="line"/>
      <point x="594" y="927"/>
      <point x="553" y="934"/>
      <point x="488" y="934" type="curve" smooth="yes"/>
      <point x="348" y="934"/>
      <point x="98" y="909"/>
      <point x="98" y="566" type="curve" smooth="yes"/>
      <point x="98" y="358"/>
      <point x="200" y="210"/>
      <point x="430" y="210" type="curve" smooth="yes"/>
      <point x="557" y="210"/>
      <point x="727" y="267"/>
      <point x="843" y="441" type="curve"/>
    </contour>
    <contour>
      <point x="706" y="316" type="line"/>
      <point x="769" y="384" type="line"/>
      <point x="295" y="867" type="line"/>
      <point x="231" y="798" type="line"/>
    </contour>
    <contour>
      <point x="-12" y="1143" type="line"/>
      <point x="746" y="1143" type="line"/>
      <point x="746" y="1247" type="line"/>
      <point x="-12" y="1247" type="line"/>
    </contour>
    <component base="sa-deva" xOffset="647"/>
  </outline>
</glyph>
<glyph name="bha_ra-deva" format="2">
  <advance width="1215"/>
  <anchor x="942" y="28" name="bottom"/>
  <anchor x="676" y="1168" name="candra"/>
  <anchor x="940" y="1168" name="top"/>
  <anchor x="385" y="44" name="nukta"/>
  <outline>
    <contour>
      <point x="370" y="-32" type="line"/>
      <point x="990" y="450" type="line"/>
      <point x="941" y="538" type="line"/>
      <point x="292" y="60" type="line"/>
    </contour>
    <component base="bha-deva"/>
  </outline>
</glyph>
<glyph name="brevecomb_acutecomb.cap" format="2">
  <anchor x="0" y="1050" name="_top"/>
  <outline>
    <contour>
      <point x="162" y="1666" type="line"/>
      <point x="146" y="1595"/>
      <point x="100" y="1531"/>
      <point x="0" y="1531" type="curve" smooth="yes"/>
      <point x="-100" y="1531"/>
      <point x="-146" y="1595"/>
      <point x="-162" y="1666" type="curve"/>
      <point x="-242" y="1666" type="line"/>
      <point x="-229" y="1561"/>
      <point x="-153" y="1452"/>
      <point x="0" y="1452" type="curve" smooth="yes"/>
      <point x="153" y="1452"/>
      <point x="229" y="1561"/>
      <point x="242" y="1666" type="curve"/>
    </contour>
    <contour>
      <point x="-77" y="1640" type="line"/>
      <point x="10" y="1640" type="line"/>
      <point x="207" y="1849" type="line"/>
      <point x="79" y="1849" type="line"/>
    </contour>
  </outline>
</glyph>
<glyph name="brevecomb_hookabovecomb.cap" format="2">
  <anchor x="0" y="1050" name="_top"/>
  <outline>
    <contour>
      <point x="162" y="1666" type="line"/>
      <point x="146" y="1595"/>
      <point x="100" y="1531"/>
      <point x="0" y="1531" type="curve" smooth="yes"/>
      <point x="-100" y="1531"/>
      <point x="-146" y="1595"/>
      <point x="-162" y="1666" type="curve"/>
      <point x="-242" y="1666" type="line"/>
      <point x="-229" y="1561"/>
      <point x="-153" y="1452"/>
      <point x="0" y="1452" type="curve" smooth="yes"/>
      <point x="153" y="1452"/>
      <point x="229" y="1561"/>
      <point x="242" y="1666" type="curve"/>
    </contour>
    <contour>
      <point x="-42" y="1636" type="line"/>
      <point x="48" y="1654"/>
      <point x="136" y="1694"/>
      <point x="136" y="1793" type="curve" smooth="yes"/>
      <point x="136" y="1890"/>
      <point x="45" y="1934"/>
      <point x="-98" y="1939" type="curve"/>
      <point x="-112" y="1863" type="line"/>
      <point x="-13" y="1857"/>
      <point x="34" y="1836"/>
      <point x="34" y="1780" type="curve" smooth="yes"/>
      <point x="34" y="1735"/>
      <point x="-10" y="1715"/>
      <point x="-63" y="1701" type="curve"/>
    </contour>
  </outline>
</glyph>
<glyph name="brevecomb_hookabovecomb" format="2">
  <anchor x="0" y="1050" name="_top"/>
  <outline>
    <contour>
      <point x="174" y="1432" type="line"/>
      <point x="162" y="1345"/>
      <point x="108" y="1261"/>
      <point x="0" y="1261" type="curve" smooth="yes"/>
      <point x="-108" y="1261"/>
      <point x="-162" y="1345"/>
      <point x="-174" y="1432" type="curve"/>
      <point x="-252" y="1432" type="line"/>
      <point x="-242" y="1318"/>
      <point x="-173" y="1179"/>
      <point x="0" y="1179" type="curve" smooth="yes"/>
      <point x="173" y="1179"/>
      <point x="242" y="1318"/>
      <point x="252" y="1432" type="curve"/>
    </contour>
    <contour>
      <point x="-51" y="1392" type="line"/>
      <point x="39" y="1415"/>
      <point x="129" y="1453"/>
      <point x="129" y="1557" type="curve" smooth="yes"/>
      <point x="129" y="1654"/>
      <point x="37" y="1699"/>
      <point x="-107" y="1703" type="curve"/>
      <point x="-118" y="1629" type="line"/>
      <point x="-19" y="1625"/>
      <point x="24" y="1599"/>
      <point x="24" y="1541" type="curve" smooth="yes"/>
      <point x="24" y="1496"/>
      <point x="-14" y="1472"/>
      <point x="-67" y="1456" type="curve"/>
    </contour>
  </outline>
</glyph>
<glyph name="c_la-deva.loclMAR" format="2">
  <advance width="1220"/>
  <anchor x="889" y="-489" name="bottom"/>
  <anchor x="676" y="1168" name="candra"/>
  <anchor x="944" y="1168" name="top"/>
  <outline>
    <contour>
      <point x="926" y="618" type="line"/>
      <point x="816" y="474"/>
      <point x="679" y="409"/>
      <point x="532" y="413" type="curve" smooth="yes"/>
      <point x="377" y="419"/>
      <point x="314" y="500"/>
      <point x="314" y="614" type="curve" smooth="yes"/>
      <point x="314" y="752"/>
      <point x="437" y="841"/>
      <point x="615" y="837" type="curve"/>
      <point x="585" y="894" type="line"/>
      <point x="415" y="870" type="line"/>
      <point x="276" y="841"/>
      <point x="183" y="737"/>
      <point x="183" y="606" type="curve" smooth="yes"/>
      <point x="183" y="444"/>
      <point x="296" y="307"/>
      <point x="523" y="303" type="curve" smooth="yes"/>
      <point x="697" y="300"/>
      <point x="853" y="373"/>
      <point x="948" y="494" type="curve"/>
    </contour>
    <contour>
      <point x="29" y="833" type="line"/>
      <point x="680" y="834" type="line"/>
      <point x="680" y="941" type="line"/>
      <point x="29" y="941" type="line"/>
    </contour>
    <contour>
      <point x="881" y="80" type="line"/>
      <point x="1007" y="80" type="line"/>
      <point x="1007" y="1193" type="line"/>
      <point x="881" y="1193" type="line"/>
    </contour>
    <contour>
      <point x="-12" y="1143" type="line"/>
      <point x="1233" y="1143" type="line"/>
      <point x="1233" y="1247" type="line"/>
      <point x="-12" y="1247" type="line"/>
    </contour>
    <component base="add" xOffset="87"/>
  </outline>
</glyph>
<glyph name="caron.cap" format="2">
  <anchor x="0" y="1050" name="_top"/>
  <outline>
    <contour>
      <point x="-66" y="1448" type="line"/>
      <point x="66" y="1448" type="line"/>
      <point x="263" y="1673" type="line"/>
      <point x="148" y="1673" type="line"/>
      <point x="4" y="1530" type="line"/>
      <point x="-4" y="1530" type="line"/>
      <point x="-148" y="1673" type="line"/>
      <point x="-263" y="1673" type="line"/>
    </contour>
  </outline>
</glyph>
<glyph name="caronvertical" format="2">
  <advance width="333"/>
  <anchor x="179" y="1015" name="_car"/>
  <outline>
    <contour>
      <point x="138" y="1122" type="line"/>
      <point x="209" y="1122" type="line"/>
      <point x="233" y="1441" type="line"/>
      <point x="234" y="1551" type="line"/>
      <point x="131" y="1551" type="line"/>
    </contour>
  </outline>
</glyph>
<glyph name="cedillacomb.cap" format="2">
  <anchor x="-17" y="-300" name="_btm"/>
  <outline>
    <contour>
      <point x="-149" y="-432" type="line"/>
      <point x="-4" y="-417"/>
      <point x="131" y="-363"/>
      <point x="131" y="-250" type="curve" smooth="yes"/>
      <point x="131" y="-166"/>
      <point x="75" y="-128"/>
      <point x="9" y="-106" type="curve"/>
      <point x="64" y="5" type="line"/>
      <point x="-30" y="5" type="line"/>
      <point x="-112" y="-153" type="line"/>
      <point x="-30" y="-173"/>
      <point x="21" y="-200"/>
      <point x="21" y="-256" type="curve" smooth="yes"/>
      <point x="21" y="-312"/>
      <point x="-55" y="-342"/>
      <point x="-165" y="-357" type="curve"/>
    </contour>
  </outline>
</glyph>
<glyph name="ch_va-deva" format="2">
  <advance width="1324"/>
  <anchor x="997" y="-587" name="bottom"/>
  <anchor x="705" y="1168" name="candra"/>
  <anchor x="1003" y="1168" name="top"/>
  <outline>
    <contour>
      <point x="942" y="587" type="line"/>
      <point x="882" y="667"/>
      <point x="867" y="720"/>
      <point x="867" y="772" type="curve" smooth="yes"/>
      <point x="867" y="848"/>
      <point x="916" y="902"/>
      <point x="1000" y="902" type="curve" smooth="yes"/>
      <point x="1081" y="902"/>
      <point x="1145" y="842"/>
      <point x="1145" y="705" type="curve" smooth="yes"/>
      <point x="1147" y="482"/>
      <point x="895" y="303"/>
      <point x="585" y="303" type="curve" smooth="yes"/>
      <point x="381" y="303"/>
      <point x="281" y="368"/>
      <point x="281" y="513" type="curve" smooth="yes"/>
      <point x="281" y="685"/>
      <point x="456" y="706"/>
      <point x="596" y="707" type="curve"/>
      <point x="592" y="816" type="line"/>
      <point x="578" y="816"/>
      <point x="564" y="817"/>
      <point x="552" y="816" type="curve" smooth="yes"/>
      <point x="260" y="808"/>
      <point x="149" y="661"/>
      <point x="149" y="514" type="curve" smooth="yes"/>
      <point x="149" y="334"/>
      <point x="284" y="191"/>
      <point x="588" y="191" type="curve" smooth="yes"/>
      <point x="966" y="191"/>
      <point x="1267" y="426"/>
      <point x="1267" y="708" type="curve" smooth="yes"/>
      <point x="1267" y="917"/>
      <point x="1131" y="1001"/>
      <point x="1003" y="999" type="curve" smooth="yes"/>
      <point x="824" y="997"/>
      <point x="752" y="903"/>
      <point x="753" y="783" type="curve" smooth="yes"/>
      <point x="754" y="709"/>
      <point x="790" y="627"/>
      <point x="869" y="541" type="curve"/>
    </contour>
    <contour>
      <point x="965" y="-269" type="line"/>
      <point x="903" y="-359"/>
      <point x="793" y="-419"/>
      <point x="675" y="-419" type="curve" smooth="yes"/>
      <point x="555" y="-419"/>
      <point x="490" y="-355"/>
      <point x="490" y="-225" type="curve" smooth="yes"/>
      <point x="490" y="-71"/>
      <point x="575" y="-24"/>
      <point x="692" y="-19" type="curve" smooth="yes"/>
      <point x="773" y="-15"/>
      <point x="874" y="-31"/>
      <point x="978" y="-74" type="curve"/>
      <point x="978" y="11" type="line"/>
      <point x="884" y="67"/>
      <point x="784" y="90"/>
      <point x="687" y="90" type="curve" smooth="yes"/>
      <point x="487" y="90"/>
      <point x="367" y="-27"/>
      <point x="367" y="-219" type="curve" smooth="yes"/>
      <point x="367" y="-403"/>
      <point x="485" y="-524"/>
      <point x="671" y="-524" type="curve" smooth="yes"/>
      <point x="789" y="-524"/>
      <point x="915" y="-475"/>
      <point x="992" y="-376" type="curve"/>
    </contour>
    <contour>
      <point x="936" y="-604" type="line"/>
      <point x="1058" y="-604" type="line"/>
      <point x="1058" y="340" type="line"/>
      <point x="936" y="340" type="line"/>
    </contour>
    <contour>
      <point x="462" y="771" type="line"/>
      <point x="329" y="838"/>
      <point x="277" y="909"/>
      <point x="277" y="994" type="curve" smooth="yes"/>
      <point x="277" y="1092"/>
      <point x="345" y="1149"/>
      <point x="500" y="1163" type="curve"/>
      <point x="517" y="1224" type="line"/>
      <point x="303" y="1221"/>
      <point x="149" y="1162"/>
      <point x="149" y="989" type="curve" smooth="yes"/>
      <point x="149" y="911"/>
      <point x="204" y="804"/>
      <point x="396" y="721" type="curve"/>
    </contour>
    <contour>
      <point x="-12" y="1143" type="line"/>
      <point x="1337" y="1143" type="line"/>
      <point x="1337" y="1247" type="line"/>
      <point x="-12" y="1247" type="line"/>
    </contour>
    <contour>
      <point x="941" y="935" type="line"/>
      <point x="1065" y="935" type="line"/>
      <point x="1065" y="1216" type="line"/>
      <point x="941" y="1216" type="line"/>
    </contour>
  </outline>
</glyph>
<glyph name="circumflexcomb_acutecomb" format="2">
  <anchor x="-343" y="1050" name="_top"/>
  <outline>
    <contour>
      <point x="-681" y="1173" type="line"/>
      <point x="-583" y="1173" type="line"/>
      <point x="-458" y="1326" type="line"/>
      <point x="-450" y="1326" type="line"/>
      <point x="-325" y="1173" type="line"/>
      <point x="-227" y="1173" type="line"/>
      <point x="-397" y="1412" type="line"/>
      <point x="-511" y="1412" type="line"/>
    </contour>
    <contour>
      <point x="-281" y="1309" type="line"/>
      <point x="-192" y="1309" type="line"/>
      <point x="-5" y="1539" type="line"/>
      <point x="-128" y="1539" type="line"/>
    </contour>
  </outline>
</glyph>
<glyph name="circumflexcomb_brevecomb.cap" format="2">
  <anchor x="0" y="1346" name="_top"/>
  <anchor x="2" y="1907" name="top"/>
  <outline>
    <contour>
      <point x="-248" y="1448" type="line"/>
      <point x="-139" y="1448" type="line"/>
      <point x="-4" y="1579" type="line"/>
      <point x="4" y="1579" type="line"/>
      <point x="139" y="1448" type="line"/>
      <point x="248" y="1448" type="line"/>
      <point x="60" y="1661" type="line"/>
      <point x="-60" y="1661" type="line"/>
    </contour>
    <contour>
      <point x="162" y="1907" type="line"/>
      <point x="146" y="1844"/>
      <point x="100" y="1797"/>
      <point x="0" y="1797" type="curve" smooth="yes"/>
      <point x="-100" y="1797"/>
      <point x="-146" y="1844"/>
      <point x="-162" y="1907" type="curve"/>
      <point x="-242" y="1907" type="line"/>
      <point x="-229" y="1808"/>
      <point x="-153" y="1718"/>
      <point x="0" y="1718" type="curve" smooth="yes"/>
      <point x="153" y="1718"/>
      <point x="229" y="1808"/>
      <point x="242" y="1907" type="curve"/>
    </contour>
  </outline>
</glyph>
<glyph name="circumflexcomb_gravecomb.cap" format="2">
  <anchor x="-368" y="1050" name="_top"/>
  <outline>
    <contour>
      <point x="-615" y="1448" type="line"/>
      <point x="-506" y="1448" type="line"/>
      <point x="-371" y="1579" type="line"/>
      <point x="-363" y="1579" type="line"/>
      <point x="-228" y="1448" type="line"/>
      <point x="-119" y="1448" type="line"/>
      <point x="-307" y="1661" type="line"/>
      <point x="-427" y="1661" type="line"/>
    </contour>
    <contour>
      <point x="-108" y="1577" type="line"/>
      <point x="-17" y="1577" type="line"/>
      <point x="-163" y="1800" type="line"/>
      <point x="-290" y="1800" type="line"/>
    </contour>
  </outline>
</glyph>
<glyph name="circumflexcomb_gravecomb" format="2">
  <anchor x="-418" y="1050" name="_top"/>
  <outline>
    <contour>
      <point x="-647" y="1173" type="line"/>
      <point x="-549" y="1173" type="line"/>
      <point x="-424" y="1326" type="line"/>
      <point x="-416" y="1326" type="line"/>
      <point x="-291" y="1173" type="line"/>
      <point x="-193" y="1173" type="line"/>
      <point x="-363" y="1412" type="line"/>
      <point x="-477" y="1412" type="line"/>
    </contour>
    <contour>
      <point x="-121" y="1309" type="line"/>
      <point x="-32" y="1309" type="line"/>
      <point x="-186" y="1539" type="line"/>
      <point x="-309" y="1539" type="line"/>
    </contour>
  </outline>
</glyph>
<glyph name="comma.dnom" format="2">
  <advance width="347"/>
  <outline>
    <contour>
      <point x="98" y="-230" type="line"/>
      <point x="208" y="-187"/>
      <point x="279" y="-89"/>
      <point x="279" y="24" type="curve" smooth="yes"/>
      <point x="279" y="114"/>
      <point x="240" y="161"/>
      <point x="178" y="161" type="curve" smooth="yes"/>
      <point x="133" y="161"/>
      <point x="91" y="129"/>
      <point x="91" y="75" type="curve" smooth="yes"/>
      <point x="91" y="22"/>
      <point x="133" y="-3"/>
      <point x="175" y="-3" type="curve" smooth="yes"/>
      <point x="181" y="-3"/>
      <point x="187" y="-3"/>
      <point x="193" y="-1" type="curve"/>
      <point x="192" y="-79"/>
      <point x="143" y="-133"/>
      <point x="69" y="-164" type="curve"/>
    </contour>
  </outline>
</glyph>
<glyph name="comma.numr" format="2">
  <advance width="347"/>
  <outline>
    <contour>
      <point x="98" y="318" type="line"/>
      <point x="208" y="361"/>
      <point x="279" y="459"/>
      <point x="279" y="571" type="curve" smooth="yes"/>
      <point x="279" y="662"/>
      <point x="240" y="710"/>
      <point x="178" y="710" type="curve" smooth="yes"/>
      <point x="133" y="710"/>
      <point x="91" y="677"/>
      <point x="91" y="623" type="curve" smooth="yes"/>
      <point x="91" y="571"/>
      <point x="133" y="546"/>
      <point x="175" y="546" type="curve" smooth="yes"/>
      <point x="181" y="546"/>
      <point x="187" y="546"/>
      <point x="193" y="548" type="curve"/>
      <point x="192" y="469"/>
      <point x="143" y="414"/>
      <point x="69" y="384" type="curve"/>
    </contour>
  </outline>
</glyph>
<glyph name="comma.subs" format="2">
  <advance width="347"/>
  <outline>
    <contour>
      <point x="98" y="-632" type="line"/>
      <point x="208" y="-589"/>
      <point x="279" y="-492"/>
      <point x="279" y="-377" type="curve" smooth="yes"/>
      <point x="279" y="-288"/>
      <point x="240" y="-240"/>
      <point x="178" y="-240" type="curve" smooth="yes"/>
      <point x="133" y="-240"/>
      <point x="91" y="-273"/>
      <point x="91" y="-326" type="curve" smooth="yes"/>
      <point x="91" y="-379"/>
      <point x="133" y="-404"/>
      <point x="175" y="-404" type="curve" smooth="yes"/>
      <point x="181" y="-404"/>
      <point x="187" y="-404"/>
      <point x="193" y="-402" type="curve"/>
      <point x="192" y="-481"/>
      <point x="143" y="-535"/>
      <point x="69" y="-566" type="curve"/>
    </contour>
  </outline>
</glyph>
<glyph name="comma.sups" format="2">
  <advance width="347"/>
  <outline>
    <contour>
      <point x="98" y="671" type="line"/>
      <point x="208" y="715"/>
      <point x="279" y="812"/>
      <point x="279" y="925" type="curve" smooth="yes"/>
      <point x="279" y="1015"/>
      <point x="240" y="1062"/>
      <point x="178" y="1062" type="curve" smooth="yes"/>
      <point x="133" y="1062"/>
      <point x="91" y="1030"/>
      <point x="91" y="976" type="curve" smooth="yes"/>
      <point x="91" y="924"/>
      <point x="133" y="898"/>
      <point x="175" y="898" type="curve" smooth="yes"/>
      <point x="181" y="898"/>
      <point x="187" y="898"/>
      <point x="193" y="900" type="curve"/>
      <point x="192" y="822"/>
      <point x="143" y="768"/>
      <point x="69" y="737" type="curve"/>
    </contour>
  </outline>
</glyph>
